<?xml version="1.0" encoding="UTF-8"?>
<!DOCTYPE svg PUBLIC "-//W3C//DTD SVG 1.1//EN" "http://www.w3.org/Graphics/SVG/1.1/DTD/svg11.dtd">
<svg xmlns="http://www.w3.org/2000/svg" version="1.1" width="400px" height="400px" style="shape-rendering:geometricPrecision; text-rendering:geometricPrecision; image-rendering:optimizeQuality; fill-rule:evenodd; clip-rule:evenodd" xmlns:xlink="http://www.w3.org/1999/xlink">
<g><path style="opacity:1" fill="#000b26" d="M -0.5,-0.5 C 132.833,-0.5 266.167,-0.5 399.5,-0.5C 399.5,132.833 399.5,266.167 399.5,399.5C 266.167,399.5 132.833,399.5 -0.5,399.5C -0.5,266.167 -0.5,132.833 -0.5,-0.5 Z"/></g>
<g><path style="opacity:1" fill="#0c0a2d" d="M 214.5,51.5 C 212.184,50.1944 209.85,48.8611 207.5,47.5C 206.22,46.0687 204.553,45.4021 202.5,45.5C 200.372,44.3709 198.039,44.2042 195.5,45C 193.68,45.2004 192.347,46.0337 191.5,47.5C 189.004,48.5804 186.67,49.9138 184.5,51.5C 184.281,50.325 184.614,49.325 185.5,48.5C 193.614,42.747 202.114,42.0804 211,46.5C 211.333,45.5 211.667,44.5 212,43.5C 213.136,46.0964 213.969,48.763 214.5,51.5 Z"/></g>
<g><path style="opacity:1" fill="#543777" d="M 202.5,45.5 C 198.681,45.414 195.015,46.0807 191.5,47.5C 192.347,46.0337 193.68,45.2004 195.5,45C 198.039,44.2042 200.372,44.3709 202.5,45.5 Z"/></g>
<g><path style="opacity:1" fill="#8a5cad" d="M 202.5,45.5 C 204.553,45.4021 206.22,46.0687 207.5,47.5C 204.781,47.6025 202.115,47.2692 199.5,46.5C 197.578,46.8008 195.912,47.4675 194.5,48.5C 186.956,52.7511 179.956,57.7511 173.5,63.5C 176.881,59.2933 180.547,55.2933 184.5,51.5C 186.67,49.9138 189.004,48.5804 191.5,47.5C 195.015,46.0807 198.681,45.414 202.5,45.5 Z"/></g>
<g><path style="opacity:1" fill="#8965b8" d="M 207.5,47.5 C 209.85,48.8611 212.184,50.1944 214.5,51.5C 215.167,54.1667 216.833,55.8333 219.5,56.5C 221.5,58.8333 223.5,61.1667 225.5,63.5C 222.607,61.886 219.607,60.5527 216.5,59.5C 215.568,55.5492 213.235,54.2158 209.5,55.5C 207.798,53.1998 207.132,50.5331 207.5,47.5 Z"/></g>
<g><path style="opacity:1" fill="#271953" d="M 214.5,51.5 C 216.411,52.075 218.078,53.075 219.5,54.5C 219.5,55.1667 219.5,55.8333 219.5,56.5C 216.833,55.8333 215.167,54.1667 214.5,51.5 Z"/></g>
<g><path style="opacity:1" fill="#9266c4" d="M 216.5,59.5 C 214.97,60.0668 213.47,60.7334 212,61.5C 209.786,66.8079 207.953,72.3079 206.5,78C 202.182,84.1364 198.515,90.6364 195.5,97.5C 195.5,98.1667 195.5,98.8333 195.5,99.5C 195.167,100.167 194.833,100.833 194.5,101.5C 193.833,101.5 193.167,101.5 192.5,101.5C 191.127,101.343 189.793,101.51 188.5,102C 187.449,103.385 186.116,104.385 184.5,105C 182.845,106.444 182.178,108.278 182.5,110.5C 182.5,111.167 182.167,111.5 181.5,111.5C 180.833,111.5 180.167,111.5 179.5,111.5C 180.028,110.279 180.695,109.113 181.5,108C 181.167,107.667 180.833,107.333 180.5,107C 183.345,103.473 186.012,99.8067 188.5,96C 187.941,95.2753 187.608,94.4419 187.5,93.5C 190.407,89.538 192.574,85.2046 194,80.5C 195,79.8333 196,79.1667 197,78.5C 198.844,71.4602 202.177,65.4602 207,60.5C 207.05,58.256 207.883,56.5893 209.5,55.5C 213.235,54.2158 215.568,55.5492 216.5,59.5 Z"/></g>
<g><path style="opacity:1" fill="#110b32" d="M 184.5,51.5 C 180.547,55.2933 176.881,59.2933 173.5,63.5C 173.167,63.5 172.833,63.5 172.5,63.5C 171.094,63.9731 170.427,64.9731 170.5,66.5C 170.167,66.5 169.833,66.5 169.5,66.5C 169.298,64.0108 169.798,61.6775 171,59.5C 175.497,56.6745 179.997,54.0079 184.5,51.5 Z"/></g>
<g><path style="opacity:1" fill="#a060c4" d="M 194.5,48.5 C 196.429,48.2308 198.095,48.7308 199.5,50C 196.937,53.6274 194.771,57.4607 193,61.5C 192.51,60.2068 192.343,58.8734 192.5,57.5C 187.007,58.3062 186.34,60.4729 190.5,64C 186.532,71.4353 182.699,78.9353 179,86.5C 177.989,87.3366 176.822,87.67 175.5,87.5C 175.232,90.1194 175.565,92.6194 176.5,95C 176,95.5 175.5,96 175,96.5C 174.02,94.9411 173.187,93.2744 172.5,91.5C 171.22,99.3946 167.886,106.061 162.5,111.5C 161.065,110.087 160.065,108.42 159.5,106.5C 160.012,98.4785 162.512,91.1451 167,84.5C 167.696,81.5219 168.196,78.5219 168.5,75.5C 169.833,75.5 171.167,75.5 172.5,75.5C 172.884,73.3352 172.217,71.6685 170.5,70.5C 167.791,73.8755 164.791,76.8755 161.5,79.5C 163.193,76.8159 164.86,74.1492 166.5,71.5C 168.543,70.4206 169.876,68.754 170.5,66.5C 171.906,66.0269 172.573,65.0269 172.5,63.5C 172.833,63.5 173.167,63.5 173.5,63.5C 179.956,57.7511 186.956,52.7511 194.5,48.5 Z"/></g>
<g><path style="opacity:1" fill="#8c68c6" d="M 216.5,59.5 C 219.607,60.5527 222.607,61.886 225.5,63.5C 225.5,64.8333 225.5,66.1667 225.5,67.5C 223.681,68.5845 222.015,69.9178 220.5,71.5C 218.136,80.0609 214.803,88.2276 210.5,96C 209.381,97.876 207.714,98.7093 205.5,98.5C 202.272,97.5863 198.939,97.2529 195.5,97.5C 198.515,90.6364 202.182,84.1364 206.5,78C 207.953,72.3079 209.786,66.8079 212,61.5C 213.47,60.7334 214.97,60.0668 216.5,59.5 Z"/></g>
<g><path style="opacity:1" fill="#090b2d" d="M 219.5,54.5 C 221.148,55.7772 222.982,56.7772 225,57.5C 225.423,56.0439 226.256,55.5439 227.5,56C 228.167,57.3333 229.167,58.3333 230.5,59C 229.981,61.0258 229.647,63.0258 229.5,65C 231.594,63.9057 233.927,63.5723 236.5,64C 237.609,65.813 236.942,66.6463 234.5,66.5C 234.5,68.5 234.5,70.5 234.5,72.5C 233.833,72.1667 233.167,71.8333 232.5,71.5C 232.5,70.8333 232.167,70.5 231.5,70.5C 230.243,67.5726 228.243,65.2393 225.5,63.5C 223.5,61.1667 221.5,58.8333 219.5,56.5C 219.5,55.8333 219.5,55.1667 219.5,54.5 Z"/></g>
<g><path style="opacity:1" fill="#542e71" d="M 172.5,63.5 C 172.573,65.0269 171.906,66.0269 170.5,66.5C 170.427,64.9731 171.094,63.9731 172.5,63.5 Z"/></g>
<g><path style="opacity:1" fill="#7260aa" d="M 225.5,63.5 C 228.243,65.2393 230.243,67.5726 231.5,70.5C 229.426,69.4861 227.426,68.4861 225.5,67.5C 225.5,66.1667 225.5,64.8333 225.5,63.5 Z"/></g>
<g><path style="opacity:1" fill="#9963c5" d="M 207.5,47.5 C 207.132,50.5331 207.798,53.1998 209.5,55.5C 207.883,56.5893 207.05,58.256 207,60.5C 202.177,65.4602 198.844,71.4602 197,78.5C 196,79.1667 195,79.8333 194,80.5C 192.574,85.2046 190.407,89.538 187.5,93.5C 187.608,94.4419 187.941,95.2753 188.5,96C 186.012,99.8067 183.345,103.473 180.5,107C 180.833,107.333 181.167,107.667 181.5,108C 180.695,109.113 180.028,110.279 179.5,111.5C 178.522,113.532 177.022,115.198 175,116.5C 174.517,117.448 174.351,118.448 174.5,119.5C 173.209,119.263 172.209,119.596 171.5,120.5C 169.876,120.36 168.71,121.027 168,122.5C 167.421,118.797 167.588,115.131 168.5,111.5C 166.5,111.5 164.5,111.5 162.5,111.5C 167.886,106.061 171.22,99.3946 172.5,91.5C 173.187,93.2744 174.02,94.9411 175,96.5C 175.5,96 176,95.5 176.5,95C 175.565,92.6194 175.232,90.1194 175.5,87.5C 176.822,87.67 177.989,87.3366 179,86.5C 182.699,78.9353 186.532,71.4353 190.5,64C 186.34,60.4729 187.007,58.3062 192.5,57.5C 192.343,58.8734 192.51,60.2068 193,61.5C 194.771,57.4607 196.937,53.6274 199.5,50C 198.095,48.7308 196.429,48.2308 194.5,48.5C 195.912,47.4675 197.578,46.8008 199.5,46.5C 202.115,47.2692 204.781,47.6025 207.5,47.5 Z"/></g>
<g><path style="opacity:1" fill="#643c83" d="M 169.5,66.5 C 169.833,66.5 170.167,66.5 170.5,66.5C 169.876,68.754 168.543,70.4206 166.5,71.5C 166.733,69.9382 167.4,68.6049 168.5,67.5C 168.5,66.8333 168.833,66.5 169.5,66.5 Z"/></g>
<g><path style="opacity:1" fill="#0a0a33" d="M 168.5,67.5 C 167.4,68.6049 166.733,69.9382 166.5,71.5C 165.167,72.5 163.833,73.5 162.5,74.5C 162.427,70.2798 164.427,67.9464 168.5,67.5 Z"/></g>
<g><path style="opacity:1" fill="#856bc8" d="M 225.5,67.5 C 227.426,68.4861 229.426,69.4861 231.5,70.5C 232.167,70.5 232.5,70.8333 232.5,71.5C 232.971,73.5786 233.637,75.5786 234.5,77.5C 234.649,78.552 234.483,79.552 234,80.5C 233.333,79.1667 232.667,79.1667 232,80.5C 231.313,77.5744 229.48,76.2411 226.5,76.5C 226.827,78.4878 227.16,80.4878 227.5,82.5C 225.05,86.2812 223.05,90.2812 221.5,94.5C 221.833,95.1667 222.167,95.8333 222.5,96.5C 220.955,97.4519 219.288,97.7852 217.5,97.5C 217.396,99.7028 216.73,101.703 215.5,103.5C 211.822,102.328 208.489,100.661 205.5,98.5C 207.714,98.7093 209.381,97.876 210.5,96C 214.803,88.2276 218.136,80.0609 220.5,71.5C 222.015,69.9178 223.681,68.5845 225.5,67.5 Z"/></g>
<g><path style="opacity:1" fill="#6f65a8" d="M 232.5,71.5 C 233.167,71.8333 233.833,72.1667 234.5,72.5C 234.5,73.1667 234.833,73.5 235.5,73.5C 236.5,75.5 237.5,77.5 238.5,79.5C 236.801,79.4729 235.467,78.8062 234.5,77.5C 233.637,75.5786 232.971,73.5786 232.5,71.5 Z"/></g>
<g><path style="opacity:1" fill="#7e6ec8" d="M 234.5,77.5 C 235.467,78.8062 236.801,79.4729 238.5,79.5C 238.964,83.9628 241.297,86.9628 245.5,88.5C 245.557,89.609 245.89,90.609 246.5,91.5C 243.597,89.6219 240.763,88.2886 238,87.5C 235.647,90.8487 232.98,93.8487 230,96.5C 229.212,99.9627 227.546,102.963 225,105.5C 223.964,102.706 222.464,102.206 220.5,104C 223.58,106.645 224.247,109.812 222.5,113.5C 220.453,111.925 218.119,110.925 215.5,110.5C 215.5,110.167 215.5,109.833 215.5,109.5C 215.5,107.5 215.5,105.5 215.5,103.5C 216.73,101.703 217.396,99.7028 217.5,97.5C 219.288,97.7852 220.955,97.4519 222.5,96.5C 222.167,95.8333 221.833,95.1667 221.5,94.5C 223.05,90.2812 225.05,86.2812 227.5,82.5C 227.16,80.4878 226.827,78.4878 226.5,76.5C 229.48,76.2411 231.313,77.5744 232,80.5C 232.667,79.1667 233.333,79.1667 234,80.5C 234.483,79.552 234.649,78.552 234.5,77.5 Z"/></g>
<g><path style="opacity:1" fill="#060e33" d="M 235.5,73.5 C 238.346,73.8087 239.846,75.4754 240,78.5C 241.333,79.1667 242.667,79.8333 244,80.5C 246.122,84.408 247.955,88.408 249.5,92.5C 248.167,91.1667 246.833,89.8333 245.5,88.5C 244.306,84.6367 241.973,81.6367 238.5,79.5C 237.5,77.5 236.5,75.5 235.5,73.5 Z"/></g>
<g><path style="opacity:1" fill="#6562a6" d="M 238.5,79.5 C 241.973,81.6367 244.306,84.6367 245.5,88.5C 241.297,86.9628 238.964,83.9628 238.5,79.5 Z"/></g>
<g><path style="opacity:1" fill="#664383" d="M 166.5,71.5 C 164.86,74.1492 163.193,76.8159 161.5,79.5C 159.379,82.1031 157.046,84.4364 154.5,86.5C 156.774,82.228 159.441,78.228 162.5,74.5C 163.833,73.5 165.167,72.5 166.5,71.5 Z"/></g>
<g><path style="opacity:1" fill="#7871cb" d="M 246.5,91.5 C 246.5,92.8333 246.5,94.1667 246.5,95.5C 245.167,95.5 243.833,95.5 242.5,95.5C 242.5,99.1667 242.5,102.833 242.5,106.5C 239.654,106.191 238.154,104.525 238,101.5C 233.689,106.116 231.856,111.449 232.5,117.5C 231.592,119.567 230.592,121.567 229.5,123.5C 226.145,120.971 223.812,117.637 222.5,113.5C 224.247,109.812 223.58,106.645 220.5,104C 222.464,102.206 223.964,102.706 225,105.5C 227.546,102.963 229.212,99.9627 230,96.5C 232.98,93.8487 235.647,90.8487 238,87.5C 240.763,88.2886 243.597,89.6219 246.5,91.5 Z"/></g>
<g><path style="opacity:1" fill="#4f2e69" d="M 154.5,86.5 C 154.443,87.609 154.11,88.609 153.5,89.5C 152.5,90.1667 151.5,90.8333 150.5,91.5C 151.08,89.2512 152.413,87.5846 154.5,86.5 Z"/></g>
<g><path style="opacity:1" fill="#6267ac" d="M 245.5,88.5 C 246.833,89.8333 248.167,91.1667 249.5,92.5C 250.11,93.391 250.443,94.391 250.5,95.5C 249.167,95.5 247.833,95.5 246.5,95.5C 246.5,94.1667 246.5,92.8333 246.5,91.5C 245.89,90.609 245.557,89.609 245.5,88.5 Z"/></g>
<g><path style="opacity:1" fill="#321951" d="M 147.5,95.5 C 147.573,97.0269 146.906,98.0269 145.5,98.5C 145.427,96.9731 146.094,95.9731 147.5,95.5 Z"/></g>
<g><path style="opacity:1" fill="#322659" d="M 195.5,99.5 C 198.059,99.1984 200.393,99.5318 202.5,100.5C 199.763,100.401 197.096,100.735 194.5,101.5C 194.833,100.833 195.167,100.167 195.5,99.5 Z"/></g>
<g><path style="opacity:1" fill="#8e5aa7" d="M 153.5,89.5 C 152.027,93.8246 149.86,97.8246 147,101.5C 145.887,102.305 144.721,102.972 143.5,103.5C 143.893,101.716 144.559,100.05 145.5,98.5C 146.906,98.0269 147.573,97.0269 147.5,95.5C 148.5,94.1667 149.5,92.8333 150.5,91.5C 151.5,90.8333 152.5,90.1667 153.5,89.5 Z"/></g>
<g><path style="opacity:1" fill="#7c69b6" d="M 195.5,97.5 C 198.939,97.2529 202.272,97.5863 205.5,98.5C 208.489,100.661 211.822,102.328 215.5,103.5C 215.5,105.5 215.5,107.5 215.5,109.5C 214.833,109.5 214.167,109.5 213.5,109.5C 213.167,108.5 212.5,107.833 211.5,107.5C 209.363,104.027 206.363,101.694 202.5,100.5C 200.393,99.5318 198.059,99.1984 195.5,99.5C 195.5,98.8333 195.5,98.1667 195.5,97.5 Z"/></g>
<g><path style="opacity:1" fill="#050a2d" d="M 202.5,100.5 C 206.363,101.694 209.363,104.027 211.5,107.5C 209.04,106.063 206.374,105.063 203.5,104.5C 203.5,105.833 203.5,107.167 203.5,108.5C 200.833,108.5 198.167,108.5 195.5,108.5C 195.5,107.167 195.5,105.833 195.5,104.5C 194.448,104.351 193.448,104.517 192.5,105C 190.271,107.4 187.937,109.567 185.5,111.5C 186.754,108.907 188.42,106.573 190.5,104.5C 191.167,103.5 191.833,102.5 192.5,101.5C 193.167,101.5 193.833,101.5 194.5,101.5C 197.096,100.735 199.763,100.401 202.5,100.5 Z"/></g>
<g><path style="opacity:1" fill="#6f74cb" d="M 246.5,95.5 C 247.833,95.5 249.167,95.5 250.5,95.5C 251.298,99.089 252.631,102.422 254.5,105.5C 252.816,107 251.149,108.667 249.5,110.5C 250.167,111.167 250.833,111.833 251.5,112.5C 248.913,117.744 246.413,123.077 244,128.5C 242.855,129.684 241.688,129.684 240.5,128.5C 238.205,127.208 236.372,127.874 235,130.5C 232.577,128.583 230.744,126.25 229.5,123.5C 230.592,121.567 231.592,119.567 232.5,117.5C 231.856,111.449 233.689,106.116 238,101.5C 238.154,104.525 239.654,106.191 242.5,106.5C 242.5,102.833 242.5,99.1667 242.5,95.5C 243.833,95.5 245.167,95.5 246.5,95.5 Z"/></g>
<g><path style="opacity:1" fill="#130d34" d="M 145.5,98.5 C 144.559,100.05 143.893,101.716 143.5,103.5C 139.793,106.576 136.793,110.242 134.5,114.5C 134.983,109.18 137.483,105.18 142,102.5C 142.49,101.207 142.657,99.8734 142.5,98.5C 143.5,98.5 144.5,98.5 145.5,98.5 Z"/></g>
<g><path style="opacity:1" fill="#8368b3" d="M 192.5,101.5 C 191.833,102.5 191.167,103.5 190.5,104.5C 187.569,106.091 184.902,108.091 182.5,110.5C 182.178,108.278 182.845,106.444 184.5,105C 186.116,104.385 187.449,103.385 188.5,102C 189.793,101.51 191.127,101.343 192.5,101.5 Z"/></g>
<g><path style="opacity:1" fill="#a060c5" d="M 157.5,106.5 C 159.736,120.005 155.403,130.672 144.5,138.5C 144.069,139.293 143.735,140.127 143.5,141C 145.741,143.428 145.908,145.928 144,148.5C 143.085,147.672 142.419,146.672 142,145.5C 139.583,149.331 137.417,153.331 135.5,157.5C 134.264,158.357 132.931,159.023 131.5,159.5C 130.671,164.467 130.171,169.467 130,174.5C 128.644,175.38 127.144,175.714 125.5,175.5C 124.081,180.347 122.081,185.014 119.5,189.5C 118.264,190.357 116.931,191.023 115.5,191.5C 114.505,196.792 114.172,202.125 114.5,207.5C 112.533,207.739 110.699,207.406 109,206.5C 108,207.167 107,207.833 106,208.5C 102.922,213.983 100.422,219.65 98.5,225.5C 96.5,227.5 94.5,229.5 92.5,231.5C 90.4402,239.62 87.2736,247.287 83,254.5C 81.3403,254.324 79.6736,254.991 78,256.5C 77.1048,258.804 76.2715,261.138 75.5,263.5C 74.4255,261.018 73.0922,258.684 71.5,256.5C 70.16,257.688 69.4934,259.188 69.5,261C 70.6301,264.521 70.6301,268.021 69.5,271.5C 67.1052,272.523 66.1052,271.523 66.5,268.5C 68.0915,262.96 69.2582,257.293 70,251.5C 72.2088,248.211 73.0421,244.544 72.5,240.5C 72.5,239.833 72.8333,239.5 73.5,239.5C 74.5,239.5 75.5,239.5 76.5,239.5C 76.3367,237.143 76.5034,234.81 77,232.5C 78.8296,228.714 80.163,224.714 81,220.5C 81.6708,219.748 82.5041,219.414 83.5,219.5C 83.33,220.822 83.6634,221.989 84.5,223C 87.146,223.497 89.8127,223.664 92.5,223.5C 92.5,222.5 92.5,221.5 92.5,220.5C 91.1779,220.67 90.0113,220.337 89,219.5C 88.5026,216.854 88.3359,214.187 88.5,211.5C 90.1667,211.5 91.8333,211.5 93.5,211.5C 93.1667,208.833 92.8333,206.167 92.5,203.5C 95.3289,203.325 96.9955,204.658 97.5,207.5C 98.4255,206.359 99.2588,206.359 100,207.5C 102.884,201.075 105.717,194.742 108.5,188.5C 107.933,186.031 107.933,183.698 108.5,181.5C 109.158,182.398 109.824,183.398 110.5,184.5C 112.571,182.035 114.404,179.368 116,176.5C 117,175.833 118,175.167 119,174.5C 120.465,169.773 122.131,165.107 124,160.5C 127.59,157.336 129.423,153.336 129.5,148.5C 130.816,147.193 131.816,145.693 132.5,144C 136.633,143.199 138.466,140.699 138,136.5C 144.861,129.773 149.361,121.773 151.5,112.5C 152.552,112.649 153.552,112.483 154.5,112C 154.989,109.791 155.989,107.958 157.5,106.5 Z"/></g>
<g><path style="opacity:1" fill="#5d6aae" d="M 250.5,95.5 C 251.833,96.8333 253.167,98.1667 254.5,99.5C 257.167,104.167 259.833,108.833 262.5,113.5C 258.938,111.693 256.272,109.027 254.5,105.5C 252.631,102.422 251.298,99.089 250.5,95.5 Z"/></g>
<g><path style="opacity:1" fill="#24174e" d="M 190.5,104.5 C 188.42,106.573 186.754,108.907 185.5,111.5C 184.508,111.328 183.842,111.662 183.5,112.5C 182.035,113.406 181.035,114.739 180.5,116.5C 179.675,117.386 178.675,117.719 177.5,117.5C 179.226,115.772 180.559,113.772 181.5,111.5C 182.167,111.5 182.5,111.167 182.5,110.5C 184.902,108.091 187.569,106.091 190.5,104.5 Z"/></g>
<g><path style="opacity:1" fill="#000b26" d="M 211.5,107.5 C 212.5,107.833 213.167,108.5 213.5,109.5C 214.228,115.398 217.394,119.398 223,121.5C 223.567,125.067 225.567,127.4 229,128.5C 230.563,134.994 234.063,139.994 239.5,143.5C 239.5,145.5 239.5,147.5 239.5,149.5C 240.833,149.5 242.167,149.5 243.5,149.5C 244.89,150.899 245.89,152.566 246.5,154.5C 247.465,159.561 249.132,164.394 251.5,169C 253.075,171.076 255.075,172.576 257.5,173.5C 258.338,173.842 258.672,174.508 258.5,175.5C 258.755,177.967 259.755,179.967 261.5,181.5C 262.728,182.306 263.728,183.306 264.5,184.5C 264.66,186.153 265.326,187.486 266.5,188.5C 267.778,192.667 269.444,196.667 271.5,200.5C 272.441,202.05 273.107,203.716 273.5,205.5C 273.804,208.522 274.304,211.522 275,214.5C 276.947,217.63 278.781,220.63 280.5,223.5C 281.687,225.072 282.687,226.739 283.5,228.5C 283.833,230.5 284.167,232.5 284.5,234.5C 284.428,237.193 284.095,239.86 283.5,242.5C 285.34,245.432 286.34,248.765 286.5,252.5C 286.167,254.5 285.833,256.5 285.5,258.5C 283.02,260.304 281.353,262.637 280.5,265.5C 278.95,266.441 277.284,267.107 275.5,267.5C 274.022,267.762 272.689,267.429 271.5,266.5C 273.429,264.94 274.762,262.94 275.5,260.5C 274.672,259.585 273.672,258.919 272.5,258.5C 271.756,259.991 271.09,261.491 270.5,263C 268.212,263.822 265.878,264.489 263.5,265C 264.331,266.892 265.331,268.726 266.5,270.5C 266.5,270.833 266.5,271.167 266.5,271.5C 265.833,271.5 265.167,271.5 264.5,271.5C 263.167,271.5 261.833,271.5 260.5,271.5C 256.486,271.334 252.486,271.501 248.5,272C 239.835,273.215 231.502,274.715 223.5,276.5C 221.833,276.5 220.167,276.5 218.5,276.5C 204.496,276.667 190.496,276.5 176.5,276C 174.038,274.784 171.371,274.118 168.5,274C 158.153,273.248 147.82,272.415 137.5,271.5C 133.128,267.499 127.794,265.666 121.5,266C 119.345,263.423 116.679,261.589 113.5,260.5C 114.718,259.197 114.385,258.197 112.5,257.5C 111.27,254.524 111.27,251.524 112.5,248.5C 114.372,246.035 116.372,243.702 118.5,241.5C 117.675,240.614 116.675,240.281 115.5,240.5C 116.331,229.839 119.831,220.172 126,211.5C 127.557,208.334 128.39,205 128.5,201.5C 130.663,198.166 131.996,194.5 132.5,190.5C 133.822,190.67 134.989,190.337 136,189.5C 135.978,185.182 137.645,181.848 141,179.5C 141.494,177.866 141.66,176.199 141.5,174.5C 142.822,174.33 143.989,174.663 145,175.5C 145.155,173.144 145.155,170.811 145,168.5C 149.067,165.195 151.567,160.862 152.5,155.5C 153.496,155.586 154.329,155.252 155,154.5C 155.245,152.337 156.245,150.67 158,149.5C 159.128,147.655 159.628,145.655 159.5,143.5C 160.833,143.5 161.5,142.833 161.5,141.5C 164.753,137.906 168.087,134.239 171.5,130.5C 172.065,132.51 173.065,134.176 174.5,135.5C 175.941,132.264 175.608,129.264 173.5,126.5C 174.806,125.088 175.64,123.421 176,121.5C 178.333,119.833 180.667,118.167 183,116.5C 183.49,115.207 183.657,113.873 183.5,112.5C 183.842,111.662 184.508,111.328 185.5,111.5C 187.937,109.567 190.271,107.4 192.5,105C 193.448,104.517 194.448,104.351 195.5,104.5C 195.5,105.833 195.5,107.167 195.5,108.5C 198.167,108.5 200.833,108.5 203.5,108.5C 203.5,107.167 203.5,105.833 203.5,104.5C 206.374,105.063 209.04,106.063 211.5,107.5 Z"/></g>
<g><path style="opacity:1" fill="#9564c3" d="M 162.5,111.5 C 164.5,111.5 166.5,111.5 168.5,111.5C 167.588,115.131 167.421,118.797 168,122.5C 168.71,121.027 169.876,120.36 171.5,120.5C 170.043,122.785 168.043,124.618 165.5,126C 166.406,127.699 166.739,129.533 166.5,131.5C 165.326,132.514 164.66,133.847 164.5,135.5C 161.836,137.484 160.169,140.151 159.5,143.5C 159.167,143.5 158.833,143.5 158.5,143.5C 156.983,143.511 155.816,144.177 155,145.5C 154.155,147.611 153.322,149.611 152.5,151.5C 152.762,150.022 152.429,148.689 151.5,147.5C 146.915,149.019 145.415,147.352 147,142.5C 148.333,140.5 149.667,138.5 151,136.5C 154.07,136.339 157.236,136.339 160.5,136.5C 162.603,134.176 164.27,131.509 165.5,128.5C 164.758,127.713 163.925,127.047 163,126.5C 162.501,121.511 162.334,116.511 162.5,111.5 Z"/></g>
<g><path style="opacity:1" fill="#6778cc" d="M 254.5,105.5 C 256.272,109.027 258.938,111.693 262.5,113.5C 263.338,113.842 263.672,114.508 263.5,115.5C 263.5,116.833 263.5,118.167 263.5,119.5C 261.469,120.039 259.969,119.039 259,116.5C 257.84,118.797 256.84,118.464 256,115.5C 256.317,119.578 257.15,123.578 258.5,127.5C 257.5,127.5 256.5,127.5 255.5,127.5C 255.666,132.511 255.499,137.511 255,142.5C 253.667,143.833 252.333,145.167 251,146.5C 250.667,145.167 250.333,143.833 250,142.5C 248.989,143.337 247.822,143.67 246.5,143.5C 247.129,145.986 248.129,148.319 249.5,150.5C 249.167,151.5 248.833,152.5 248.5,153.5C 247.066,151.78 246.233,149.78 246,147.5C 245.667,147.833 245.333,148.167 245,148.5C 244.583,147.244 243.75,146.577 242.5,146.5C 242.167,145.833 241.833,145.167 241.5,144.5C 240.781,142.236 240.448,139.903 240.5,137.5C 238.641,137.539 237.308,136.706 236.5,135C 238.868,133.18 240.201,131.013 240.5,128.5C 241.688,129.684 242.855,129.684 244,128.5C 246.413,123.077 248.913,117.744 251.5,112.5C 250.833,111.833 250.167,111.167 249.5,110.5C 251.149,108.667 252.816,107 254.5,105.5 Z"/></g>
<g><path style="opacity:1" fill="#031031" d="M 254.5,99.5 C 259.152,103.868 262.818,109.034 265.5,115C 268.329,115.689 269.996,114.522 270.5,111.5C 270.833,111.833 271.167,112.167 271.5,112.5C 268.857,117.243 268.857,121.909 271.5,126.5C 270.272,125.694 269.272,124.694 268.5,123.5C 267.831,120.151 266.164,117.484 263.5,115.5C 263.672,114.508 263.338,113.842 262.5,113.5C 259.833,108.833 257.167,104.167 254.5,99.5 Z"/></g>
<g><path style="opacity:1" fill="#392055" d="M 134.5,115.5 C 134.573,117.027 133.906,118.027 132.5,118.5C 132.5,117.833 132.5,117.167 132.5,116.5C 133.167,116.167 133.833,115.833 134.5,115.5 Z"/></g>
<g><path style="opacity:1" fill="#8957a3" d="M 143.5,103.5 C 142.345,107.793 140.512,111.793 138,115.5C 135.963,117.706 133.797,119.706 131.5,121.5C 131.557,120.391 131.89,119.391 132.5,118.5C 133.906,118.027 134.573,117.027 134.5,115.5C 134.5,115.167 134.5,114.833 134.5,114.5C 136.793,110.242 139.793,106.576 143.5,103.5 Z"/></g>
<g><path style="opacity:1" fill="#8765b2" d="M 179.5,111.5 C 180.167,111.5 180.833,111.5 181.5,111.5C 180.559,113.772 179.226,115.772 177.5,117.5C 176.026,118.436 175.026,119.77 174.5,121.5C 172.016,123.8 170.016,126.467 168.5,129.5C 167.662,129.842 167.328,130.508 167.5,131.5C 167.167,131.5 166.833,131.5 166.5,131.5C 166.739,129.533 166.406,127.699 165.5,126C 168.043,124.618 170.043,122.785 171.5,120.5C 172.209,119.596 173.209,119.263 174.5,119.5C 174.351,118.448 174.517,117.448 175,116.5C 177.022,115.198 178.522,113.532 179.5,111.5 Z"/></g>
<g><path style="opacity:1" fill="#5465a5" d="M 263.5,115.5 C 266.164,117.484 267.831,120.151 268.5,123.5C 266.846,122.25 265.179,120.916 263.5,119.5C 263.5,118.167 263.5,116.833 263.5,115.5 Z"/></g>
<g><path style="opacity:1" fill="#2f1f56" d="M 174.5,121.5 C 173.471,124.891 171.471,127.557 168.5,129.5C 170.016,126.467 172.016,123.8 174.5,121.5 Z"/></g>
<g><path style="opacity:1" fill="#563375" d="M 129.5,124.5 C 129.573,126.027 128.906,127.027 127.5,127.5C 127.427,125.973 128.094,124.973 129.5,124.5 Z"/></g>
<g><path style="opacity:1" fill="#6a72be" d="M 215.5,110.5 C 218.119,110.925 220.453,111.925 222.5,113.5C 223.812,117.637 226.145,120.971 229.5,123.5C 230.744,126.25 232.577,128.583 235,130.5C 236.372,127.874 238.205,127.208 240.5,128.5C 240.201,131.013 238.868,133.18 236.5,135C 237.308,136.706 238.641,137.539 240.5,137.5C 240.448,139.903 240.781,142.236 241.5,144.5C 240.833,144.167 240.167,143.833 239.5,143.5C 233.072,131.398 225.072,120.398 215.5,110.5 Z"/></g>
<g><path style="opacity:1" fill="#080a2c" d="M 183.5,112.5 C 183.657,113.873 183.49,115.207 183,116.5C 180.667,118.167 178.333,119.833 176,121.5C 175.64,123.421 174.806,125.088 173.5,126.5C 175.608,129.264 175.941,132.264 174.5,135.5C 173.065,134.176 172.065,132.51 171.5,130.5C 168.087,134.239 164.753,137.906 161.5,141.5C 162.529,139.483 163.529,137.483 164.5,135.5C 165.974,134.564 166.974,133.23 167.5,131.5C 167.328,130.508 167.662,129.842 168.5,129.5C 171.471,127.557 173.471,124.891 174.5,121.5C 175.026,119.77 176.026,118.436 177.5,117.5C 178.675,117.719 179.675,117.386 180.5,116.5C 181.035,114.739 182.035,113.406 183.5,112.5 Z"/></g>
<g><path style="opacity:1" fill="#597dcd" d="M 263.5,119.5 C 265.179,120.916 266.846,122.25 268.5,123.5C 270.602,130.606 273.602,137.44 277.5,144C 277.387,145.28 276.72,146.113 275.5,146.5C 274.335,145.509 273.168,144.509 272,143.5C 271.5,143.833 271,144.167 270.5,144.5C 272.234,145.674 273.234,147.34 273.5,149.5C 272.503,154.004 270.836,158.171 268.5,162C 270.008,162.871 271.008,164.704 271.5,167.5C 271.523,169.067 271.023,170.4 270,171.5C 269.529,169.754 268.862,168.087 268,166.5C 264.95,164.451 262.617,161.784 261,158.5C 259.916,159.665 259.083,160.998 258.5,162.5C 259.655,170.15 261.655,177.483 264.5,184.5C 263.728,183.306 262.728,182.306 261.5,181.5C 261.245,179.033 260.245,177.033 258.5,175.5C 258.672,174.508 258.338,173.842 257.5,173.5C 254.192,166.883 250.526,160.55 246.5,154.5C 245.89,152.566 244.89,150.899 243.5,149.5C 243.443,148.391 243.11,147.391 242.5,146.5C 243.75,146.577 244.583,147.244 245,148.5C 245.333,148.167 245.667,147.833 246,147.5C 246.233,149.78 247.066,151.78 248.5,153.5C 248.833,152.5 249.167,151.5 249.5,150.5C 248.129,148.319 247.129,145.986 246.5,143.5C 247.822,143.67 248.989,143.337 250,142.5C 250.333,143.833 250.667,145.167 251,146.5C 252.333,145.167 253.667,143.833 255,142.5C 255.499,137.511 255.666,132.511 255.5,127.5C 256.5,127.5 257.5,127.5 258.5,127.5C 257.15,123.578 256.317,119.578 256,115.5C 256.84,118.464 257.84,118.797 259,116.5C 259.969,119.039 261.469,120.039 263.5,119.5 Z"/></g>
<g><path style="opacity:1" fill="#02153a" d="M 272.5,127.5 C 273.5,127.5 274.5,127.5 275.5,127.5C 276.167,130.5 276.833,133.5 277.5,136.5C 276.167,134.833 274.833,133.167 273.5,131.5C 273.167,130.167 272.833,128.833 272.5,127.5 Z"/></g>
<g><path style="opacity:1" fill="#8252a0" d="M 127.5,127.5 C 127.408,131.684 125.741,135.017 122.5,137.5C 122.691,133.337 124.357,130.004 127.5,127.5 Z"/></g>
<g><path style="opacity:1" fill="#3c2764" d="M 166.5,131.5 C 166.833,131.5 167.167,131.5 167.5,131.5C 166.974,133.23 165.974,134.564 164.5,135.5C 164.66,133.847 165.326,132.514 166.5,131.5 Z"/></g>
<g><path style="opacity:1" fill="#07133b" d="M 213.5,109.5 C 214.167,109.5 214.833,109.5 215.5,109.5C 215.5,109.833 215.5,110.167 215.5,110.5C 225.072,120.398 233.072,131.398 239.5,143.5C 234.063,139.994 230.563,134.994 229,128.5C 225.567,127.4 223.567,125.067 223,121.5C 217.394,119.398 214.228,115.398 213.5,109.5 Z"/></g>
<g><path style="opacity:1" fill="#110c31" d="M 132.5,116.5 C 132.5,117.167 132.5,117.833 132.5,118.5C 131.89,119.391 131.557,120.391 131.5,121.5C 130.599,122.29 129.932,123.29 129.5,124.5C 128.094,124.973 127.427,125.973 127.5,127.5C 124.357,130.004 122.691,133.337 122.5,137.5C 120.357,139.131 118.69,141.131 117.5,143.5C 117.338,141.473 117.505,139.473 118,137.5C 120.489,133.689 123.155,130.023 126,126.5C 127.988,123.528 129.488,120.361 130.5,117C 129.551,116.383 128.718,116.549 128,117.5C 128.423,115.613 128.256,113.613 127.5,111.5C 128.5,111.5 129.5,111.5 130.5,111.5C 130.365,113.554 131.032,115.221 132.5,116.5 Z"/></g>
<g><path style="opacity:1" fill="#2d1e53" d="M 164.5,135.5 C 163.529,137.483 162.529,139.483 161.5,141.5C 161.5,142.833 160.833,143.5 159.5,143.5C 160.169,140.151 161.836,137.484 164.5,135.5 Z"/></g>
<g><path style="opacity:1" fill="#8354a3" d="M 122.5,137.5 C 121.41,142.026 119.077,145.692 115.5,148.5C 116.167,146.833 116.833,145.167 117.5,143.5C 118.69,141.131 120.357,139.131 122.5,137.5 Z"/></g>
<g><path style="opacity:1" fill="#456ea6" d="M 273.5,131.5 C 274.833,133.167 276.167,134.833 277.5,136.5C 279.513,140.527 281.513,144.527 283.5,148.5C 281.91,148.372 280.577,147.705 279.5,146.5C 277.497,141.487 275.497,136.487 273.5,131.5 Z"/></g>
<g><path style="opacity:1" fill="#190f40" d="M 117.5,143.5 C 116.833,145.167 116.167,146.833 115.5,148.5C 115.167,148.5 114.833,148.5 114.5,148.5C 114.241,146.011 115.241,144.344 117.5,143.5 Z"/></g>
<g><path style="opacity:1" fill="#100f37" d="M 158.5,143.5 C 158.833,143.5 159.167,143.5 159.5,143.5C 159.628,145.655 159.128,147.655 158,149.5C 156.245,150.67 155.245,152.337 155,154.5C 154.329,155.252 153.496,155.586 152.5,155.5C 153.959,151.248 155.959,147.248 158.5,143.5 Z"/></g>
<g><path style="opacity:1" fill="#0d143c" d="M 203.5,150.5 C 200.833,149.167 198.167,149.167 195.5,150.5C 197.041,147.817 199.374,146.984 202.5,148C 203.252,148.671 203.586,149.504 203.5,150.5 Z"/></g>
<g><path style="opacity:1" fill="#0a1840" d="M 239.5,143.5 C 240.167,143.833 240.833,144.167 241.5,144.5C 241.833,145.167 242.167,145.833 242.5,146.5C 243.11,147.391 243.443,148.391 243.5,149.5C 242.167,149.5 240.833,149.5 239.5,149.5C 239.5,147.5 239.5,145.5 239.5,143.5 Z"/></g>
<g><path style="opacity:1" fill="#141b4c" d="M 203.5,150.5 C 204.583,150.539 205.583,150.873 206.5,151.5C 208.656,153.629 210.323,155.962 211.5,158.5C 211.167,158.5 210.833,158.5 210.5,158.5C 209.167,156.5 207.5,154.833 205.5,153.5C 204.833,152.5 204.167,151.5 203.5,150.5 Z"/></g>
<g><path style="opacity:1" fill="#22406f" d="M 283.5,148.5 C 284.906,148.973 285.573,149.973 285.5,151.5C 284.833,151.167 284.167,150.833 283.5,150.5C 283.5,149.833 283.5,149.167 283.5,148.5 Z"/></g>
<g><path style="opacity:1" fill="#100a33" d="M 114.5,148.5 C 113.021,152.28 111.354,155.947 109.5,159.5C 108.5,160.833 107.5,162.167 106.5,163.5C 105.344,156.353 108.011,151.353 114.5,148.5 Z"/></g>
<g><path style="opacity:1" fill="#8760b2" d="M 158.5,143.5 C 155.959,147.248 153.959,151.248 152.5,155.5C 149.034,159.074 146.034,163.074 143.5,167.5C 144.851,162.788 146.518,158.122 148.5,153.5C 149.622,152.37 150.956,151.703 152.5,151.5C 153.322,149.611 154.155,147.611 155,145.5C 155.816,144.177 156.983,143.511 158.5,143.5 Z"/></g>
<g><path style="opacity:1" fill="#4e83ce" d="M 268.5,123.5 C 269.272,124.694 270.272,125.694 271.5,126.5C 271.5,127.167 271.833,127.5 272.5,127.5C 272.833,128.833 273.167,130.167 273.5,131.5C 275.497,136.487 277.497,141.487 279.5,146.5C 280.577,147.705 281.91,148.372 283.5,148.5C 283.5,149.167 283.5,149.833 283.5,150.5C 283.785,152.288 283.452,153.955 282.5,155.5C 278.846,156.9 278.512,158.9 281.5,161.5C 279.324,165.851 277.158,170.184 275,174.5C 274.333,175.833 273.667,175.833 273,174.5C 272.305,180.012 270.972,185.346 269,190.5C 268.581,189.328 267.915,188.328 267,187.5C 266.601,187.728 266.435,188.062 266.5,188.5C 265.326,187.486 264.66,186.153 264.5,184.5C 261.655,177.483 259.655,170.15 258.5,162.5C 259.083,160.998 259.916,159.665 261,158.5C 262.617,161.784 264.95,164.451 268,166.5C 268.862,168.087 269.529,169.754 270,171.5C 271.023,170.4 271.523,169.067 271.5,167.5C 271.008,164.704 270.008,162.871 268.5,162C 270.836,158.171 272.503,154.004 273.5,149.5C 273.234,147.34 272.234,145.674 270.5,144.5C 271,144.167 271.5,143.833 272,143.5C 273.168,144.509 274.335,145.509 275.5,146.5C 276.72,146.113 277.387,145.28 277.5,144C 273.602,137.44 270.602,130.606 268.5,123.5 Z"/></g>
<g><path style="opacity:1" fill="#001437" d="M 285.5,151.5 C 286.473,152.791 287.473,152.791 288.5,151.5C 289.478,151.977 290.311,152.643 291,153.5C 292.47,157.378 293.303,161.378 293.5,165.5C 293.167,165.5 292.833,165.5 292.5,165.5C 292.245,163.033 291.245,161.033 289.5,159.5C 289.34,157.847 288.674,156.514 287.5,155.5C 286.326,154.486 285.66,153.153 285.5,151.5 Z"/></g>
<g><path style="opacity:1" fill="#0b113c" d="M 191.5,153.5 C 189.518,156.81 187.185,159.81 184.5,162.5C 185.022,159.747 185.856,157.08 187,154.5C 188.356,153.62 189.856,153.286 191.5,153.5 Z"/></g>
<g><path style="opacity:1" fill="#7e4e98" d="M 114.5,148.5 C 114.833,148.5 115.167,148.5 115.5,148.5C 115.5,149.167 115.5,149.833 115.5,150.5C 114.229,154.058 112.229,157.058 109.5,159.5C 111.354,155.947 113.021,152.28 114.5,148.5 Z"/></g>
<g><path style="opacity:1" fill="#7372cb" d="M 200.5,152.5 C 202.216,152.629 203.883,152.962 205.5,153.5C 207.5,154.833 209.167,156.5 210.5,158.5C 211.438,162.066 212.771,165.4 214.5,168.5C 213.626,166.31 211.959,165.31 209.5,165.5C 208.36,169.155 206.193,172.155 203,174.5C 200.539,179.388 198.372,184.388 196.5,189.5C 192.241,190.941 190.408,193.941 191,198.5C 186.097,203.639 182.764,209.639 181,216.5C 179.117,218.409 177.617,220.575 176.5,223C 170.883,224.029 170.55,224.862 175.5,225.5C 175.5,226.833 175.5,228.167 175.5,229.5C 170.167,229.5 164.833,229.5 159.5,229.5C 159.649,230.552 159.483,231.552 159,232.5C 157.648,230.406 157.148,228.073 157.5,225.5C 160.978,225.816 164.312,225.316 167.5,224C 169.141,219.676 171.641,215.842 175,212.5C 175.494,210.866 175.66,209.199 175.5,207.5C 176.822,207.67 177.989,207.337 179,206.5C 181.788,202.252 183.455,197.586 184,192.5C 189.927,188.389 192.427,182.723 191.5,175.5C 193.467,175.739 195.301,175.406 197,174.5C 199.145,169.39 201.645,164.557 204.5,160C 203.366,158.984 203.699,158.317 205.5,158C 203.875,157.147 203.542,156.147 204.5,155C 202.934,154.392 201.6,153.558 200.5,152.5 Z"/></g>
<g><path style="opacity:1" fill="#a65dc2" d="M 159.5,106.5 C 158.833,106.5 158.167,106.5 157.5,106.5C 155.989,107.958 154.989,109.791 154.5,112C 153.552,112.483 152.552,112.649 151.5,112.5C 149.361,121.773 144.861,129.773 138,136.5C 138.466,140.699 136.633,143.199 132.5,144C 131.816,145.693 130.816,147.193 129.5,148.5C 129.423,153.336 127.59,157.336 124,160.5C 122.131,165.107 120.465,169.773 119,174.5C 118,175.167 117,175.833 116,176.5C 114.404,179.368 112.571,182.035 110.5,184.5C 109.824,183.398 109.158,182.398 108.5,181.5C 108.704,178.482 109.037,175.482 109.5,172.5C 107.089,172.137 105.589,173.137 105,175.5C 104.833,174.833 104.667,174.167 104.5,173.5C 106.429,168.916 108.762,164.583 111.5,160.5C 112.251,161.376 112.751,162.376 113,163.5C 114,160.833 115,160.833 116,163.5C 116.692,162.975 117.192,162.308 117.5,161.5C 115.688,158.101 115.021,154.434 115.5,150.5C 115.5,149.833 115.5,149.167 115.5,148.5C 119.077,145.692 121.41,142.026 122.5,137.5C 125.741,135.017 127.408,131.684 127.5,127.5C 128.906,127.027 129.573,126.027 129.5,124.5C 129.932,123.29 130.599,122.29 131.5,121.5C 133.797,119.706 135.963,117.706 138,115.5C 140.512,111.793 142.345,107.793 143.5,103.5C 144.721,102.972 145.887,102.305 147,101.5C 149.86,97.8246 152.027,93.8246 153.5,89.5C 154.11,88.609 154.443,87.609 154.5,86.5C 157.046,84.4364 159.379,82.1031 161.5,79.5C 164.791,76.8755 167.791,73.8755 170.5,70.5C 172.217,71.6685 172.884,73.3352 172.5,75.5C 171.167,75.5 169.833,75.5 168.5,75.5C 168.196,78.5219 167.696,81.5219 167,84.5C 162.512,91.1451 160.012,98.4785 159.5,106.5 Z"/></g>
<g><path style="opacity:1" fill="#736ab5" d="M 203.5,150.5 C 204.167,151.5 204.833,152.5 205.5,153.5C 203.883,152.962 202.216,152.629 200.5,152.5C 194.413,153.115 191.247,156.449 191,162.5C 189.266,163.249 187.433,163.749 185.5,164C 185.019,166.978 183.353,168.811 180.5,169.5C 182.074,167.357 183.408,165.024 184.5,162.5C 187.185,159.81 189.518,156.81 191.5,153.5C 193.23,152.974 194.564,151.974 195.5,150.5C 198.167,149.167 200.833,149.167 203.5,150.5 Z"/></g>
<g><path style="opacity:1" fill="#04173a" d="M 246.5,154.5 C 250.526,160.55 254.192,166.883 257.5,173.5C 255.075,172.576 253.075,171.076 251.5,169C 249.132,164.394 247.465,159.561 246.5,154.5 Z"/></g>
<g><path style="opacity:1" fill="#33598a" d="M 289.5,159.5 C 291.245,161.033 292.245,163.033 292.5,165.5C 290.755,163.967 289.755,161.967 289.5,159.5 Z"/></g>
<g><path style="opacity:1" fill="#121644" d="M 184.5,162.5 C 183.408,165.024 182.074,167.357 180.5,169.5C 178.833,171.5 177.167,173.5 175.5,175.5C 175.238,174.022 175.571,172.689 176.5,171.5C 178.498,167.839 181.165,164.839 184.5,162.5 Z"/></g>
<g><path style="opacity:1" fill="#5f67ad" d="M 210.5,158.5 C 210.833,158.5 211.167,158.5 211.5,158.5C 215.618,163.936 219.284,169.602 222.5,175.5C 221.609,174.89 220.609,174.557 219.5,174.5C 218.615,171.94 216.949,169.94 214.5,168.5C 212.771,165.4 211.438,162.066 210.5,158.5 Z"/></g>
<g><path style="opacity:1" fill="#6e74cb" d="M 214.5,168.5 C 216.949,169.94 218.615,171.94 219.5,174.5C 217.018,176.847 217.018,179.347 219.5,182C 218.065,181.689 216.732,181.855 215.5,182.5C 211.274,186.36 206.941,190.026 202.5,193.5C 200.628,198.612 198.461,203.612 196,208.5C 194.333,209.5 193,210.833 192,212.5C 191.501,216.152 191.335,219.818 191.5,223.5C 189.143,223.337 186.81,223.503 184.5,224C 183.24,225.814 183.24,227.647 184.5,229.5C 186.523,227.827 188.856,227.16 191.5,227.5C 191.216,229.877 191.216,232.044 191.5,234C 189.621,234.063 187.787,233.563 186,232.5C 180.139,234.555 174.306,236.222 168.5,237.5C 167.5,237.5 166.5,237.5 165.5,237.5C 165.167,237.5 164.833,237.5 164.5,237.5C 161.596,236.715 158.93,235.381 156.5,233.5C 155.034,228.603 155.367,223.937 157.5,219.5C 157.5,221.5 157.5,223.5 157.5,225.5C 157.148,228.073 157.648,230.406 159,232.5C 159.483,231.552 159.649,230.552 159.5,229.5C 164.833,229.5 170.167,229.5 175.5,229.5C 175.5,228.167 175.5,226.833 175.5,225.5C 170.55,224.862 170.883,224.029 176.5,223C 177.617,220.575 179.117,218.409 181,216.5C 182.764,209.639 186.097,203.639 191,198.5C 190.408,193.941 192.241,190.941 196.5,189.5C 198.372,184.388 200.539,179.388 203,174.5C 206.193,172.155 208.36,169.155 209.5,165.5C 211.959,165.31 213.626,166.31 214.5,168.5 Z"/></g>
<g><path style="opacity:1" fill="#3e73ab" d="M 287.5,155.5 C 288.674,156.514 289.34,157.847 289.5,159.5C 289.755,161.967 290.755,163.967 292.5,165.5C 292.833,165.5 293.167,165.5 293.5,165.5C 295.848,170.246 298.181,174.912 300.5,179.5C 301.363,181.421 302.029,183.421 302.5,185.5C 299.022,181.826 296.522,177.493 295,172.5C 293.301,170.304 291.467,168.304 289.5,166.5C 288.674,162.864 288.008,159.197 287.5,155.5 Z"/></g>
<g><path style="opacity:1" fill="#191039" d="M 106.5,163.5 C 103.377,171.078 99.7108,178.412 95.5,185.5C 95.8992,180.139 97.3992,175.139 100,170.5C 102.106,168.623 103.439,166.29 104,163.5C 104.77,164.598 105.603,164.598 106.5,163.5 Z"/></g>
<g><path style="opacity:1" fill="#4487d2" d="M 283.5,150.5 C 284.167,150.833 284.833,151.167 285.5,151.5C 285.66,153.153 286.326,154.486 287.5,155.5C 288.008,159.197 288.674,162.864 289.5,166.5C 287.918,172.071 286.585,177.738 285.5,183.5C 283.354,186.499 281.354,189.666 279.5,193C 281.874,195.47 281.874,197.803 279.5,200C 280.976,203.312 281.81,206.812 282,210.5C 285.528,212.595 286.362,215.595 284.5,219.5C 283.817,219.863 283.15,220.196 282.5,220.5C 281.701,217.57 281.368,214.57 281.5,211.5C 280.178,211.67 279.011,211.337 278,210.5C 276.48,207.618 275.147,204.618 274,201.5C 273.329,200.748 272.496,200.414 271.5,200.5C 269.444,196.667 267.778,192.667 266.5,188.5C 266.435,188.062 266.601,187.728 267,187.5C 267.915,188.328 268.581,189.328 269,190.5C 270.972,185.346 272.305,180.012 273,174.5C 273.667,175.833 274.333,175.833 275,174.5C 277.158,170.184 279.324,165.851 281.5,161.5C 278.512,158.9 278.846,156.9 282.5,155.5C 283.452,153.955 283.785,152.288 283.5,150.5 Z"/></g>
<g><path style="opacity:1" fill="#7a70c9" d="M 200.5,152.5 C 201.6,153.558 202.934,154.392 204.5,155C 203.542,156.147 203.875,157.147 205.5,158C 203.699,158.317 203.366,158.984 204.5,160C 201.645,164.557 199.145,169.39 197,174.5C 195.301,175.406 193.467,175.739 191.5,175.5C 192.427,182.723 189.927,188.389 184,192.5C 183.455,197.586 181.788,202.252 179,206.5C 177.989,207.337 176.822,207.67 175.5,207.5C 175.66,209.199 175.494,210.866 175,212.5C 171.641,215.842 169.141,219.676 167.5,224C 164.312,225.316 160.978,225.816 157.5,225.5C 157.5,223.5 157.5,221.5 157.5,219.5C 159.017,216.413 159.684,213.079 159.5,209.5C 159.767,207.035 160.434,204.701 161.5,202.5C 161.5,202.167 161.5,201.833 161.5,201.5C 161.833,201.5 162.167,201.5 162.5,201.5C 163.117,201.611 163.617,201.944 164,202.5C 166.372,197.588 168.872,192.755 171.5,188C 170.748,187.329 170.414,186.496 170.5,185.5C 172.578,184.257 174.412,182.59 176,180.5C 176.49,179.207 176.657,177.873 176.5,176.5C 177.5,176.5 178.5,176.5 179.5,176.5C 179.674,174.139 180.007,171.806 180.5,169.5C 183.353,168.811 185.019,166.978 185.5,164C 187.433,163.749 189.266,163.249 191,162.5C 191.247,156.449 194.413,153.115 200.5,152.5 Z"/></g>
<g><path style="opacity:1" fill="#6b61ac" d="M 180.5,169.5 C 180.007,171.806 179.674,174.139 179.5,176.5C 178.5,176.5 177.5,176.5 176.5,176.5C 176.657,177.873 176.49,179.207 176,180.5C 174.412,182.59 172.578,184.257 170.5,185.5C 172.167,182.167 173.833,178.833 175.5,175.5C 177.167,173.5 178.833,171.5 180.5,169.5 Z"/></g>
<g><path style="opacity:1" fill="#a25ebd" d="M 115.5,150.5 C 115.021,154.434 115.688,158.101 117.5,161.5C 117.192,162.308 116.692,162.975 116,163.5C 115,160.833 114,160.833 113,163.5C 112.751,162.376 112.251,161.376 111.5,160.5C 108.762,164.583 106.429,168.916 104.5,173.5C 104.667,174.167 104.833,174.833 105,175.5C 105.589,173.137 107.089,172.137 109.5,172.5C 109.037,175.482 108.704,178.482 108.5,181.5C 107.933,183.698 107.933,186.031 108.5,188.5C 107.85,188.196 107.183,187.863 106.5,187.5C 105.96,184.214 104.794,181.214 103,178.5C 100.939,182.63 99.4395,186.963 98.5,191.5C 97.2519,192.04 96.0852,192.707 95,193.5C 90.5004,200.51 86.667,207.843 83.5,215.5C 83.5,214.167 83.5,212.833 83.5,211.5C 84.9418,210.18 85.6085,208.514 85.5,206.5C 86.9348,205.087 87.9348,203.42 88.5,201.5C 90.8036,198.342 92.9703,195.009 95,191.5C 95.49,190.207 95.6567,188.873 95.5,187.5C 95.5,186.833 95.5,186.167 95.5,185.5C 99.7108,178.412 103.377,171.078 106.5,163.5C 107.5,162.167 108.5,160.833 109.5,159.5C 112.229,157.058 114.229,154.058 115.5,150.5 Z"/></g>
<g><path style="opacity:1" fill="#8364b0" d="M 143.5,167.5 C 140.074,175.35 136.407,183.017 132.5,190.5C 130.435,193.925 128.769,197.592 127.5,201.5C 125.9,203.703 124.567,206.036 123.5,208.5C 126.523,198.443 130.689,188.776 136,179.5C 137,176.5 138,173.5 139,170.5C 140.129,168.859 141.629,167.859 143.5,167.5 Z"/></g>
<g><path style="opacity:1" fill="#18143e" d="M 152.5,155.5 C 151.567,160.862 149.067,165.195 145,168.5C 145.155,170.811 145.155,173.144 145,175.5C 143.989,174.663 142.822,174.33 141.5,174.5C 141.66,176.199 141.494,177.866 141,179.5C 137.645,181.848 135.978,185.182 136,189.5C 134.989,190.337 133.822,190.67 132.5,190.5C 136.407,183.017 140.074,175.35 143.5,167.5C 146.034,163.074 149.034,159.074 152.5,155.5 Z"/></g>
<g><path style="opacity:1" fill="#0a0e37" d="M 175.5,175.5 C 173.833,178.833 172.167,182.167 170.5,185.5C 169.5,186.833 168.5,188.167 167.5,189.5C 167.847,185.126 169.18,181.126 171.5,177.5C 172.117,177.611 172.617,177.944 173,178.5C 173.236,176.881 174.069,175.881 175.5,175.5 Z"/></g>
<g><path style="opacity:1" fill="#9963c5" d="M 157.5,106.5 C 158.167,106.5 158.833,106.5 159.5,106.5C 160.065,108.42 161.065,110.087 162.5,111.5C 162.334,116.511 162.501,121.511 163,126.5C 163.925,127.047 164.758,127.713 165.5,128.5C 164.27,131.509 162.603,134.176 160.5,136.5C 157.236,136.339 154.07,136.339 151,136.5C 149.667,138.5 148.333,140.5 147,142.5C 145.415,147.352 146.915,149.019 151.5,147.5C 152.429,148.689 152.762,150.022 152.5,151.5C 150.956,151.703 149.622,152.37 148.5,153.5C 146.518,158.122 144.851,162.788 143.5,167.5C 141.629,167.859 140.129,168.859 139,170.5C 138,173.5 137,176.5 136,179.5C 130.689,188.776 126.523,198.443 123.5,208.5C 123.443,209.609 123.11,210.609 122.5,211.5C 120.983,211.511 119.816,212.177 119,213.5C 117.851,216.393 117.351,219.393 117.5,222.5C 115.089,222.863 113.589,221.863 113,219.5C 110.863,221.306 111.03,222.64 113.5,223.5C 113.301,225.96 112.635,228.293 111.5,230.5C 110.914,230.291 110.414,229.957 110,229.5C 107.33,231.979 105.83,234.979 105.5,238.5C 102.951,238.387 100.618,239.054 98.5,240.5C 96.4368,244.599 95.1035,248.932 94.5,253.5C 93.5224,253.977 92.6891,254.643 92,255.5C 91.6667,255.167 91.3333,254.833 91,254.5C 89,259.833 87,265.167 85,270.5C 82.059,272.261 80.3923,274.928 80,278.5C 78.3364,282.13 78.1698,285.797 79.5,289.5C 76.6703,289.306 74.0037,288.639 71.5,287.5C 71.3874,290.049 72.0541,292.382 73.5,294.5C 69.5443,296.042 67.711,294.709 68,290.5C 68.8333,289.667 69.6667,288.833 70.5,288C 69.8875,285.853 69.2208,283.686 68.5,281.5C 67.7022,283.078 67.2022,284.744 67,286.5C 64.6876,281.846 63.8543,276.846 64.5,271.5C 64.5,270.833 64.5,270.167 64.5,269.5C 65.1667,269.167 65.8333,268.833 66.5,268.5C 66.1052,271.523 67.1052,272.523 69.5,271.5C 70.6301,268.021 70.6301,264.521 69.5,261C 69.4934,259.188 70.16,257.688 71.5,256.5C 73.0922,258.684 74.4255,261.018 75.5,263.5C 76.2715,261.138 77.1048,258.804 78,256.5C 79.6736,254.991 81.3403,254.324 83,254.5C 87.2736,247.287 90.4402,239.62 92.5,231.5C 94.5,229.5 96.5,227.5 98.5,225.5C 100.422,219.65 102.922,213.983 106,208.5C 107,207.833 108,207.167 109,206.5C 110.699,207.406 112.533,207.739 114.5,207.5C 114.172,202.125 114.505,196.792 115.5,191.5C 116.931,191.023 118.264,190.357 119.5,189.5C 122.081,185.014 124.081,180.347 125.5,175.5C 127.144,175.714 128.644,175.38 130,174.5C 130.171,169.467 130.671,164.467 131.5,159.5C 132.931,159.023 134.264,158.357 135.5,157.5C 137.417,153.331 139.583,149.331 142,145.5C 142.419,146.672 143.085,147.672 144,148.5C 145.908,145.928 145.741,143.428 143.5,141C 143.735,140.127 144.069,139.293 144.5,138.5C 155.403,130.672 159.736,120.005 157.5,106.5 Z"/></g>
<g><path style="opacity:1" fill="#102553" d="M 258.5,175.5 C 260.245,177.033 261.245,179.033 261.5,181.5C 259.755,179.967 258.755,177.967 258.5,175.5 Z"/></g>
<g><path style="opacity:1" fill="#00163c" d="M 300.5,179.5 C 301.675,179.281 302.675,179.614 303.5,180.5C 304.414,182.664 305.581,184.664 307,186.5C 308.289,189.351 308.789,192.351 308.5,195.5C 307.167,193.167 305.833,190.833 304.5,188.5C 304.573,186.973 303.906,185.973 302.5,185.5C 302.029,183.421 301.363,181.421 300.5,179.5 Z"/></g>
<g><path style="opacity:1" fill="#010c1f" d="M 171.5,177.5 C 169.18,181.126 167.847,185.126 167.5,189.5C 166.5,190.167 165.5,190.833 164.5,191.5C 163.005,191.585 162.005,190.919 161.5,189.5C 162.475,184.235 164.475,179.569 167.5,175.5C 169.483,175.157 170.817,175.824 171.5,177.5 Z"/></g>
<g><path style="opacity:1" fill="#6579cc" d="M 219.5,174.5 C 220.609,174.557 221.609,174.89 222.5,175.5C 224.362,177.891 225.696,180.558 226.5,183.5C 226.5,184.833 226.5,186.167 226.5,187.5C 224.284,187.275 222.617,188.108 221.5,190C 222.044,190.717 222.711,191.217 223.5,191.5C 224.693,191.97 225.36,192.97 225.5,194.5C 223.286,196.99 222.119,199.99 222,203.5C 218.932,206.622 216.598,210.289 215,214.5C 213.989,215.337 212.822,215.67 211.5,215.5C 211.664,212.813 211.497,210.146 211,207.5C 208.646,212.614 206.146,217.614 203.5,222.5C 205.346,222.222 206.68,222.889 207.5,224.5C 206.626,226.747 206.292,229.08 206.5,231.5C 203.428,231.183 200.428,231.516 197.5,232.5C 195.914,234.173 195.247,236.173 195.5,238.5C 188.993,238.256 182.327,238.256 175.5,238.5C 173.05,238.702 170.717,238.369 168.5,237.5C 174.306,236.222 180.139,234.555 186,232.5C 187.787,233.563 189.621,234.063 191.5,234C 191.216,232.044 191.216,229.877 191.5,227.5C 188.856,227.16 186.523,227.827 184.5,229.5C 183.24,227.647 183.24,225.814 184.5,224C 186.81,223.503 189.143,223.337 191.5,223.5C 191.335,219.818 191.501,216.152 192,212.5C 193,210.833 194.333,209.5 196,208.5C 198.461,203.612 200.628,198.612 202.5,193.5C 206.941,190.026 211.274,186.36 215.5,182.5C 216.732,181.855 218.065,181.689 219.5,182C 217.018,179.347 217.018,176.847 219.5,174.5 Z"/></g>
<g><path style="opacity:1" fill="#398cd2" d="M 289.5,166.5 C 291.467,168.304 293.301,170.304 295,172.5C 296.522,177.493 299.022,181.826 302.5,185.5C 303.906,185.973 304.573,186.973 304.5,188.5C 304.674,190.861 305.007,193.194 305.5,195.5C 305.813,198.247 305.48,200.914 304.5,203.5C 303.148,204.518 302.148,205.851 301.5,207.5C 300.284,208.002 299.117,208.335 298,208.5C 296.333,213.167 294.667,217.833 293,222.5C 291.676,223.88 290.343,224.214 289,223.5C 288.506,225.134 288.34,226.801 288.5,228.5C 287.209,228.263 286.209,228.596 285.5,229.5C 284.833,229.167 284.167,228.833 283.5,228.5C 283.425,225.794 283.092,223.127 282.5,220.5C 283.15,220.196 283.817,219.863 284.5,219.5C 286.362,215.595 285.528,212.595 282,210.5C 281.81,206.812 280.976,203.312 279.5,200C 281.874,197.803 281.874,195.47 279.5,193C 281.354,189.666 283.354,186.499 285.5,183.5C 286.585,177.738 287.918,172.071 289.5,166.5 Z"/></g>
<g><path style="opacity:1" fill="#150a36" d="M 95.5,185.5 C 95.5,186.167 95.5,186.833 95.5,187.5C 94.5416,187.953 93.7083,188.619 93,189.5C 92.4338,191.723 91.6005,193.723 90.5,195.5C 89.7653,190.848 91.432,187.514 95.5,185.5 Z"/></g>
<g><path style="opacity:1" fill="#784d93" d="M 95.5,187.5 C 95.6567,188.873 95.49,190.207 95,191.5C 92.9703,195.009 90.8036,198.342 88.5,201.5C 88.8333,200.167 89.1667,198.833 89.5,197.5C 89.8333,196.833 90.1667,196.167 90.5,195.5C 91.6005,193.723 92.4338,191.723 93,189.5C 93.7083,188.619 94.5416,187.953 95.5,187.5 Z"/></g>
<g><path style="opacity:1" fill="#5a71bc" d="M 226.5,183.5 C 230.524,188.21 233.524,193.543 235.5,199.5C 233.484,198.544 231.651,197.21 230,195.5C 229.51,194.207 229.343,192.873 229.5,191.5C 227.516,191.617 225.85,190.95 224.5,189.5C 223.702,189.957 223.369,190.624 223.5,191.5C 222.711,191.217 222.044,190.717 221.5,190C 222.617,188.108 224.284,187.275 226.5,187.5C 226.5,186.167 226.5,184.833 226.5,183.5 Z"/></g>
<g><path style="opacity:1" fill="#261a48" d="M 132.5,190.5 C 131.996,194.5 130.663,198.166 128.5,201.5C 128.167,201.5 127.833,201.5 127.5,201.5C 128.769,197.592 130.435,193.925 132.5,190.5 Z"/></g>
<g><path style="opacity:1" fill="#0a0f38" d="M 167.5,189.5 C 165.833,193.5 164.167,197.5 162.5,201.5C 162.167,201.5 161.833,201.5 161.5,201.5C 162.101,198.032 163.101,194.699 164.5,191.5C 165.5,190.833 166.5,190.167 167.5,189.5 Z"/></g>
<g><path style="opacity:1" fill="#6b64a9" d="M 170.5,185.5 C 170.414,186.496 170.748,187.329 171.5,188C 168.872,192.755 166.372,197.588 164,202.5C 163.617,201.944 163.117,201.611 162.5,201.5C 164.167,197.5 165.833,193.5 167.5,189.5C 168.5,188.167 169.5,186.833 170.5,185.5 Z"/></g>
<g><path style="opacity:1" fill="#1b143e" d="M 89.5,197.5 C 89.1667,198.833 88.8333,200.167 88.5,201.5C 87.9348,203.42 86.9348,205.087 85.5,206.5C 86.6225,204.482 86.6225,202.482 85.5,200.5C 86.2826,198.712 87.6159,197.712 89.5,197.5 Z"/></g>
<g><path style="opacity:1" fill="#a85cc4" d="M 108.5,188.5 C 105.717,194.742 102.884,201.075 100,207.5C 99.2588,206.359 98.4255,206.359 97.5,207.5C 96.9955,204.658 95.3289,203.325 92.5,203.5C 92.8333,206.167 93.1667,208.833 93.5,211.5C 91.8333,211.5 90.1667,211.5 88.5,211.5C 88.3359,214.187 88.5026,216.854 89,219.5C 90.0113,220.337 91.1779,220.67 92.5,220.5C 92.5,221.5 92.5,222.5 92.5,223.5C 89.8127,223.664 87.146,223.497 84.5,223C 83.6634,221.989 83.33,220.822 83.5,219.5C 83.5,218.167 83.5,216.833 83.5,215.5C 86.667,207.843 90.5004,200.51 95,193.5C 96.0852,192.707 97.2519,192.04 98.5,191.5C 99.4395,186.963 100.939,182.63 103,178.5C 104.794,181.214 105.96,184.214 106.5,187.5C 107.183,187.863 107.85,188.196 108.5,188.5 Z"/></g>
<g><path style="opacity:1" fill="#597dce" d="M 235.5,199.5 C 235.729,203.418 236.729,207.085 238.5,210.5C 238.785,212.288 238.452,213.955 237.5,215.5C 235.167,217.167 233.167,219.167 231.5,221.5C 228.36,222.091 225.36,222.924 222.5,224C 227.992,225.286 233.659,225.953 239.5,226C 240.815,227.395 240.481,228.395 238.5,229C 233.467,229.171 228.467,229.671 223.5,230.5C 224.641,231.425 224.641,232.259 223.5,233C 226.226,233.182 228.893,233.682 231.5,234.5C 227.204,235.328 222.871,235.828 218.5,236C 217.244,236.417 216.577,237.25 216.5,238.5C 209.5,238.5 202.5,238.5 195.5,238.5C 195.247,236.173 195.914,234.173 197.5,232.5C 200.428,231.516 203.428,231.183 206.5,231.5C 206.292,229.08 206.626,226.747 207.5,224.5C 206.68,222.889 205.346,222.222 203.5,222.5C 206.146,217.614 208.646,212.614 211,207.5C 211.497,210.146 211.664,212.813 211.5,215.5C 212.822,215.67 213.989,215.337 215,214.5C 216.598,210.289 218.932,206.622 222,203.5C 222.119,199.99 223.286,196.99 225.5,194.5C 225.36,192.97 224.693,191.97 223.5,191.5C 223.369,190.624 223.702,189.957 224.5,189.5C 225.85,190.95 227.516,191.617 229.5,191.5C 229.343,192.873 229.51,194.207 230,195.5C 231.651,197.21 233.484,198.544 235.5,199.5 Z"/></g>
<g><path style="opacity:1" fill="#2f86bb" d="M 304.5,188.5 C 305.833,190.833 307.167,193.167 308.5,195.5C 310.801,200.427 312.801,205.427 314.5,210.5C 313.518,211.141 312.518,211.807 311.5,212.5C 310.555,209.212 309.888,205.879 309.5,202.5C 308.5,202.5 307.5,202.5 306.5,202.5C 306.802,199.941 306.468,197.607 305.5,195.5C 305.007,193.194 304.674,190.861 304.5,188.5 Z"/></g>
<g><path style="opacity:1" fill="#080f35" d="M 161.5,202.5 C 160.434,204.701 159.767,207.035 159.5,209.5C 157.319,213.885 155.653,218.552 154.5,223.5C 153.539,225.265 153.205,227.265 153.5,229.5C 152.399,228.152 151.399,226.652 150.5,225C 153.168,219.847 155.002,214.347 156,208.5C 158.091,206.572 159.924,204.572 161.5,202.5 Z"/></g>
<g><path style="opacity:1" fill="#031a42" d="M 273.5,205.5 C 275.825,211.469 278.158,217.469 280.5,223.5C 278.781,220.63 276.947,217.63 275,214.5C 274.304,211.522 273.804,208.522 273.5,205.5 Z"/></g>
<g><path style="opacity:1" fill="#5c3b7b" d="M 83.5,211.5 C 83.5,212.833 83.5,214.167 83.5,215.5C 82.7281,216.694 81.7281,217.694 80.5,218.5C 80.9348,215.843 81.9348,213.509 83.5,211.5 Z"/></g>
<g><path style="opacity:1" fill="#4f82cc" d="M 238.5,210.5 C 240.378,215.679 241.711,221.179 242.5,227C 242.333,228.167 242.167,229.333 242,230.5C 240.341,232.179 238.841,233.845 237.5,235.5C 236.292,236.234 234.959,236.567 233.5,236.5C 227.582,235.989 221.915,236.656 216.5,238.5C 216.577,237.25 217.244,236.417 218.5,236C 222.871,235.828 227.204,235.328 231.5,234.5C 228.893,233.682 226.226,233.182 223.5,233C 224.641,232.259 224.641,231.425 223.5,230.5C 228.467,229.671 233.467,229.171 238.5,229C 240.481,228.395 240.815,227.395 239.5,226C 233.659,225.953 227.992,225.286 222.5,224C 225.36,222.924 228.36,222.091 231.5,221.5C 233.167,219.167 235.167,217.167 237.5,215.5C 238.452,213.955 238.785,212.288 238.5,210.5 Z"/></g>
<g><path style="opacity:1" fill="#0c092d" d="M 85.5,206.5 C 85.6085,208.514 84.9418,210.18 83.5,211.5C 81.9348,213.509 80.9348,215.843 80.5,218.5C 79.5592,220.05 78.8925,221.716 78.5,223.5C 77.2719,224.306 76.2719,225.306 75.5,226.5C 75.3367,224.143 75.5034,221.81 76,219.5C 77,218.833 78,218.167 79,217.5C 80.0681,214.129 81.2347,210.796 82.5,207.5C 83.325,206.614 84.325,206.281 85.5,206.5 Z"/></g>
<g><path style="opacity:1" fill="#3d81be" d="M 271.5,200.5 C 272.496,200.414 273.329,200.748 274,201.5C 275.147,204.618 276.48,207.618 278,210.5C 279.011,211.337 280.178,211.67 281.5,211.5C 281.368,214.57 281.701,217.57 282.5,220.5C 283.092,223.127 283.425,225.794 283.5,228.5C 282.687,226.739 281.687,225.072 280.5,223.5C 278.158,217.469 275.825,211.469 273.5,205.5C 273.107,203.716 272.441,202.05 271.5,200.5 Z"/></g>
<g><path style="opacity:1" fill="#2a92d6" d="M 305.5,195.5 C 306.468,197.607 306.802,199.941 306.5,202.5C 307.5,202.5 308.5,202.5 309.5,202.5C 309.888,205.879 310.555,209.212 311.5,212.5C 312.518,211.807 313.518,211.141 314.5,210.5C 314.433,212.401 314.767,214.234 315.5,216C 313.759,218.648 312.426,221.481 311.5,224.5C 310.417,224.539 309.417,224.873 308.5,225.5C 305.559,229.917 302.893,234.417 300.5,239C 298.866,239.494 297.199,239.66 295.5,239.5C 296.008,242.176 296.175,244.843 296,247.5C 295.667,246.833 295.333,246.167 295,245.5C 294.292,246.381 293.458,247.047 292.5,247.5C 289.838,241.652 287.504,235.652 285.5,229.5C 286.209,228.596 287.209,228.263 288.5,228.5C 288.34,226.801 288.506,225.134 289,223.5C 290.343,224.214 291.676,223.88 293,222.5C 294.667,217.833 296.333,213.167 298,208.5C 299.117,208.335 300.284,208.002 301.5,207.5C 302.148,205.851 303.148,204.518 304.5,203.5C 305.48,200.914 305.813,198.247 305.5,195.5 Z"/></g>
<g><path style="opacity:1" fill="#6f69aa" d="M 159.5,209.5 C 159.684,213.079 159.017,216.413 157.5,219.5C 155.367,223.937 155.034,228.603 156.5,233.5C 155.883,233.389 155.383,233.056 155,232.5C 154.502,229.518 154.335,226.518 154.5,223.5C 155.653,218.552 157.319,213.885 159.5,209.5 Z"/></g>
<g><path style="opacity:1" fill="#8562b3" d="M 122.5,211.5 C 118.555,220.701 115.222,230.034 112.5,239.5C 112.348,234.719 113.014,230.052 114.5,225.5C 114.457,224.584 114.124,223.917 113.5,223.5C 111.03,222.64 110.863,221.306 113,219.5C 113.589,221.863 115.089,222.863 117.5,222.5C 117.351,219.393 117.851,216.393 119,213.5C 119.816,212.177 120.983,211.511 122.5,211.5 Z"/></g>
<g><path style="opacity:1" fill="#08052e" d="M 67.5,223.5 C 68.5,223.5 69.5,223.5 70.5,223.5C 70.4348,225.696 69.7681,227.696 68.5,229.5C 66.4537,227.719 66.1204,225.719 67.5,223.5 Z"/></g>
<g><path style="opacity:1" fill="#2a8ac4" d="M 314.5,210.5 C 317.927,216.431 320.594,222.764 322.5,229.5C 321.85,229.196 321.183,228.863 320.5,228.5C 319.729,226.138 318.895,223.804 318,221.5C 317.517,222.448 317.351,223.448 317.5,224.5C 315.5,224.5 313.5,224.5 311.5,224.5C 312.426,221.481 313.759,218.648 315.5,216C 314.767,214.234 314.433,212.401 314.5,210.5 Z"/></g>
<g><path style="opacity:1" fill="#4f78b6" d="M 235.5,199.5 C 236.831,202.126 238.165,204.793 239.5,207.5C 241.784,213.683 243.451,220.016 244.5,226.5C 245.025,231.735 242.691,234.735 237.5,235.5C 238.841,233.845 240.341,232.179 242,230.5C 242.167,229.333 242.333,228.167 242.5,227C 241.711,221.179 240.378,215.679 238.5,210.5C 236.729,207.085 235.729,203.418 235.5,199.5 Z"/></g>
<g><path style="opacity:1" fill="#8e5aad" d="M 83.5,215.5 C 83.5,216.833 83.5,218.167 83.5,219.5C 82.5041,219.414 81.6708,219.748 81,220.5C 80.163,224.714 78.8296,228.714 77,232.5C 76.5034,234.81 76.3367,237.143 76.5,239.5C 75.5,239.5 74.5,239.5 73.5,239.5C 74.5579,233.923 76.2245,228.59 78.5,223.5C 78.8925,221.716 79.5592,220.05 80.5,218.5C 81.7281,217.694 82.7281,216.694 83.5,215.5 Z"/></g>
<g><path style="opacity:1" fill="#181140" d="M 127.5,201.5 C 127.833,201.5 128.167,201.5 128.5,201.5C 128.39,205 127.557,208.334 126,211.5C 119.831,220.172 116.331,229.839 115.5,240.5C 114.391,240.557 113.391,240.89 112.5,241.5C 112.5,240.833 112.5,240.167 112.5,239.5C 115.222,230.034 118.555,220.701 122.5,211.5C 123.11,210.609 123.443,209.609 123.5,208.5C 124.567,206.036 125.9,203.703 127.5,201.5 Z"/></g>
<g><path style="opacity:1" fill="#031841" d="M 239.5,207.5 C 240.675,207.281 241.675,207.614 242.5,208.5C 244.412,212.94 245.579,217.607 246,222.5C 246.833,223.333 247.667,224.167 248.5,225C 247.374,228.3 246.374,231.634 245.5,235C 241.547,236.148 237.547,236.982 233.5,237.5C 233.5,237.167 233.5,236.833 233.5,236.5C 234.959,236.567 236.292,236.234 237.5,235.5C 242.691,234.735 245.025,231.735 244.5,226.5C 243.451,220.016 241.784,213.683 239.5,207.5 Z"/></g>
<g><path style="opacity:1" fill="#2096d6" d="M 322.5,229.5 C 322.415,232.649 323.415,235.316 325.5,237.5C 325.5,238.167 325.5,238.833 325.5,239.5C 325.5,242.833 325.5,246.167 325.5,249.5C 324.312,250.684 323.145,250.684 322,249.5C 321.824,246.118 321.324,242.785 320.5,239.5C 320.167,239.667 319.833,239.833 319.5,240C 318.798,243.466 318.131,246.966 317.5,250.5C 313.734,257.031 310.234,263.698 307,270.5C 305.989,271.337 304.822,271.67 303.5,271.5C 303.723,279.547 303.223,287.547 302,295.5C 301.829,290.136 301.329,284.802 300.5,279.5C 298.912,282.464 297.412,285.464 296,288.5C 295.333,287.167 294.667,287.167 294,288.5C 293.667,290.5 293.333,292.5 293,294.5C 290.242,297.516 288.409,301.016 287.5,305C 290.817,305.498 294.15,305.665 297.5,305.5C 296.167,306.833 294.833,308.167 293.5,309.5C 293.167,309.5 292.833,309.5 292.5,309.5C 290.833,309.5 289.167,309.5 287.5,309.5C 287.5,308.5 287.5,307.5 287.5,306.5C 284.813,306.336 282.146,306.503 279.5,307C 278.707,308.085 278.04,309.252 277.5,310.5C 273.204,311.328 268.871,311.828 264.5,312C 262.825,312.985 261.158,313.819 259.5,314.5C 254.167,314.5 248.833,314.5 243.5,314.5C 250.143,313.88 256.81,312.714 263.5,311C 260.571,310.223 257.737,310.39 255,311.5C 250.329,309.98 245.495,309.146 240.5,309C 239.167,308 239.167,307 240.5,306C 251.215,306.147 261.549,305.314 271.5,303.5C 271.334,297.824 271.501,292.157 272,286.5C 273,287.833 274,287.833 275,286.5C 275.878,283.291 277.211,280.291 279,277.5C 279.743,275.559 279.576,273.726 278.5,272C 279.938,271.781 281.271,271.281 282.5,270.5C 281.667,270.167 280.833,269.833 280,269.5C 276.888,270.483 273.722,271.15 270.5,271.5C 274.4,269.859 278.4,268.192 282.5,266.5C 283.298,266.043 283.631,265.376 283.5,264.5C 284.5,263.833 285.5,263.167 286.5,262.5C 288.173,261.657 289.34,260.324 290,258.5C 290.333,255.5 290.667,252.5 291,249.5C 291.333,250.167 291.667,250.833 292,251.5C 292.49,250.207 292.657,248.873 292.5,247.5C 293.458,247.047 294.292,246.381 295,245.5C 295.333,246.167 295.667,246.833 296,247.5C 296.175,244.843 296.008,242.176 295.5,239.5C 297.199,239.66 298.866,239.494 300.5,239C 302.893,234.417 305.559,229.917 308.5,225.5C 309.417,224.873 310.417,224.539 311.5,224.5C 313.5,224.5 315.5,224.5 317.5,224.5C 317.351,223.448 317.517,222.448 318,221.5C 318.895,223.804 319.729,226.138 320.5,228.5C 321.183,228.863 321.85,229.196 322.5,229.5 Z"/></g>
<g><path style="opacity:1" fill="#221244" d="M 78.5,223.5 C 76.2245,228.59 74.5579,233.923 73.5,239.5C 72.8333,239.5 72.5,239.833 72.5,240.5C 72.1667,240.5 71.8333,240.5 71.5,240.5C 71.8277,235.477 73.161,230.81 75.5,226.5C 76.2719,225.306 77.2719,224.306 78.5,223.5 Z"/></g>
<g><path style="opacity:1" fill="#0f1742" d="M 154.5,223.5 C 154.335,226.518 154.502,229.518 155,232.5C 155.383,233.056 155.883,233.389 156.5,233.5C 158.93,235.381 161.596,236.715 164.5,237.5C 161.09,237.543 157.757,237.043 154.5,236C 153.577,233.959 153.244,231.792 153.5,229.5C 153.205,227.265 153.539,225.265 154.5,223.5 Z"/></g>
<g><path style="opacity:1" fill="#185f94" d="M 322.5,229.5 C 324.585,231.684 325.585,234.351 325.5,237.5C 323.415,235.316 322.415,232.649 322.5,229.5 Z"/></g>
<g><path style="opacity:1" fill="#556ead" d="M 233.5,236.5 C 233.5,236.833 233.5,237.167 233.5,237.5C 226.521,238.581 219.521,239.581 212.5,240.5C 203.5,240.5 194.5,240.5 185.5,240.5C 183.833,240.5 182.167,240.5 180.5,240.5C 178.833,239.833 177.167,239.167 175.5,238.5C 182.327,238.256 188.993,238.256 195.5,238.5C 202.5,238.5 209.5,238.5 216.5,238.5C 221.915,236.656 227.582,235.989 233.5,236.5 Z"/></g>
<g><path style="opacity:1" fill="#9064c2" d="M 113.5,223.5 C 114.124,223.917 114.457,224.584 114.5,225.5C 113.014,230.052 112.348,234.719 112.5,239.5C 111.833,239.5 111.167,239.5 110.5,239.5C 108.955,240.23 108.122,241.563 108,243.5C 106.844,247.418 106.344,251.418 106.5,255.5C 105.07,255.421 103.736,255.754 102.5,256.5C 101.095,260.306 98.9281,263.639 96,266.5C 96.0944,269.501 94.7611,271.501 92,272.5C 89.5544,277.057 87.3877,281.723 85.5,286.5C 86.3256,287.451 86.4922,288.451 86,289.5C 84.6667,291.5 83,293.167 81,294.5C 80.6667,293.5 80.3333,292.5 80,291.5C 79.042,293.624 77.8754,295.624 76.5,297.5C 76.8627,298.183 77.1961,298.85 77.5,299.5C 75.4418,298.067 73.1085,297.4 70.5,297.5C 70.1667,297.5 69.8333,297.5 69.5,297.5C 66.7301,294.945 64.7301,291.945 63.5,288.5C 62.196,282.734 62.196,277.067 63.5,271.5C 63.8333,271.5 64.1667,271.5 64.5,271.5C 63.8543,276.846 64.6876,281.846 67,286.5C 67.2022,284.744 67.7022,283.078 68.5,281.5C 69.2208,283.686 69.8875,285.853 70.5,288C 69.6667,288.833 68.8333,289.667 68,290.5C 67.711,294.709 69.5443,296.042 73.5,294.5C 72.0541,292.382 71.3874,290.049 71.5,287.5C 74.0037,288.639 76.6703,289.306 79.5,289.5C 78.1698,285.797 78.3364,282.13 80,278.5C 80.3923,274.928 82.059,272.261 85,270.5C 87,265.167 89,259.833 91,254.5C 91.3333,254.833 91.6667,255.167 92,255.5C 92.6891,254.643 93.5224,253.977 94.5,253.5C 95.1035,248.932 96.4368,244.599 98.5,240.5C 100.618,239.054 102.951,238.387 105.5,238.5C 105.83,234.979 107.33,231.979 110,229.5C 110.414,229.957 110.914,230.291 111.5,230.5C 112.635,228.293 113.301,225.96 113.5,223.5 Z"/></g>
<g><path style="opacity:1" fill="#07153b" d="M 165.5,237.5 C 166.5,237.5 167.5,237.5 168.5,237.5C 170.717,238.369 173.05,238.702 175.5,238.5C 177.167,239.167 178.833,239.833 180.5,240.5C 175.089,240.875 170.089,239.875 165.5,237.5 Z"/></g>
<g><path style="opacity:1" fill="#159ad9" d="M 325.5,249.5 C 326.614,250.885 327.614,252.385 328.5,254C 326.323,255.186 325.323,257.019 325.5,259.5C 324.275,260.152 323.608,261.319 323.5,263C 324.545,265.77 325.212,268.603 325.5,271.5C 324.178,271.67 323.011,271.337 322,270.5C 321.946,265.321 321.279,260.321 320,255.5C 319.497,260.19 318.83,264.857 318,269.5C 315.904,270.715 316.071,271.549 318.5,272C 314.429,276.315 312.095,281.481 311.5,287.5C 309.167,287.5 306.833,287.5 304.5,287.5C 305.691,292.001 305.691,296.501 304.5,301C 304.755,302.326 305.422,303.326 306.5,304C 303.722,305.392 300.722,305.892 297.5,305.5C 294.15,305.665 290.817,305.498 287.5,305C 288.409,301.016 290.242,297.516 293,294.5C 293.333,292.5 293.667,290.5 294,288.5C 294.667,287.167 295.333,287.167 296,288.5C 297.412,285.464 298.912,282.464 300.5,279.5C 301.329,284.802 301.829,290.136 302,295.5C 303.223,287.547 303.723,279.547 303.5,271.5C 304.822,271.67 305.989,271.337 307,270.5C 310.234,263.698 313.734,257.031 317.5,250.5C 318.131,246.966 318.798,243.466 319.5,240C 319.833,239.833 320.167,239.667 320.5,239.5C 321.324,242.785 321.824,246.118 322,249.5C 323.145,250.684 324.312,250.684 325.5,249.5 Z"/></g>
<g><path style="opacity:1" fill="#011037" d="M 185.5,240.5 C 194.5,240.5 203.5,240.5 212.5,240.5C 212.082,241.222 211.416,241.722 210.5,242C 202.5,242.667 194.5,242.667 186.5,242C 185.944,241.617 185.611,241.117 185.5,240.5 Z"/></g>
<g><path style="opacity:1" fill="#0c1036" d="M 115.5,240.5 C 116.675,240.281 117.675,240.614 118.5,241.5C 116.372,243.702 114.372,246.035 112.5,248.5C 111.27,251.524 111.27,254.524 112.5,257.5C 114.385,258.197 114.718,259.197 113.5,260.5C 116.679,261.589 119.345,263.423 121.5,266C 127.794,265.666 133.128,267.499 137.5,271.5C 137.5,271.833 137.5,272.167 137.5,272.5C 130.331,270.795 123.331,268.461 116.5,265.5C 113.444,263.737 111.611,261.07 111,257.5C 110.258,251.923 110.758,246.59 112.5,241.5C 113.391,240.89 114.391,240.557 115.5,240.5 Z"/></g>
<g><path style="opacity:1" fill="#3187c0" d="M 283.5,228.5 C 284.167,228.833 284.833,229.167 285.5,229.5C 287.504,235.652 289.838,241.652 292.5,247.5C 292.657,248.873 292.49,250.207 292,251.5C 291.667,250.833 291.333,250.167 291,249.5C 290.667,252.5 290.333,255.5 290,258.5C 289.34,260.324 288.173,261.657 286.5,262.5C 289.47,252.815 288.803,243.482 284.5,234.5C 284.167,232.5 283.833,230.5 283.5,228.5 Z"/></g>
<g><path style="opacity:1" fill="#1b0c3d" d="M 70.5,244.5 C 68.8244,249.928 67.1577,255.262 65.5,260.5C 65.8748,256.129 66.5415,251.796 67.5,247.5C 68.2876,246.23 69.2876,245.23 70.5,244.5 Z"/></g>
<g><path style="opacity:1" fill="#8569ba" d="M 110.5,239.5 C 111.167,239.5 111.833,239.5 112.5,239.5C 112.5,240.167 112.5,240.833 112.5,241.5C 110.758,246.59 110.258,251.923 111,257.5C 111.611,261.07 113.444,263.737 116.5,265.5C 116.782,266.778 117.449,267.778 118.5,268.5C 117.508,268.328 116.842,268.662 116.5,269.5C 114.615,265.441 111.948,264.107 108.5,265.5C 106.779,256.946 107.445,248.28 110.5,239.5 Z"/></g>
<g><path style="opacity:1" fill="#011f48" d="M 327.5,242.5 C 331.775,247.217 333.775,252.884 333.5,259.5C 331.532,253.935 329.532,248.268 327.5,242.5 Z"/></g>
<g><path style="opacity:1" fill="#001c41" d="M 284.5,234.5 C 288.803,243.482 289.47,252.815 286.5,262.5C 285.5,263.167 284.5,263.833 283.5,264.5C 282.391,264.557 281.391,264.89 280.5,265.5C 281.353,262.637 283.02,260.304 285.5,258.5C 285.833,256.5 286.167,254.5 286.5,252.5C 286.34,248.765 285.34,245.432 283.5,242.5C 284.095,239.86 284.428,237.193 284.5,234.5 Z"/></g>
<g><path style="opacity:1" fill="#8c68c6" d="M 110.5,239.5 C 107.445,248.28 106.779,256.946 108.5,265.5C 107.504,265.414 106.671,265.748 106,266.5C 103.789,273.145 100.455,279.145 96,284.5C 96.3615,289.947 94.1949,293.947 89.5,296.5C 88.6627,301.527 85.6627,303.527 80.5,302.5C 80.1667,302.5 79.8333,302.5 79.5,302.5C 79.2178,301.222 78.5511,300.222 77.5,299.5C 77.1961,298.85 76.8627,298.183 76.5,297.5C 77.8754,295.624 79.042,293.624 80,291.5C 80.3333,292.5 80.6667,293.5 81,294.5C 83,293.167 84.6667,291.5 86,289.5C 86.4922,288.451 86.3256,287.451 85.5,286.5C 87.3877,281.723 89.5544,277.057 92,272.5C 94.7611,271.501 96.0944,269.501 96,266.5C 98.9281,263.639 101.095,260.306 102.5,256.5C 103.736,255.754 105.07,255.421 106.5,255.5C 106.344,251.418 106.844,247.418 108,243.5C 108.122,241.563 108.955,240.23 110.5,239.5 Z"/></g>
<g><path style="opacity:1" fill="#050c2d" d="M 275.5,267.5 C 272.785,269.072 269.785,270.072 266.5,270.5C 265.331,268.726 264.331,266.892 263.5,265C 265.878,264.489 268.212,263.822 270.5,263C 271.09,261.491 271.756,259.991 272.5,258.5C 273.672,258.919 274.672,259.585 275.5,260.5C 274.762,262.94 273.429,264.94 271.5,266.5C 272.689,267.429 274.022,267.762 275.5,267.5 Z"/></g>
<g><path style="opacity:1" fill="#1690c1" d="M 325.5,239.5 C 326.906,239.973 327.573,240.973 327.5,242.5C 329.532,248.268 331.532,253.935 333.5,259.5C 333.5,260.5 333.5,261.5 333.5,262.5C 336.038,270.651 336.871,278.985 336,287.5C 335.617,288.056 335.117,288.389 334.5,288.5C 334.774,281.77 334.274,275.103 333,268.5C 331.069,266.47 329.569,264.137 328.5,261.5C 327.379,264.137 327.379,266.804 328.5,269.5C 328.518,271.373 328.018,271.706 327,270.5C 326.064,266.886 325.564,263.22 325.5,259.5C 325.323,257.019 326.323,255.186 328.5,254C 327.614,252.385 326.614,250.885 325.5,249.5C 325.5,246.167 325.5,242.833 325.5,239.5 Z"/></g>
<g><path style="opacity:1" fill="#8d5dac" d="M 71.5,240.5 C 71.8333,240.5 72.1667,240.5 72.5,240.5C 73.0421,244.544 72.2088,248.211 70,251.5C 69.2582,257.293 68.0915,262.96 66.5,268.5C 65.8333,268.833 65.1667,269.167 64.5,269.5C 64.6741,267.139 65.0074,264.806 65.5,262.5C 65.5,261.833 65.5,261.167 65.5,260.5C 67.1577,255.262 68.8244,249.928 70.5,244.5C 70.8333,243.167 71.1667,241.833 71.5,240.5 Z"/></g>
<g><path style="opacity:1" fill="#29184d" d="M 65.5,262.5 C 65.0074,264.806 64.6741,267.139 64.5,269.5C 64.5,270.167 64.5,270.833 64.5,271.5C 64.1667,271.5 63.8333,271.5 63.5,271.5C 63.3359,268.813 63.5026,266.146 64,263.5C 64.3826,262.944 64.8826,262.611 65.5,262.5 Z"/></g>
<g><path style="opacity:1" fill="#866bc8" d="M 116.5,269.5 C 115.749,274.957 113.915,279.957 111,284.5C 105.728,290.036 102.228,296.703 100.5,304.5C 99.675,305.386 98.675,305.719 97.5,305.5C 92.0555,305.431 86.7221,304.764 81.5,303.5C 80.8333,303.5 80.5,303.167 80.5,302.5C 85.6627,303.527 88.6627,301.527 89.5,296.5C 94.1949,293.947 96.3615,289.947 96,284.5C 100.455,279.145 103.789,273.145 106,266.5C 106.671,265.748 107.504,265.414 108.5,265.5C 111.948,264.107 114.615,265.441 116.5,269.5 Z"/></g>
<g><path style="opacity:1" fill="#296897" d="M 283.5,264.5 C 283.631,265.376 283.298,266.043 282.5,266.5C 278.4,268.192 274.4,269.859 270.5,271.5C 269.833,271.5 269.167,271.5 268.5,271.5C 267.833,271.5 267.167,271.5 266.5,271.5C 266.5,271.167 266.5,270.833 266.5,270.5C 269.785,270.072 272.785,269.072 275.5,267.5C 277.284,267.107 278.95,266.441 280.5,265.5C 281.391,264.89 282.391,264.557 283.5,264.5 Z"/></g>
<g><path style="opacity:1" fill="#7f6eca" d="M 118.5,268.5 C 128.747,271.309 129.914,276.642 122,284.5C 119.501,291.163 116.334,297.497 112.5,303.5C 109.263,301.985 106.263,302.319 103.5,304.5C 106.086,305.48 108.753,305.813 111.5,305.5C 111.5,306.5 111.5,307.5 111.5,308.5C 107.384,308.459 103.384,307.793 99.5,306.5C 98.5084,306.672 97.8417,306.338 97.5,305.5C 98.675,305.719 99.675,305.386 100.5,304.5C 102.228,296.703 105.728,290.036 111,284.5C 113.915,279.957 115.749,274.957 116.5,269.5C 116.842,268.662 117.508,268.328 118.5,268.5 Z"/></g>
<g><path style="opacity:1" fill="#2992d6" d="M 271.5,303.5 C 266.167,303.167 260.833,302.833 255.5,302.5C 255.343,301.127 255.51,299.793 256,298.5C 258.507,295.489 260.507,292.156 262,288.5C 263.011,287.663 264.178,287.33 265.5,287.5C 265.657,286.127 265.49,284.793 265,283.5C 262.268,283.459 259.434,283.626 256.5,284C 255.577,281.959 255.244,279.792 255.5,277.5C 258.355,275.75 261.689,274.917 265.5,275C 266.71,273.961 267.71,272.794 268.5,271.5C 269.167,271.5 269.833,271.5 270.5,271.5C 273.722,271.15 276.888,270.483 280,269.5C 280.833,269.833 281.667,270.167 282.5,270.5C 281.271,271.281 279.938,271.781 278.5,272C 279.576,273.726 279.743,275.559 279,277.5C 277.211,280.291 275.878,283.291 275,286.5C 274,287.833 273,287.833 272,286.5C 271.501,292.157 271.334,297.824 271.5,303.5 Z"/></g>
<g><path style="opacity:1" fill="#001939" d="M 333.5,262.5 C 340.442,274.568 340.109,286.568 332.5,298.5C 331.583,297.873 330.583,297.539 329.5,297.5C 331.959,294.913 333.626,291.913 334.5,288.5C 335.117,288.389 335.617,288.056 336,287.5C 336.871,278.985 336.038,270.651 333.5,262.5 Z"/></g>
<g><path style="opacity:1" fill="#0e9ed7" d="M 325.5,259.5 C 325.564,263.22 326.064,266.886 327,270.5C 328.018,271.706 328.518,271.373 328.5,269.5C 327.379,266.804 327.379,264.137 328.5,261.5C 329.569,264.137 331.069,266.47 333,268.5C 334.274,275.103 334.774,281.77 334.5,288.5C 333.626,291.913 331.959,294.913 329.5,297.5C 328.508,297.328 327.842,297.662 327.5,298.5C 325.326,298.75 323.659,299.75 322.5,301.5C 322.167,301.5 321.833,301.5 321.5,301.5C 319.62,301.229 318.287,301.896 317.5,303.5C 315.833,304.167 314.167,304.833 312.5,305.5C 309.848,305.41 307.515,306.076 305.5,307.5C 302.782,308.043 300.115,308.709 297.5,309.5C 296.167,309.5 294.833,309.5 293.5,309.5C 294.833,308.167 296.167,306.833 297.5,305.5C 300.722,305.892 303.722,305.392 306.5,304C 305.422,303.326 304.755,302.326 304.5,301C 305.691,296.501 305.691,292.001 304.5,287.5C 306.833,287.5 309.167,287.5 311.5,287.5C 312.095,281.481 314.429,276.315 318.5,272C 316.071,271.549 315.904,270.715 318,269.5C 318.83,264.857 319.497,260.19 320,255.5C 321.279,260.321 321.946,265.321 322,270.5C 323.011,271.337 324.178,271.67 325.5,271.5C 325.212,268.603 324.545,265.77 323.5,263C 323.608,261.319 324.275,260.152 325.5,259.5 Z"/></g>
<g><path style="opacity:1" fill="#04143a" d="M 137.5,272.5 C 137.5,272.167 137.5,271.833 137.5,271.5C 147.82,272.415 158.153,273.248 168.5,274C 171.371,274.118 174.038,274.784 176.5,276C 190.496,276.5 204.496,276.667 218.5,276.5C 204.343,277.496 190.01,277.829 175.5,277.5C 173.052,276.527 170.385,276.194 167.5,276.5C 162.384,275.194 157.051,274.527 151.5,274.5C 146.773,274.221 142.107,273.554 137.5,272.5 Z"/></g>
<g><path style="opacity:1" fill="#001437" d="M 260.5,271.5 C 256.858,272.607 253.191,273.607 249.5,274.5C 249.167,274.5 248.833,274.5 248.5,274.5C 242.611,274.45 236.944,275.116 231.5,276.5C 228.833,276.5 226.167,276.5 223.5,276.5C 231.502,274.715 239.835,273.215 248.5,272C 252.486,271.501 256.486,271.334 260.5,271.5 Z"/></g>
<g><path style="opacity:1" fill="#326a9a" d="M 260.5,271.5 C 261.833,271.5 263.167,271.5 264.5,271.5C 264.03,272.693 263.03,273.36 261.5,273.5C 257.535,274.274 253.535,274.607 249.5,274.5C 253.191,273.607 256.858,272.607 260.5,271.5 Z"/></g>
<g><path style="opacity:1" fill="#7771c9" d="M 116.5,265.5 C 123.331,268.461 130.331,270.795 137.5,272.5C 139.63,273.711 141.63,275.044 143.5,276.5C 143.5,277.833 143.5,279.167 143.5,280.5C 140.881,280.232 138.381,280.565 136,281.5C 137.036,284.679 137.369,288.012 137,291.5C 134.841,294.506 133.341,297.839 132.5,301.5C 129.015,305.137 124.681,307.137 119.5,307.5C 121.444,308.801 123.444,309.801 125.5,310.5C 123.833,310.5 122.167,310.5 120.5,310.5C 114.491,310.299 108.491,309.966 102.5,309.5C 102.167,309.5 101.833,309.5 101.5,309.5C 100.449,308.778 99.7822,307.778 99.5,306.5C 103.384,307.793 107.384,308.459 111.5,308.5C 111.5,307.5 111.5,306.5 111.5,305.5C 108.753,305.813 106.086,305.48 103.5,304.5C 106.263,302.319 109.263,301.985 112.5,303.5C 116.334,297.497 119.501,291.163 122,284.5C 129.914,276.642 128.747,271.309 118.5,268.5C 117.449,267.778 116.782,266.778 116.5,265.5 Z"/></g>
<g><path style="opacity:1" fill="#676dad" d="M 137.5,272.5 C 142.107,273.554 146.773,274.221 151.5,274.5C 153.5,275.167 155.5,275.833 157.5,276.5C 152.833,276.5 148.167,276.5 143.5,276.5C 141.63,275.044 139.63,273.711 137.5,272.5 Z"/></g>
<g><path style="opacity:1" fill="#2f3972" d="M 151.5,274.5 C 157.051,274.527 162.384,275.194 167.5,276.5C 164.833,276.5 162.167,276.5 159.5,276.5C 158.833,276.5 158.167,276.5 157.5,276.5C 155.5,275.833 153.5,275.167 151.5,274.5 Z"/></g>
<g><path style="opacity:1" fill="#275f8e" d="M 248.5,274.5 C 245.689,275.475 242.689,276.142 239.5,276.5C 236.833,276.5 234.167,276.5 231.5,276.5C 236.944,275.116 242.611,274.45 248.5,274.5 Z"/></g>
<g><path style="opacity:1" fill="#3c8cc5" d="M 264.5,271.5 C 265.167,271.5 265.833,271.5 266.5,271.5C 267.167,271.5 267.833,271.5 268.5,271.5C 267.71,272.794 266.71,273.961 265.5,275C 261.689,274.917 258.355,275.75 255.5,277.5C 250.167,277.5 244.833,277.5 239.5,277.5C 239.5,277.167 239.5,276.833 239.5,276.5C 242.689,276.142 245.689,275.475 248.5,274.5C 248.833,274.5 249.167,274.5 249.5,274.5C 253.535,274.607 257.535,274.274 261.5,273.5C 263.03,273.36 264.03,272.693 264.5,271.5 Z"/></g>
<g><path style="opacity:1" fill="#6175bd" d="M 159.5,277.5 C 159.5,277.167 159.5,276.833 159.5,276.5C 162.167,276.5 164.833,276.5 167.5,276.5C 170.385,276.194 173.052,276.527 175.5,277.5C 180.64,278.488 185.974,278.821 191.5,278.5C 191.5,278.833 191.5,279.167 191.5,279.5C 184.465,279.326 177.465,279.659 170.5,280.5C 168.956,279.086 167.289,278.753 165.5,279.5C 163.47,278.828 161.47,278.162 159.5,277.5 Z"/></g>
<g><path style="opacity:1" fill="#4771ab" d="M 218.5,276.5 C 220.167,276.5 221.833,276.5 223.5,276.5C 226.167,276.5 228.833,276.5 231.5,276.5C 234.167,276.5 236.833,276.5 239.5,276.5C 239.5,276.833 239.5,277.167 239.5,277.5C 236.5,277.5 233.5,277.5 230.5,277.5C 217.52,278.354 204.52,278.687 191.5,278.5C 185.974,278.821 180.64,278.488 175.5,277.5C 190.01,277.829 204.343,277.496 218.5,276.5 Z"/></g>
<g><path style="opacity:1" fill="#6778cc" d="M 159.5,277.5 C 161.47,278.162 163.47,278.828 165.5,279.5C 167.289,278.753 168.956,279.086 170.5,280.5C 168.83,280.751 167.33,281.418 166,282.5C 165.814,284.9 165.314,287.234 164.5,289.5C 162.119,292.929 160.285,296.596 159,300.5C 156.567,302.626 153.734,303.959 150.5,304.5C 155.822,307.399 155.489,309.733 149.5,311.5C 146.607,311.031 144.607,312.031 143.5,314.5C 135.836,312.693 128.169,311.36 120.5,310.5C 122.167,310.5 123.833,310.5 125.5,310.5C 128.833,310.5 132.167,310.5 135.5,310.5C 135.297,308.61 135.963,307.11 137.5,306C 140.882,305.824 144.215,305.324 147.5,304.5C 146.5,303.833 145.5,303.167 144.5,302.5C 147.737,297.028 150.737,291.362 153.5,285.5C 153.167,284.833 152.833,284.167 152.5,283.5C 154.743,282.526 157.076,282.192 159.5,282.5C 159.5,280.833 159.5,279.167 159.5,277.5 Z"/></g>
<g><path style="opacity:1" fill="#5d7ccf" d="M 191.5,279.5 C 191.611,280.117 191.944,280.617 192.5,281C 187.231,282.106 181.897,282.773 176.5,283C 175.167,283.667 175.167,284.333 176.5,285C 179.482,285.498 182.482,285.665 185.5,285.5C 184.494,290.999 182.494,296.166 179.5,301C 179.645,301.772 179.978,302.439 180.5,303C 177.527,303.105 174.527,302.938 171.5,302.5C 168.869,302.321 166.535,302.987 164.5,304.5C 167.905,305.289 171.239,306.289 174.5,307.5C 167.495,308.677 160.662,310.343 154,312.5C 152.293,312.492 150.793,312.158 149.5,311.5C 155.489,309.733 155.822,307.399 150.5,304.5C 153.734,303.959 156.567,302.626 159,300.5C 160.285,296.596 162.119,292.929 164.5,289.5C 165.314,287.234 165.814,284.9 166,282.5C 167.33,281.418 168.83,280.751 170.5,280.5C 177.465,279.659 184.465,279.326 191.5,279.5 Z"/></g>
<g><path style="opacity:1" fill="#547fce" d="M 191.5,279.5 C 199.84,279.334 208.173,279.5 216.5,280C 209.391,284.814 201.391,287.481 192.5,288C 191.825,292.372 190.825,296.705 189.5,301C 189.759,302.261 190.426,303.261 191.5,304C 191.167,304.333 190.833,304.667 190.5,305C 185.467,305.171 180.467,305.671 175.5,306.5C 180.891,307.238 186.224,308.238 191.5,309.5C 191.291,310.086 190.957,310.586 190.5,311C 185.167,311.333 179.833,311.667 174.5,312C 174.957,312.414 175.291,312.914 175.5,313.5C 181.138,314.33 186.804,314.83 192.5,315C 191.944,315.383 191.611,315.883 191.5,316.5C 175.5,315.833 159.5,315.167 143.5,314.5C 144.607,312.031 146.607,311.031 149.5,311.5C 150.793,312.158 152.293,312.492 154,312.5C 160.662,310.343 167.495,308.677 174.5,307.5C 171.239,306.289 167.905,305.289 164.5,304.5C 166.535,302.987 168.869,302.321 171.5,302.5C 174.527,302.938 177.527,303.105 180.5,303C 179.978,302.439 179.645,301.772 179.5,301C 182.494,296.166 184.494,290.999 185.5,285.5C 182.482,285.665 179.482,285.498 176.5,285C 175.167,284.333 175.167,283.667 176.5,283C 181.897,282.773 187.231,282.106 192.5,281C 191.944,280.617 191.611,280.117 191.5,279.5 Z"/></g>
<g><path style="opacity:1" fill="#4089d3" d="M 230.5,283.5 C 233.572,283.183 236.572,283.516 239.5,284.5C 230.236,285.652 230.236,286.485 239.5,287C 234.279,287.542 234.279,288.376 239.5,289.5C 239.069,290.293 238.735,291.127 238.5,292C 236.895,293.388 235.395,294.888 234,296.5C 233.929,286.563 232.762,286.229 230.5,295.5C 229.702,293.922 229.202,292.256 229,290.5C 225.604,294.279 222.437,298.279 219.5,302.5C 217.577,303.308 215.577,303.808 213.5,304C 214.737,304.232 215.737,304.732 216.5,305.5C 213.428,305.817 210.428,305.484 207.5,304.5C 208.689,303.571 210.022,303.238 211.5,303.5C 212.833,298.5 214.167,293.5 215.5,288.5C 217.857,288.663 220.19,288.497 222.5,288C 223.38,286.644 223.714,285.144 223.5,283.5C 225.833,283.5 228.167,283.5 230.5,283.5 Z"/></g>
<g><path style="opacity:1" fill="#6e74cd" d="M 143.5,276.5 C 148.167,276.5 152.833,276.5 157.5,276.5C 158.167,276.5 158.833,276.5 159.5,276.5C 159.5,276.833 159.5,277.167 159.5,277.5C 159.5,279.167 159.5,280.833 159.5,282.5C 157.076,282.192 154.743,282.526 152.5,283.5C 152.833,284.167 153.167,284.833 153.5,285.5C 150.737,291.362 147.737,297.028 144.5,302.5C 145.5,303.167 146.5,303.833 147.5,304.5C 144.215,305.324 140.882,305.824 137.5,306C 135.963,307.11 135.297,308.61 135.5,310.5C 132.167,310.5 128.833,310.5 125.5,310.5C 123.444,309.801 121.444,308.801 119.5,307.5C 124.681,307.137 129.015,305.137 132.5,301.5C 133.341,297.839 134.841,294.506 137,291.5C 137.369,288.012 137.036,284.679 136,281.5C 138.381,280.565 140.881,280.232 143.5,280.5C 143.5,279.167 143.5,277.833 143.5,276.5 Z"/></g>
<g><path style="opacity:1" fill="#4885d1" d="M 230.5,277.5 C 230.611,278.117 230.944,278.617 231.5,279C 229.19,279.497 226.857,279.663 224.5,279.5C 224.5,280.5 224.5,281.5 224.5,282.5C 226.735,282.205 228.735,282.539 230.5,283.5C 228.167,283.5 225.833,283.5 223.5,283.5C 223.714,285.144 223.38,286.644 222.5,288C 220.19,288.497 217.857,288.663 215.5,288.5C 214.167,293.5 212.833,298.5 211.5,303.5C 210.022,303.238 208.689,303.571 207.5,304.5C 210.428,305.484 213.428,305.817 216.5,305.5C 218.924,305.192 221.257,305.526 223.5,306.5C 223.291,307.086 222.957,307.586 222.5,308C 217.467,308.171 212.467,308.671 207.5,309.5C 207.667,309.833 207.833,310.167 208,310.5C 213.448,311.146 218.948,311.812 224.5,312.5C 224.333,312.833 224.167,313.167 224,313.5C 218.593,314.473 213.093,314.807 207.5,314.5C 207.5,315.5 207.5,316.5 207.5,317.5C 202.167,317.5 196.833,317.5 191.5,317.5C 191.5,317.167 191.5,316.833 191.5,316.5C 191.611,315.883 191.944,315.383 192.5,315C 186.804,314.83 181.138,314.33 175.5,313.5C 175.291,312.914 174.957,312.414 174.5,312C 179.833,311.667 185.167,311.333 190.5,311C 190.957,310.586 191.291,310.086 191.5,309.5C 186.224,308.238 180.891,307.238 175.5,306.5C 180.467,305.671 185.467,305.171 190.5,305C 190.833,304.667 191.167,304.333 191.5,304C 190.426,303.261 189.759,302.261 189.5,301C 190.825,296.705 191.825,292.372 192.5,288C 201.391,287.481 209.391,284.814 216.5,280C 208.173,279.5 199.84,279.334 191.5,279.5C 191.5,279.167 191.5,278.833 191.5,278.5C 204.52,278.687 217.52,278.354 230.5,277.5 Z"/></g>
<g><path style="opacity:1" fill="#368cd3" d="M 230.5,277.5 C 233.5,277.5 236.5,277.5 239.5,277.5C 244.833,277.5 250.167,277.5 255.5,277.5C 255.244,279.792 255.577,281.959 256.5,284C 259.434,283.626 262.268,283.459 265,283.5C 265.49,284.793 265.657,286.127 265.5,287.5C 264.178,287.33 263.011,287.663 262,288.5C 260.507,292.156 258.507,295.489 256,298.5C 255.51,299.793 255.343,301.127 255.5,302.5C 260.833,302.833 266.167,303.167 271.5,303.5C 261.549,305.314 251.215,306.147 240.5,306C 239.167,307 239.167,308 240.5,309C 245.495,309.146 250.329,309.98 255,311.5C 257.737,310.39 260.571,310.223 263.5,311C 256.81,312.714 250.143,313.88 243.5,314.5C 241.517,314.157 240.183,314.824 239.5,316.5C 228.86,317.375 218.194,317.709 207.5,317.5C 207.5,316.5 207.5,315.5 207.5,314.5C 213.093,314.807 218.593,314.473 224,313.5C 224.167,313.167 224.333,312.833 224.5,312.5C 218.948,311.812 213.448,311.146 208,310.5C 207.833,310.167 207.667,309.833 207.5,309.5C 212.467,308.671 217.467,308.171 222.5,308C 222.957,307.586 223.291,307.086 223.5,306.5C 221.257,305.526 218.924,305.192 216.5,305.5C 215.737,304.732 214.737,304.232 213.5,304C 215.577,303.808 217.577,303.308 219.5,302.5C 222.437,298.279 225.604,294.279 229,290.5C 229.202,292.256 229.702,293.922 230.5,295.5C 232.762,286.229 233.929,286.563 234,296.5C 235.395,294.888 236.895,293.388 238.5,292C 238.735,291.127 239.069,290.293 239.5,289.5C 234.279,288.376 234.279,287.542 239.5,287C 230.236,286.485 230.236,285.652 239.5,284.5C 236.572,283.516 233.572,283.183 230.5,283.5C 228.735,282.539 226.735,282.205 224.5,282.5C 224.5,281.5 224.5,280.5 224.5,279.5C 226.857,279.663 229.19,279.497 231.5,279C 230.944,278.617 230.611,278.117 230.5,277.5 Z"/></g>
<g><path style="opacity:1" fill="#201346" d="M 63.5,288.5 C 64.7301,291.945 66.7301,294.945 69.5,297.5C 64.7846,296.396 62.7846,293.396 63.5,288.5 Z"/></g>
<g><path style="opacity:1" fill="#775ba3" d="M 70.5,297.5 C 73.1085,297.4 75.4418,298.067 77.5,299.5C 78.5511,300.222 79.2178,301.222 79.5,302.5C 76.0078,301.59 73.0078,299.924 70.5,297.5 Z"/></g>
<g><path style="opacity:1" fill="#094d79" d="M 327.5,298.5 C 326.341,300.25 324.674,301.25 322.5,301.5C 323.659,299.75 325.326,298.75 327.5,298.5 Z"/></g>
<g><path style="opacity:1" fill="#0f5f98" d="M 321.5,301.5 C 320.486,302.674 319.153,303.34 317.5,303.5C 318.287,301.896 319.62,301.229 321.5,301.5 Z"/></g>
<g><path style="opacity:1" fill="#7263ad" d="M 81.5,303.5 C 86.7221,304.764 92.0555,305.431 97.5,305.5C 97.8417,306.338 98.5084,306.672 99.5,306.5C 99.7822,307.778 100.449,308.778 101.5,309.5C 94.6358,307.868 87.9691,305.868 81.5,303.5 Z"/></g>
<g><path style="opacity:1" fill="#053e6b" d="M 312.5,305.5 C 311.07,306.537 309.403,307.204 307.5,307.5C 306.833,307.5 306.167,307.5 305.5,307.5C 307.515,306.076 309.848,305.41 312.5,305.5 Z"/></g>
<g><path style="opacity:1" fill="#090f31" d="M 321.5,301.5 C 321.833,301.5 322.167,301.5 322.5,301.5C 322.586,302.496 322.252,303.329 321.5,304C 320.167,304.333 318.833,304.667 317.5,305C 319.394,306.079 319.727,307.413 318.5,309C 315.199,309.997 311.866,310.33 308.5,310C 307.748,309.329 307.414,308.496 307.5,307.5C 309.403,307.204 311.07,306.537 312.5,305.5C 314.167,304.833 315.833,304.167 317.5,303.5C 319.153,303.34 320.486,302.674 321.5,301.5 Z"/></g>
<g><path style="opacity:1" fill="#656aae" d="M 102.5,309.5 C 108.491,309.966 114.491,310.299 120.5,310.5C 128.169,311.36 135.836,312.693 143.5,314.5C 143.5,314.833 143.5,315.167 143.5,315.5C 129.493,314.872 115.827,312.872 102.5,309.5 Z"/></g>
<g><path style="opacity:1" fill="#268ec1" d="M 292.5,309.5 C 291.791,310.404 290.791,310.737 289.5,310.5C 285.878,310.322 282.544,310.989 279.5,312.5C 275.989,312.899 272.656,313.566 269.5,314.5C 267.5,314.5 265.5,314.5 263.5,314.5C 262.167,314.5 260.833,314.5 259.5,314.5C 261.158,313.819 262.825,312.985 264.5,312C 268.871,311.828 273.204,311.328 277.5,310.5C 278.04,309.252 278.707,308.085 279.5,307C 282.146,306.503 284.813,306.336 287.5,306.5C 287.5,307.5 287.5,308.5 287.5,309.5C 289.167,309.5 290.833,309.5 292.5,309.5 Z"/></g>
<g><path style="opacity:1" fill="#22689e" d="M 289.5,310.5 C 286.411,311.785 283.078,312.451 279.5,312.5C 282.544,310.989 285.878,310.322 289.5,310.5 Z"/></g>
<g><path style="opacity:1" fill="#002245" d="M 292.5,309.5 C 292.833,309.5 293.167,309.5 293.5,309.5C 294.833,309.5 296.167,309.5 297.5,309.5C 297.423,310.75 296.756,311.583 295.5,312C 286.867,313.224 278.2,314.058 269.5,314.5C 272.656,313.566 275.989,312.899 279.5,312.5C 283.078,312.451 286.411,311.785 289.5,310.5C 290.791,310.737 291.791,310.404 292.5,309.5 Z"/></g>
<g><path style="opacity:1" fill="#050f35" d="M 69.5,297.5 C 69.8333,297.5 70.1667,297.5 70.5,297.5C 73.0078,299.924 76.0078,301.59 79.5,302.5C 79.8333,302.5 80.1667,302.5 80.5,302.5C 80.5,303.167 80.8333,303.5 81.5,303.5C 87.9691,305.868 94.6358,307.868 101.5,309.5C 101.833,309.5 102.167,309.5 102.5,309.5C 115.827,312.872 129.493,314.872 143.5,315.5C 152.317,316.615 161.317,317.282 170.5,317.5C 187.992,318.497 205.659,318.83 223.5,318.5C 199.288,319.359 175.121,319.692 151,319.5C 149.267,317.398 147.267,317.065 145,318.5C 136.308,317.354 127.642,316.02 119,314.5C 118.667,314.833 118.333,315.167 118,315.5C 114.297,314.912 110.797,313.745 107.5,312C 93.9544,311.535 81.6211,307.535 70.5,300C 69.7476,299.329 69.4142,298.496 69.5,297.5 Z"/></g>
<g><path style="opacity:1" fill="#2a73a6" d="M 243.5,314.5 C 248.833,314.5 254.167,314.5 259.5,314.5C 260.833,314.5 262.167,314.5 263.5,314.5C 262.432,315.434 261.099,315.768 259.5,315.5C 252.869,316.331 246.202,316.664 239.5,316.5C 240.183,314.824 241.517,314.157 243.5,314.5 Z"/></g>
<g><path style="opacity:1" fill="#5671b2" d="M 143.5,314.5 C 159.5,315.167 175.5,315.833 191.5,316.5C 191.5,316.833 191.5,317.167 191.5,317.5C 184.5,317.5 177.5,317.5 170.5,317.5C 161.317,317.282 152.317,316.615 143.5,315.5C 143.5,315.167 143.5,314.833 143.5,314.5 Z"/></g>
<g><path style="opacity:1" fill="#0d294f" d="M 259.5,315.5 C 255.796,317.091 251.796,317.924 247.5,318C 239.507,318.5 231.507,318.666 223.5,318.5C 205.659,318.83 187.992,318.497 170.5,317.5C 177.5,317.5 184.5,317.5 191.5,317.5C 196.833,317.5 202.167,317.5 207.5,317.5C 218.194,317.709 228.86,317.375 239.5,316.5C 246.202,316.664 252.869,316.331 259.5,315.5 Z"/></g>
</svg>
