<?xml version="1.0" encoding="UTF-8"?>
<svg version="1.1" xmlns="http://www.w3.org/2000/svg" width="512" height="512">
<path d="M0 0 C0.81176193 -0.00979385 1.62352386 -0.01958771 2.45988464 -0.02967834 C20.40336888 -0.20152396 37.78189168 -0.08113612 55.3125 4.23828125 C56.22999023 4.46322266 57.14748047 4.68816406 58.09277344 4.91992188 C111.8409514 18.50195362 155.31306439 52.28132831 183.84375 99.37890625 C194.81570954 117.9963891 201.69670032 138.1940812 206.3125 159.23828125 C206.49039062 160.0154248 206.66828125 160.79256836 206.8515625 161.59326172 C210.78124258 179.43666025 209.59322534 198.08182983 209.3125 216.23828125 C212.93223402 217.55454817 215.40817131 218.23828125 219.3125 218.23828125 C221.00807243 216.98595626 221.00807243 216.98595626 222.484375 215.203125 C223.0621167 214.56165527 223.6398584 213.92018555 224.23510742 213.25927734 C225.13966675 212.22794678 225.13966675 212.22794678 226.0625 211.17578125 C227.3217845 209.78945159 228.58347941 208.40530736 229.84765625 207.0234375 C230.44980957 206.36230957 231.05196289 205.70118164 231.67236328 205.02001953 C240.53991039 195.3868908 251.06535372 189.89423898 264.3125 189.23828125 C278.47823247 189.70544902 289.36385929 194.07970175 299.11328125 204.44140625 C307.25814959 214.79971127 309.36320756 225.34532774 308.56884766 238.18701172 C307.81035049 244.25643377 304.56998482 248.15735948 300.21484375 252.171875 C293.27143013 257.19107049 285.61513449 257.42832553 277.3125 256.23828125 C272.46714511 254.17517394 268.52101518 251.35258248 264.3125 248.23828125 C258.35516087 254.10758089 252.44287364 259.93908303 247.01953125 266.3125 C244.32271987 269.3548982 241.39715604 272.16153934 238.50390625 275.015625 C235.8940403 277.66270829 233.48400469 280.44415861 231.06640625 283.265625 C228.56079552 286.08373952 225.865965 288.69537602 223.1796875 291.33984375 C220.71320885 293.84760238 218.50890856 296.49277056 216.3125 299.23828125 C217.67263482 303.3043685 219.44662729 305.69530274 222.4375 308.73828125 C240.06126821 327.83069681 250.00773308 355.45924989 251.3125 381.23828125 C251.39177734 382.71554687 251.39177734 382.71554687 251.47265625 384.22265625 C252.41472864 419.1202945 239.23253458 449.50958887 216.3125 475.23828125 C215.71824219 475.90601563 215.12398438 476.57375 214.51171875 477.26171875 C195.7029502 497.14394059 166.32728063 510.95911617 138.98950195 512.4152832 C105.23094201 513.01687344 76.49934072 507.34200786 49.3125 486.23828125 C47.98052474 485.23647304 46.64767269 484.23582406 45.3125 483.23828125 C42.08756913 484.64134998 40.0974679 486.27788246 37.73828125 488.87109375 C37.07481689 489.59159912 36.41135254 490.31210449 35.7277832 491.05444336 C34.68690552 492.19731812 34.68690552 492.19731812 33.625 493.36328125 C16.67111299 511.65648898 16.67111299 511.65648898 7.89453125 512.609375 C-0.2448944 512.75276385 -7.00438613 512.40705658 -13.6875 507.23828125 C-19.25376124 501.68386312 -22.69032944 494.80593789 -23.125 486.92578125 C-22.54276187 474.7819574 -15.90769123 467.37696917 -7.6875 459.23828125 C-6.98367187 458.53316406 -6.27984375 457.82804687 -5.5546875 457.1015625 C-4.45383167 456.00308948 -3.34504601 454.91239826 -2.22265625 453.8359375 C-0.22328123 451.75516298 1.51993838 449.49788804 3.3125 447.23828125 C2.58749959 447.23681469 1.86249918 447.23534813 1.11552906 447.23383713 C-16.57263411 447.19669178 -34.26058945 447.13757521 -51.948596 447.05437851 C-60.50259886 447.01466714 -69.05651077 446.98223469 -77.6105957 446.96728516 C-85.07138076 446.95422748 -92.53196504 446.92715861 -99.99263698 446.88366818 C-103.93848102 446.86114531 -107.88407828 446.84536501 -111.82999229 446.8463974 C-115.55412092 446.8471495 -119.27770596 446.82898166 -123.00169373 446.79711342 C-124.99944793 446.78470913 -126.99729388 446.79163539 -128.99507141 446.79942322 C-145.87509786 446.60709691 -159.98180913 440.54785088 -172.17578125 428.9453125 C-183.85850401 416.3541354 -188.02810381 401.24232763 -187.91455078 384.47631836 C-187.91484283 383.33383636 -187.91513489 382.19135437 -187.91543579 381.01425171 C-187.91405035 377.2646303 -187.89852605 373.51521139 -187.8828125 369.765625 C-187.87907958 367.15532032 -187.87623393 364.54501423 -187.87423706 361.93470764 C-187.86804324 355.78321939 -187.85166112 349.631803 -187.83153808 343.48034626 C-187.80911341 336.47181672 -187.7981692 329.46328359 -187.78814721 322.45472705 C-187.76729281 308.04920821 -187.73215804 293.64374574 -187.6875 279.23828125 C-188.28691406 279.10550781 -188.88632813 278.97273438 -189.50390625 278.8359375 C-195.57052164 277.17548642 -198.64866583 273.29728643 -201.70703125 268.140625 C-204.60003592 262.52750438 -203.94824964 256.36029432 -203.98266602 250.20678711 C-203.99415085 248.77830065 -204.01454736 247.34985592 -204.04418945 245.92163086 C-204.24029384 236.46589383 -204.19863559 229.37498447 -197.6875 221.9609375 C-197.0275 221.41308594 -196.3675 220.86523438 -195.6875 220.30078125 C-195.0275 219.73488281 -194.3675 219.16898438 -193.6875 218.5859375 C-191.63453863 217.20259439 -190.07571676 216.76785588 -187.6875 216.23828125 C-187.70321045 215.42488281 -187.7189209 214.61148438 -187.73510742 213.7734375 C-188.65647374 158.47590822 -174.96331257 106.90699418 -136.765625 65.50390625 C-134.86931669 63.43650245 -133.05720394 61.32078032 -131.25 59.17578125 C-100.04935632 23.54850162 -47.04724332 0.47067572 0 0 Z M-85.6875 86.23828125 C-86.61175781 87.02976563 -87.53601563 87.82125 -88.48828125 88.63671875 C-94.97330414 94.32344699 -100.47888638 100.37196973 -105.6875 107.23828125 C-106.0882373 107.75874023 -106.48897461 108.27919922 -106.90185547 108.81542969 C-115.90308582 120.57572517 -122.97275503 133.23045204 -128.3125 147.05078125 C-128.57256836 147.7144873 -128.83263672 148.37819336 -129.10058594 149.06201172 C-130.33672768 152.44342924 -131.11425218 154.82610886 -129.6875 158.23828125 C-129.15576172 157.54605469 -129.15576172 157.54605469 -128.61328125 156.83984375 C-113.18791569 137.94096973 -89.10725956 127.20916604 -65.20532227 124.63647461 C-37.6877418 122.31943696 -11.08346512 130.69624773 10.3125 148.23828125 C13.92915098 146.60690408 16.92818511 144.38706987 20.125 142.05078125 C42.12934018 126.50222092 68.77257453 121.57336845 95.15234375 125.84033203 C117.94958026 130.04009418 136.58917339 141.41797837 152.3125 158.23828125 C153.54546642 156.31303829 153.54546642 156.31303829 152.8503418 154.36914062 C137.66296875 112.9498362 110.51429937 81.1934895 70.3125 62.23828125 C19.2191303 38.72357996 -43.86921157 49.41794257 -85.6875 86.23828125 Z " fill="#020101" transform="translate(203.6875,-0.23828125)"/>
<path d="M0 0 C11.5086052 -0.41870188 23.01537624 -0.73767566 34.5300703 -0.93261909 C39.87851195 -1.02623519 45.221714 -1.15294425 50.56713867 -1.35791016 C55.73534453 -1.55481993 60.89854609 -1.66136148 66.07021523 -1.70779037 C68.03357093 -1.7408275 69.99667855 -1.8053616 71.95787621 -1.90314102 C86.85304122 -2.61561657 86.85304122 -2.61561657 92.05450821 1.70761871 C95.89418802 5.94392965 98.79535602 10.65185378 101.5952549 15.61572647 C103.94924283 19.61114964 106.73706059 23.28167836 109.5 27 C110.58532864 28.49855692 111.66889612 29.99839235 112.75 31.5 C113.28625 32.2425 113.8225 32.985 114.375 33.75 C132.25 58.5 132.25 58.5 133.87646484 60.75292969 C134.95377353 62.24398971 136.03221395 63.73423275 137.11181641 65.22363281 C139.92243797 69.10427934 142.70857698 72.99964535 145.4609375 76.921875 C146.03263672 77.73011719 146.60433594 78.53835938 147.19335938 79.37109375 C148.27761984 80.90492562 149.35499359 82.44366035 150.42382812 83.98828125 C154.67790974 89.98041177 159.66088701 95.98174393 167 98 C169.33145441 98.34623094 171.66469062 98.68080468 174 99 C174.0093457 99.65782471 174.01869141 100.31564941 174.02832031 100.9934082 C174.28531348 115.47950848 175.50027228 128.94276033 179 143 C179.34007633 144.66530387 179.67483304 146.33172085 180 148 C160.87594847 148.09357723 141.75194361 148.1640447 122.62771034 148.20724869 C113.74733435 148.22784519 104.86710089 148.25590988 95.98681641 148.30175781 C88.24379737 148.341715 80.50088159 148.36745397 72.75776231 148.37635398 C68.66047716 148.38155375 64.56348734 148.39371378 60.46629715 148.42292023 C56.60358578 148.45023007 52.74128919 148.45841389 48.87849045 148.45243073 C47.46684255 148.45352405 46.05517964 148.46138506 44.64361572 148.4768219 C33.44293064 148.59322251 25.06183895 146.79637921 16 140 C15.030625 139.319375 14.06125 138.63875 13.0625 137.9375 C5.40402129 131.36733143 0.71464622 121.21761481 -0.27042198 111.26885605 C-0.3659674 108.30832986 -0.37159133 105.3618062 -0.34057617 102.39990234 C-0.34101425 101.28653503 -0.34145233 100.17316772 -0.34190369 99.02606201 C-0.33982878 95.37916979 -0.31655873 91.73274852 -0.29296875 88.0859375 C-0.28736819 85.54432425 -0.28310027 83.00270774 -0.28010559 80.46109009 C-0.26985692 74.47603166 -0.24626003 68.49117258 -0.21605712 62.50619376 C-0.182396 55.68628451 -0.16599783 48.86636685 -0.15097082 42.04639506 C-0.11970651 28.03083821 -0.06701965 14.01542827 0 0 Z " fill="#CE9D75" transform="translate(33,281)"/>
<path d="M0 0 C55.44 0 110.88 0 168 0 C166.47513951 4.57458146 164.89558564 8.48085983 162.77880859 12.76464844 C162.45974548 13.41270447 162.14068237 14.0607605 161.81195068 14.72845459 C160.7618757 16.85765167 159.70571385 18.98374549 158.6484375 21.109375 C158.10350584 22.20772045 158.10350584 22.20772045 157.54756546 23.3282547 C155.6234652 27.20636721 153.69481278 31.08217412 151.76220703 34.95605469 C149.78119563 38.92901112 147.81512188 42.90915961 145.8525753 46.89126205 C144.32840286 49.97713122 142.79330828 53.05747458 141.25532913 56.13648224 C140.52661987 57.5998979 139.80185756 59.06528668 139.08137131 60.53276825 C134.82420284 69.19235754 130.34171575 76.64645599 124 84 C114.31859227 97.05784719 107.90545618 111.27318991 104 127 C103.80148438 127.79019531 103.60296875 128.58039063 103.3984375 129.39453125 C103.26695312 129.92433594 103.13546875 130.45414063 103 131 C99.8125 131.8125 99.8125 131.8125 96 132 C91.52832376 128.2600526 88.34665644 123.54848878 85 118.8125 C83.84387317 117.19392243 82.68761963 115.57543536 81.53125 113.95703125 C80.94472656 113.13283691 80.35820312 112.30864258 79.75390625 111.45947266 C77.02060979 107.6266179 74.25969741 103.81386493 71.5 100 C70.41651791 98.50010745 69.33318496 97.00010715 68.25 95.5 C67.71375 94.7575 67.1775 94.015 66.625 93.25 C52 73 37.375 52.75 22.75 32.5 C22.21270264 31.75613037 21.67540527 31.01226074 21.12182617 30.24584961 C20.04876263 28.75990779 18.97600394 27.27374579 17.90356445 25.78735352 C15.04068665 21.82031629 12.17117246 17.85827902 9.29296875 13.90234375 C8.6896875 13.07154297 8.08640625 12.24074219 7.46484375 11.38476562 C6.29879338 9.77920397 5.13088591 8.17498906 3.9609375 6.57226562 C3.44144531 5.85619141 2.92195313 5.14011719 2.38671875 4.40234375 C1.92483154 3.76804443 1.46294434 3.13374512 0.98706055 2.48022461 C0 1 0 1 0 0 Z " fill="#EABF9B" transform="translate(107,231)"/>
<path d="M0 0 C0.86410492 -0.00626404 1.72820984 -0.01252808 2.61849976 -0.01898193 C51.60772028 -0.24321016 96.53616076 20.47169636 131.375 54.4375 C156.71542394 80.00655935 174.18464126 114.0316677 180.375 149.4375 C180.63095947 150.74642212 180.63095947 150.74642212 180.89208984 152.08178711 C182.63609245 161.83542571 182.60417359 171.38397439 182.5 181.25 C182.48994114 182.9251248 182.48082047 184.60025552 182.47265625 186.27539062 C182.45261519 190.32969745 182.41342975 194.38316179 182.375 198.4375 C177.095 198.4375 171.815 198.4375 166.375 198.4375 C166.33761719 196.43171875 166.30023438 194.4259375 166.26171875 192.359375 C165.17992777 144.40891534 152.98682156 102.91664498 119.375 67.4375 C118.48296875 66.48101562 117.5909375 65.52453125 116.671875 64.5390625 C104.97857617 52.24977494 91.39017507 43.20190139 76.375 35.4375 C75.76188965 35.11797363 75.1487793 34.79844727 74.51708984 34.46923828 C35.69188408 14.51956903 -10.36706129 12.25212063 -51.625 25.4375 C-58.1254859 27.73348798 -64.40668719 30.46789789 -70.625 33.4375 C-71.29998535 33.75976562 -71.9749707 34.08203125 -72.67041016 34.4140625 C-107.43392295 51.3358021 -133.59310464 80.62762607 -149.625 115.4375 C-150.15996094 116.59378906 -150.69492188 117.75007813 -151.24609375 118.94140625 C-158.12591099 134.93474762 -162.56491861 152.79670378 -162.94140625 170.21484375 C-162.96218735 171.02619278 -162.98296844 171.83754181 -163.00437927 172.67347717 C-163.06925643 175.24057339 -163.12846922 177.80776337 -163.1875 180.375 C-163.23074418 182.12566036 -163.27436026 183.87631158 -163.31835938 185.62695312 C-163.4255667 189.89704117 -163.52509774 194.16720993 -163.625 198.4375 C-169.235 198.4375 -174.845 198.4375 -180.625 198.4375 C-181.20113039 162.65340158 -181.20113039 162.65340158 -177.625 146.4375 C-177.34275174 145.02103188 -177.06150864 143.60436312 -176.78125 142.1875 C-171.46397946 116.53931616 -159.52899816 92.15178116 -143.625 71.4375 C-142.99464844 70.60089844 -142.36429688 69.76429687 -141.71484375 68.90234375 C-117.17868177 37.55846052 -82.61247968 15.00144867 -44.08007812 5.07080078 C-42.50399547 4.66424167 -40.93181941 4.24203745 -39.36523438 3.80029297 C-26.39415375 0.20449077 -13.36489568 0.04536125 0 0 Z " fill="#AF7644" transform="translate(213.625,16.5625)"/>
<path d="M0 0 C5.40275517 3.96764833 9.99252971 9.0035148 12 15.46875 C12.30078125 18.2578125 12.30078125 18.2578125 12.3125 21.09375 C12.32925781 22.03476563 12.34601563 22.97578125 12.36328125 23.9453125 C12 26.46875 12 26.46875 10.6953125 28.2734375 C7.78198324 30.32753601 5.42691595 29.94972066 2 29.46875 C-0.1875 27.40625 -0.1875 27.40625 -2 24.46875 C-2.37253906 23.86804688 -2.74507812 23.26734375 -3.12890625 22.6484375 C-6 17.86661585 -6 17.86661585 -6 15.46875 C-9.0771452 14.62111047 -11.80802696 14.24025866 -15 14.46875 C-17.04996256 15.67669643 -17.04996256 15.67669643 -18.83984375 17.46875 C-19.52804199 18.11142822 -20.21624023 18.75410645 -20.92529297 19.41625977 C-24.21908912 22.67478463 -27.41758122 26.00401968 -30.5625 29.40625 C-31.25085938 30.14423828 -31.93921875 30.88222656 -32.6484375 31.64257812 C-34.07328036 33.17031183 -35.49662081 34.69944814 -36.91845703 36.22998047 C-40.10129992 39.65323514 -43.30126222 43.06035633 -46.5 46.46875 C-47.7396203 47.79163203 -48.97920341 49.11454891 -50.21875 50.4375 C-54.81153257 55.33646807 -59.4158028 60.22460249 -64.01953125 65.11328125 C-68.51926208 69.89260701 -73.01200386 74.67840465 -77.5 79.46875 C-83.33068695 85.69224113 -89.17290005 91.90476959 -95.01953125 98.11328125 C-99.51926208 102.89260701 -104.01200386 107.67840465 -108.5 112.46875 C-113.65934241 117.97566916 -118.82660592 123.47502967 -124 128.96875 C-136.04437719 141.76106184 -148.05825342 154.58052435 -160 167.46875 C-164.53451965 163.63046005 -168.84901916 159.72097428 -173 155.46875 C-171.72896928 152.70539637 -170.39696503 150.59735895 -168.3046875 148.39453125 C-167.49088623 147.53045654 -167.49088623 147.53045654 -166.66064453 146.64892578 C-166.07138184 146.03259277 -165.48211914 145.41625977 -164.875 144.78125 C-164.25608887 144.12624512 -163.63717773 143.47124023 -162.99951172 142.79638672 C-161.67795131 141.39815664 -160.35448969 140.00172148 -159.02929688 138.60693359 C-156.37997857 135.81545986 -153.74503859 133.01062812 -151.10986328 130.20581055 C-149.09831206 128.0653518 -147.08464494 125.92690392 -145.0703125 123.7890625 C-141.04525935 119.51714457 -137.02243114 115.2431367 -133 110.96875 C-131.66667682 109.55207377 -130.33334348 108.13540711 -129 106.71875 C-128.34 106.0175 -127.68 105.31625 -127 104.59375 C-73 47.21875 -73 47.21875 -70.99951172 45.09326172 C-69.66776536 43.67826089 -68.33605956 42.2632219 -67.00439453 40.84814453 C-63.64711388 37.28067463 -60.28910518 33.71389517 -56.9296875 30.1484375 C-56.25881104 29.4359082 -55.58793457 28.72337891 -54.89672852 27.98925781 C-53.5574762 26.56801046 -52.2168354 25.1480701 -50.87475586 23.72949219 C-47.60724151 20.2698185 -44.37365404 16.78761795 -41.19921875 13.2421875 C-30.06820612 0.85814173 -17.47377687 -9.26639682 0 0 Z " fill="#F8D46E" transform="translate(483,209.53125)"/>
<path d="M0 0 C0.94783859 -0.00571014 1.89567719 -0.01142029 2.87223816 -0.01730347 C3.9205632 -0.01842133 4.96888824 -0.01953918 6.04898071 -0.02069092 C7.14646133 -0.02565582 8.24394196 -0.03062073 9.37467957 -0.03573608 C13.02344376 -0.05040132 16.67216449 -0.05716684 20.32095337 -0.06268311 C22.84582522 -0.06843082 25.37069704 -0.07418859 27.89556885 -0.07995605 C32.51831691 -0.08913154 37.14105183 -0.0954269 41.7638067 -0.09845281 C48.57323505 -0.10293411 55.38246272 -0.12048257 62.19183004 -0.1494534 C68.08380475 -0.17365334 73.97572932 -0.18139611 79.86775589 -0.18312836 C82.3772656 -0.1861637 84.88677428 -0.19422165 87.39625168 -0.20731354 C90.90174465 -0.22429638 94.40674498 -0.22251266 97.91226196 -0.21600342 C98.95653854 -0.2252182 100.00081512 -0.23443298 101.07673645 -0.243927 C102.50695381 -0.23557327 102.50695381 -0.23557327 103.96606445 -0.22705078 C104.79530111 -0.22851734 105.62453777 -0.2299839 106.47890282 -0.2314949 C109.0796217 0.2224008 109.96404987 1.13082183 111.61001587 3.14044189 C110.75278931 3.98606689 109.89556274 4.83169189 109.01235962 5.70294189 C103.58779614 11.07671953 98.22608086 16.42448414 93.28189087 22.24981689 C90.60952148 25.27184209 87.7037557 28.05484944 84.83267212 30.88653564 C81.59751033 34.16718301 78.58774569 37.62652922 75.61001587 41.14044189 C74.2341197 40.85303247 72.85934265 40.56026447 71.48501587 40.26544189 C70.71931274 40.10302002 69.95360962 39.94059814 69.16470337 39.77325439 C66.61001587 39.14044189 66.61001587 39.14044189 63.87564087 38.17169189 C35.58232563 29.23696077 5.14819261 34.38054083 -21.38998413 46.14044189 C-22.80594821 46.74625335 -24.22248973 47.35071982 -25.63998413 47.95294189 C-27.00123413 48.54075439 -27.00123413 48.54075439 -28.38998413 49.14044189 C-26.75184169 43.56711602 -24.24056403 38.56916163 -21.63607788 33.40216064 C-21.17516251 32.48078812 -20.71424713 31.55941559 -20.23936462 30.61012268 C-19.26876321 28.67193086 -18.29622574 26.73470751 -17.3218689 24.79840088 C-15.82495834 21.82292126 -14.33454217 18.84425636 -12.84506226 15.86505127 C-11.90077939 13.98139789 -10.9561308 12.0979278 -10.01107788 10.21466064 C-9.56316391 9.31994553 -9.11524994 8.42523041 -8.65376282 7.50340271 C-8.23985794 6.68197281 -7.82595306 5.86054291 -7.39950562 5.01422119 C-7.03469589 4.28841354 -6.66988617 3.5626059 -6.29402161 2.81480408 C-4.60600369 -0.3115634 -3.46041979 0.01242462 0 0 Z " fill="#D09D6A" transform="translate(298.3899841308594,230.85955810546875)"/>
<path d="M0 0 C4.62468638 3.86782084 9.0199301 7.87657632 13.27061462 12.15036011 C14.15550807 13.03397191 14.15550807 13.03397191 15.05827814 13.93543446 C17.01510721 15.89062925 18.96836375 17.84935274 20.92163086 19.80810547 C22.33129752 21.21805448 23.74118496 22.62778279 25.15127563 24.03730774 C28.964965 27.85071096 32.77556981 31.6671829 36.58561778 35.48422384 C40.57298894 39.47785904 44.56320446 43.46865027 48.55311584 47.45974731 C56.10203318 55.01176898 63.64839842 62.56633549 71.19384438 70.12182534 C79.78678551 78.72595551 88.38257654 87.32723612 96.97860515 95.92828155 C114.65557069 113.61569113 132.32896401 131.30666649 150 149 C148.66407069 153.00778794 146.1196496 154.19954796 142.6875 156.3125 C142.10548828 156.69728516 141.52347656 157.08207031 140.92382812 157.47851562 C139.19921875 158.55078125 139.19921875 158.55078125 136 160 C131.86629183 158.74280381 129.08931777 155.36172219 126.12811279 152.36862183 C125.54483066 151.78704854 124.96154852 151.20547526 124.36059117 150.60627854 C122.40585608 148.65483968 120.45835858 146.69633472 118.51074219 144.73779297 C117.11158476 143.33807145 115.7119869 141.93879007 114.3119812 140.53991699 C110.51032696 136.73883737 106.71487752 132.93161583 102.92049313 129.123281 C98.95489993 125.14519873 94.98365518 121.17276663 91.01300049 117.19973755 C83.49385204 109.67436897 75.97981706 102.14391594 68.46759534 94.61163342 C59.91537944 86.0370751 51.35749456 77.46818438 42.79912329 68.8997705 C25.19308997 51.27282312 7.59420569 33.63875249 -10 16 C-9.37102535 14.71831402 -8.73930988 13.43797283 -8.10644531 12.15820312 C-7.75495422 11.44506958 -7.40346313 10.73193604 -7.0413208 9.99719238 C-5.13096424 6.33324025 -2.54162515 3.23479565 0 0 Z " fill="#E3E6EA" transform="translate(245,323)"/>
<path d="M0 0 C6.91174969 5.66505479 13.14286887 11.99458252 19.45288086 18.30761719 C20.70493081 19.55667147 21.95718442 20.80552162 23.20962524 22.05418396 C26.59376389 25.42952726 29.97468886 28.80807156 33.3547523 32.18749523 C35.46636062 34.29839135 37.57867991 36.4085733 39.69125557 38.51850128 C47.05947339 45.87748573 54.4251217 53.23903066 61.78833008 60.60302734 C68.6577109 67.47301082 75.53267038 74.33737662 82.4102239 81.1991775 C88.31620936 87.09211572 94.21836193 92.98887399 100.11750704 98.88865972 C103.64071248 102.41212065 107.16546861 105.93399607 110.69407463 109.45204926 C114.00548805 112.75382725 117.31212765 116.06031055 120.61507034 119.3705616 C121.83080529 120.58734757 123.04826707 121.80241089 124.26753044 123.01566124 C125.92488865 124.66537045 127.57603881 126.32104678 129.22569275 127.97845459 C130.15314269 128.90535976 131.08059263 129.83226494 132.03614712 130.78725815 C134 133 134 133 134 135 C132.37829738 135.49021049 130.75236305 135.96642122 129.125 136.4375 C128.22007812 136.70433594 127.31515625 136.97117187 126.3828125 137.24609375 C125.26648438 137.49488281 124.15015625 137.74367188 123 138 C122.3068828 138.21829688 121.6137656 138.43659376 120.89964485 138.6615057 C118.01509527 139.32131372 115.93792566 139.4591006 113 139 C108.44880657 136.12183039 104.85910766 132.33377319 101.12451172 128.50024414 C99.97263062 127.35836378 98.81839562 126.21885379 97.66200256 125.08154297 C94.5356522 121.99246655 91.44483073 118.86996518 88.36035681 115.73914266 C85.12528848 112.46500373 81.86219814 109.21900148 78.60305786 105.96885681 C73.13524292 100.50732534 67.68998007 95.02407408 62.2578125 89.52709961 C55.97964841 83.17453101 49.6684437 76.85634558 43.33813846 70.55576426 C37.24529474 64.49018463 31.17534693 58.40219086 25.11590958 52.30325127 C22.53850286 49.70969481 19.95355789 47.12401429 17.36227036 44.54432869 C14.3115228 41.50502002 11.28141243 38.44651471 8.26603508 35.37212372 C7.15710669 34.24784013 6.04134254 33.13025163 4.91834068 32.02002525 C-4.62177178 22.57427109 -4.62177178 22.57427109 -4.70016479 17.49534607 C-4.46911041 16.34188187 -4.23805603 15.18841766 -4 14 C-3.79503906 12.81535156 -3.59007812 11.63070313 -3.37890625 10.41015625 C-3.10949219 9.30542969 -2.84007812 8.20070313 -2.5625 7.0625 C-2.29566406 5.93972656 -2.02882812 4.81695312 -1.75390625 3.66015625 C-1 1 -1 1 0 0 Z " fill="#CACFD7" transform="translate(228,356)"/>
<path d="M0 0 C1.25901123 -0.05772079 2.51802246 -0.11544159 3.81518555 -0.1749115 C5.18400466 -0.2091312 6.5529106 -0.24001571 7.921875 -0.26782227 C8.61818024 -0.2857036 9.31448547 -0.30358494 10.03189087 -0.32200813 C13.72324153 -0.41440011 17.41365175 -0.47582204 21.10595703 -0.51269531 C24.13983625 -0.54797769 27.1640581 -0.63799726 30.19482422 -0.77929688 C54.49670581 -1.88962002 54.49670581 -1.88962002 61.27645874 2.56436157 C65.43099509 6.64619634 68.07991684 11.2895833 70.51481628 16.53694153 C72.40006788 20.31104969 74.93877546 23.56803268 77.484375 26.91577148 C81.671875 32.66696132 81.671875 32.66696132 81.671875 33.85327148 C70.13686809 33.94590105 58.60194949 34.0170008 47.06664658 34.06052017 C41.71047592 34.08140602 36.35455949 34.10974212 30.99853516 34.1550293 C25.83085884 34.19845109 20.66342723 34.22240107 15.49558258 34.23278046 C13.52275998 34.2401784 11.54995095 34.25462468 9.57723236 34.27619171 C6.81649197 34.30517692 4.0567662 34.30922953 1.29589844 34.30737305 C0.0691465 34.3289447 0.0691465 34.3289447 -1.18238831 34.35095215 C-4.79627615 34.32460985 -6.89353077 34.17713895 -9.83378601 31.98600769 C-12.75294824 27.81974888 -11.94005405 22.82669256 -11.890625 17.91577148 C-11.91447266 16.83102539 -11.93832031 15.7462793 -11.96289062 14.62866211 C-11.96095703 13.58000977 -11.95902344 12.53135742 -11.95703125 11.45092773 C-11.95775635 10.49710205 -11.95848145 9.54327637 -11.95922852 8.56054688 C-10.49466352 2.27793131 -6.00622149 0.23487818 0 0 Z " fill="#D19E6B" transform="translate(28.328125,230.146728515625)"/>
<path d="M0 0 C3.58805994 1.48832083 5.60130497 3.51557933 8.125 6.4375 C8.80820312 7.21996094 9.49140625 8.00242187 10.1953125 8.80859375 C12 11 12 11 14 14 C13.67249624 17.2383224 12.49018109 18.88275369 10.22227478 21.13848877 C9.63190933 21.73297821 9.04154388 22.32746765 8.43328857 22.93997192 C7.45685394 23.90022781 7.45685394 23.90022781 6.46069336 24.87988281 C5.77779739 25.56321686 5.09490143 26.2465509 4.39131165 26.95059204 C2.13119352 29.20861931 -0.13936701 31.45583363 -2.41015625 33.703125 C-3.97879687 35.26617075 -5.54677668 36.82987995 -7.11412048 38.39422607 C-11.24216225 42.5108106 -15.37913377 46.61830695 -19.51800537 50.72399902 C-23.73942052 54.91473249 -27.95236145 59.11396575 -32.16601562 63.3125 C-40.43572101 71.55002569 -48.71488141 79.77797878 -57 88 C-60.85027991 86.21799313 -63.2799142 83.92324595 -66.25 80.875 C-67.14203125 79.96492188 -68.0340625 79.05484375 -68.953125 78.1171875 C-69.96632813 77.06917969 -69.96632813 77.06917969 -71 76 C-66.83614522 71.07677961 -62.55190856 66.31203673 -58.125 61.625 C-57.47789062 60.93728516 -56.83078125 60.24957031 -56.1640625 59.54101562 C-54.11075323 57.35937452 -52.05539789 55.17967325 -50 53 C-47.99873885 50.87444898 -45.99802148 48.74838704 -43.99731445 46.62231445 C-42.66009511 45.20140653 -41.3226912 43.78067228 -39.98510742 42.36010742 C-35.46364562 37.55780266 -30.94814908 32.74996153 -26.4375 27.9375 C-25.83059326 27.29006836 -25.22368652 26.64263672 -24.59838867 25.97558594 C-21.3529043 22.51270276 -18.10927061 19.04809903 -14.8671875 15.58203125 C-14.18857666 14.85701416 -13.50996582 14.13199707 -12.81079102 13.38500977 C-11.51383155 11.99931514 -10.21741261 10.61311434 -8.92163086 9.22631836 C-5.99504857 6.10031516 -3.05502435 3.00195941 0 0 Z " fill="#C7CBD3" transform="translate(405,313)"/>
<path d="M0 0 C1.33494386 25.66058744 -7.83347291 53.73927458 -25 73 C-26.98 74.65 -28.96 76.3 -31 78 C-38.92 70.08 -46.84 62.16 -55 54 C-51.382405 49.7794725 -47.92664601 45.79956523 -44.03613281 41.89086914 C-43.58005142 41.43142914 -43.12397003 40.97198914 -42.65406799 40.49862671 C-41.17300594 39.00820319 -39.68833305 37.52144752 -38.203125 36.03515625 C-37.16266817 34.99148098 -36.12228448 33.94773278 -35.08197021 32.90391541 C-32.91529826 30.73129267 -30.74660726 28.5607088 -28.57666016 26.39135742 C-25.79173664 23.60653633 -23.01380323 20.81485031 -20.23750687 18.02143192 C-18.09799881 15.87084181 -15.95399831 13.72477505 -13.80867767 11.57998466 C-12.78157745 10.55170246 -11.75610284 9.5217939 -10.73227692 8.49025154 C-9.30834374 7.05657788 -7.87748808 5.62978957 -6.44628906 4.20336914 C-5.63387756 3.38953262 -4.82146606 2.57569611 -3.98443604 1.73719788 C-2 0 -2 0 0 0 Z " fill="#C7CCD3" transform="translate(438,384)"/>
<path d="M0 0 C3.0696687 1.96296717 5.51416828 4.46371747 8.05950928 7.04312134 C8.63555405 7.61887405 9.21159882 8.19462677 9.80509949 8.78782654 C11.70360246 10.6877203 13.59492731 12.59459484 15.48626709 14.50161743 C16.80290791 15.82198927 18.11999166 17.14191957 19.4375 18.46142578 C22.90084246 21.93239769 26.35813627 25.40933423 29.81420898 28.88754272 C33.34319189 32.43699878 36.87785629 35.98078694 40.41204834 39.52505493 C47.34340517 46.47784956 54.26838586 53.43695802 61.18939209 60.40005493 C57.45211825 68.04070367 57.45211825 68.04070367 54.18939209 70.40005493 C50.27129208 71.73311442 47.15087614 71.53374793 43.18939209 70.40005493 C37.58353793 66.83300181 33.11485091 61.60318076 28.55267334 56.83755493 C27.18076239 55.44510841 25.80638803 54.05508506 24.42967224 52.66738892 C20.82592456 49.02179267 17.25644031 45.34438666 13.6932373 41.65921021 C10.04617028 37.89928655 6.36746502 34.17060166 2.69134521 30.43911743 C-4.50717517 23.12289234 -11.66986373 15.77265046 -18.81060791 8.40005493 C-15.24321378 5.46680566 -12.00735897 3.3450636 -7.74810791 1.52505493 C-6.72588135 1.07388306 -5.70365479 0.62271118 -4.65045166 0.15786743 C-1.81060791 -0.59994507 -1.81060791 -0.59994507 0 0 Z " fill="#E76F80" transform="translate(124.81060791015625,144.59994506835938)"/>
<path d="M0 0 C2.74304868 2.58442585 3.89933949 4.74414733 5.1875 8.3125 C5.53167969 9.23675781 5.87585938 10.16101563 6.23046875 11.11328125 C7.11184682 14.41956751 7.42845775 16.58571114 7 20 C5.16927297 22.39192244 3.45620317 24.30485918 1.30859375 26.37255859 C0.70387238 26.97815613 0.099151 27.58375366 -0.52389526 28.20770264 C-2.52286926 30.20250215 -4.54223846 32.17521952 -6.5625 34.1484375 C-7.95385919 35.52860422 -9.34389805 36.91010314 -10.73266602 38.2928772 C-14.38896881 41.92628646 -18.06293065 45.54131781 -21.74084473 49.15283203 C-25.49169456 52.84227227 -29.2255872 56.54878602 -32.9609375 60.25390625 C-40.29078238 67.51942905 -47.6393936 74.76565231 -55 82 C-56.12565907 81.0402279 -57.25060358 80.0796177 -58.37524414 79.11865234 C-59.00177383 78.58380219 -59.62830353 78.04895203 -60.27381897 77.49789429 C-62.99873286 75.13334916 -65.48104048 72.58039756 -68 70 C-66.72829615 67.21617957 -65.41939717 65.17065422 -63.25387573 63.0133667 C-62.69579224 62.45253387 -62.13770874 61.89170105 -61.56271362 61.31387329 C-60.95275543 60.71110565 -60.34279724 60.10833801 -59.71435547 59.48730469 C-59.07032776 58.84298492 -58.42630005 58.19866516 -57.76275635 57.53482056 C-55.63560693 55.40906302 -53.50146388 53.29047492 -51.3671875 51.171875 C-49.88987407 49.69829219 -48.41300196 48.22426682 -46.93655396 46.74981689 C-43.05129631 42.87219179 -39.16006971 39.00061059 -35.26757812 35.13024902 C-31.29586322 31.17900061 -27.329811 27.22207739 -23.36328125 23.265625 C-15.5810588 15.50484579 -7.79252001 7.75043852 0 0 Z " fill="#E3E6EA" transform="translate(427,344)"/>
<path d="M0 0 C1.74754376 0.61569141 3.49329177 1.23648111 5.23828125 1.859375 C6.21063721 2.20452148 7.18299316 2.54966797 8.18481445 2.90527344 C11.72242067 4.28092397 14.78221912 5.99782523 18 8 C9.40801589 18.37758817 -0.24046696 27.87121858 -9.67189789 37.47939968 C-12.91747901 40.78692922 -16.14810054 44.10661632 -19.34765625 47.45874023 C-22.46179602 50.72063029 -25.6095145 53.94638751 -28.78315735 57.15037727 C-29.97868436 58.3690964 -31.1620678 59.59986251 -32.3321991 60.84298515 C-41.94670745 71.02964728 -41.94670745 71.02964728 -47.94848633 71.73635864 C-51.39214288 71.74865278 -54.60475856 71.55296434 -58 71 C-59.31536433 66.81226542 -59.69132918 63.35162241 -59 59 C-55.91946004 53.47381205 -50.73332845 49.22397107 -46.19140625 44.921875 C-44.86436 43.61910006 -43.54017318 42.31340658 -42.21873474 41.00494385 C-38.74662403 37.58227785 -35.23727763 34.20045436 -31.71850586 30.8258667 C-28.12935438 27.37012468 -24.57709388 23.87690404 -21.02148438 20.38671875 C-14.0497877 13.55410333 -7.03814991 6.76409645 0 0 Z " fill="#EC7183" transform="translate(305,144)"/>
<path d="M0 0 C4.56030824 3.80475422 8.85089392 7.74969621 13 12 C11.58261511 15.25207092 9.87473588 17.31361067 7.3125 19.75 C4.59920676 22.39009289 2.02145694 25.05914152 -0.4375 27.9375 C-3.71130653 31.74824063 -7.23363971 35.25078165 -10.80859375 38.77734375 C-13.42101068 41.4270144 -15.83302621 44.21172803 -18.25390625 47.03515625 C-20.71939574 49.80952138 -23.36912872 52.38013229 -26.015625 54.98046875 C-28.60600634 57.61674268 -30.99014777 60.40325935 -33.359375 63.23828125 C-36.48693306 66.59668289 -38.30501117 67.90071588 -42.9375 68.5625 C-46.58368601 68.41937868 -47.02813267 67.97538392 -50 65.375 C-52.21338606 61.63991102 -52.48487763 60.23601885 -52 56 C-47.62966913 48.67094384 -40.73124006 42.59262128 -34.67041016 36.63769531 C-31.13781473 33.16645494 -27.81242382 29.60129916 -24.60546875 25.82421875 C-22.19218534 23.08211814 -19.5705291 20.56175172 -16.96875 18 C-14.45544394 15.4468002 -12.14231412 12.74763583 -9.80859375 10.03125 C-6.69495355 6.53428909 -3.34860165 3.27032265 0 0 Z " fill="#F7D36E" transform="translate(250,427)"/>
<path d="M0 0 C2.84405283 1.34278057 4.49138022 3.40506649 6.55215454 5.75537109 C7.33977173 6.63966797 8.12738892 7.52396484 8.93887329 8.43505859 C10.86465454 10.88037109 10.86465454 10.88037109 11.86465454 13.88037109 C-22.14028058 52.78500928 -22.14028058 52.78500928 -34.67050171 54.40380859 C-41.02213032 54.65233103 -47.08375766 53.82614327 -53.13534546 51.88037109 C-48.01688911 45.71319849 -42.48161214 40.01131027 -36.84628296 34.31787109 C-36.36031269 33.82657715 -35.87434242 33.3352832 -35.37364578 32.82910156 C-32.81105593 30.24000039 -30.24495271 27.65443523 -27.67636108 25.07128906 C-25.55504349 22.93653348 -23.44127226 20.79469982 -21.33358765 18.64648438 C-18.77653279 16.04028919 -16.20758366 13.44641833 -13.6294136 10.8611145 C-12.65152897 9.87650546 -11.6779136 8.88763727 -10.70869064 7.89450073 C-9.35924581 6.51362161 -7.99255342 5.14966055 -6.62509155 3.78662109 C-5.85265106 3.00609375 -5.08021057 2.22556641 -4.28436279 1.42138672 C-2.13534546 -0.11962891 -2.13534546 -0.11962891 0 0 Z " fill="#E45161" transform="translate(337.1353454589844,163.11962890625)"/>
<path d="M0 0 C3.73546131 1.55931941 6.10801519 3.86039128 8.95214844 6.70922852 C9.4306575 7.18583923 9.90916656 7.66244995 10.4021759 8.15350342 C11.97616496 9.72379955 13.54285853 11.30115822 15.109375 12.87890625 C16.20188527 13.97260887 17.29476574 15.06594183 18.38800049 16.15892029 C20.67405274 18.44653464 22.95671102 20.7374644 25.23681641 23.03100586 C28.16632047 25.97754963 31.1024149 28.91741713 34.0408287 31.85507298 C36.29553324 34.11004869 38.54762792 36.36761533 40.79883575 38.62608147 C41.88116338 39.71160034 42.96410576 40.7965066 44.04766083 41.88080025 C45.55612417 43.39141949 47.06125564 44.90527735 48.56542969 46.42016602 C49.4238446 47.28239273 50.28225952 48.14461945 51.16668701 49.03297424 C53 51 53 51 53 52 C42.23056554 53.57672321 30.52003583 55.20547411 21.29199219 48.4375 C15.85522637 43.72034152 11.11732368 38.3993639 6.375 33 C4.66909307 31.16336851 2.95687753 29.33257563 1.23828125 27.5078125 C-2.91619948 23.06982565 -6.98736634 18.5664368 -11 14 C-9.69717056 10.60399744 -8.47780693 8.04738953 -6.0625 5.3125 C-5.30646484 4.44044922 -5.30646484 4.44044922 -4.53515625 3.55078125 C-3 2 -3 2 0 0 Z " fill="#E95363" transform="translate(92,163)"/>
<path d="M0 0 C-4.62491379 5.55439924 -9.55360964 10.68525669 -14.6796875 15.77734375 C-15.49245148 16.58869278 -16.30521545 17.40004181 -17.14260864 18.23597717 C-19.71771738 20.8055259 -22.2962962 23.37155968 -24.875 25.9375 C-26.63043946 27.68791929 -28.38565017 29.438568 -30.140625 31.18945312 C-34.42444082 35.46229302 -38.71110472 39.73225899 -43 44 C-46.07088332 42.46455834 -46.84397941 39.48813165 -48.25 36.5 C-51.06878771 30.66540051 -54.19820125 25.26402904 -58 20 C-41.42380988 5.01767431 -22.08190389 -0.97300923 0 0 Z " fill="#EA5464" transform="translate(284,141)"/>
<path d="M0 0 C5.22948744 4.37029366 10.10289955 8.96911804 14.90234375 13.8046875 C15.6249086 14.5286673 16.34747345 15.25264709 17.0919342 15.99856567 C19.37616922 18.28835265 21.65688312 20.58160993 23.9375 22.875 C25.49521039 24.43773161 27.05315087 26.0002339 28.61132812 27.5625 C32.41021602 31.3723531 36.20622713 35.18505379 40 39 C38.5157197 42.12337523 37.01930954 44.17662847 34.5 46.5625 C32.27903267 48.67524223 30.72257583 50.41613626 29 53 C25.74951878 51.57130314 23.57047808 49.82775708 21.05761719 47.33227539 C20.29713074 46.58132095 19.53664429 45.83036652 18.75311279 45.05665588 C17.94255432 44.245186 17.13199585 43.43371613 16.296875 42.59765625 C15.45908508 41.76415146 14.62129517 40.93064667 13.75811768 40.07188416 C11.9904924 38.30999846 10.22547763 36.54549043 8.46289062 34.77856445 C5.75518519 32.06769126 3.03441637 29.3704232 0.3125 26.67382812 C-1.40185185 24.96174838 -3.11542079 23.24888424 -4.828125 21.53515625 C-5.6467804 20.7257106 -6.46543579 19.91626495 -7.30889893 19.08229065 C-8.05677673 18.32818405 -8.80465454 17.57407745 -9.57519531 16.79711914 C-10.23819641 16.13474747 -10.90119751 15.47237579 -11.58428955 14.78993225 C-13 13 -13 13 -13 10 C-10.86974265 8.14187717 -8.7760903 6.47106476 -6.5 4.8125 C-5.87996094 4.34908203 -5.25992187 3.88566406 -4.62109375 3.40820312 C-3.08707119 2.2635863 -1.54433057 1.13067059 0 0 Z " fill="#C9CED6" transform="translate(270,299)"/>
<path d="M0 0 C3.25763629 1.42999927 5.43035227 3.17756322 7.94238281 5.68359375 C9.08311249 6.81486694 9.08311249 6.81486694 10.24688721 7.96899414 C11.05744568 8.78360107 11.86800415 9.59820801 12.703125 10.4375 C13.54091492 11.27337646 14.37870483 12.10925293 15.24188232 12.97045898 C17.00941903 14.73663557 18.77443602 16.50533688 20.53710938 18.27636719 C23.24648274 20.99646881 25.96637765 23.70571999 28.6875 26.4140625 C30.40168357 28.12956717 32.1152469 29.84569186 33.828125 31.5625 C35.05610809 32.7844104 35.05610809 32.7844104 36.30889893 34.03100586 C37.43071564 35.16227905 37.43071564 35.16227905 38.57519531 36.31640625 C39.23819641 36.98099854 39.90119751 37.64559082 40.58428955 38.33032227 C42 40 42 40 42 42 C36.69886385 42.22059344 32.11084824 41.52004693 27.0625 40 C26.3288623 39.78069824 25.59522461 39.56139648 24.83935547 39.33544922 C10.45730509 34.80622719 -3.74583572 27.03749787 -15 17 C-10.10995345 11.23225279 -5.07515796 5.60523001 0 0 Z " fill="#DFE2E6" transform="translate(274,452)"/>
<path d="M0 0 C2.28338691 1.94299261 4.32295783 3.85660865 6.39453125 6.00390625 C6.98674973 6.60178452 7.5789682 7.19966278 8.18913269 7.81565857 C10.07320469 9.72207017 11.94287154 11.64193191 13.8125 13.5625 C15.08956854 14.85963653 16.36755339 16.15587162 17.64648438 17.45117188 C20.77504052 20.62376337 23.89075189 23.80848828 27 27 C25.4300958 31.25983888 23.67222355 33.65658603 20.375 36.8125 C19.55773437 37.60269531 18.74046875 38.39289063 17.8984375 39.20703125 C17.27195312 39.79871094 16.64546875 40.39039063 16 41 C12.95418514 39.63886987 10.86160974 38.10669904 8.51660156 35.74365234 C7.85621887 35.08311859 7.19583618 34.42258484 6.51544189 33.74203491 C5.81425232 33.03052277 5.11306274 32.31901062 4.390625 31.5859375 C3.66381531 30.85629791 2.93700562 30.12665833 2.18817139 29.37490845 C-0.12929198 27.0462612 -2.4396995 24.71075174 -4.75 22.375 C-6.32115444 20.79381347 -7.89276371 19.21307875 -9.46484375 17.6328125 C-13.31518653 13.7604331 -17.15976117 9.88239829 -21 6 C-17.78680923 3.48798643 -14.94342726 2.06158702 -11.0625 0.75 C-9.53302734 0.21632813 -9.53302734 0.21632813 -7.97265625 -0.328125 C-4.61200843 -1.08769323 -3.25338129 -1.099582 0 0 Z " fill="#E2E5E9" transform="translate(307,285)"/>
<path d="M0 0 C16.97965143 -0.5431879 29.64974167 2.88979151 45 10 C45 13 45 13 43.53125 14.80932617 C42.52578125 15.79122925 42.52578125 15.79122925 41.5 16.79296875 C40.778125 17.50517578 40.05625 18.21738281 39.3125 18.95117188 C38.549375 19.68916016 37.78625 20.42714844 37 21.1875 C36.236875 21.93708984 35.47375 22.68667969 34.6875 23.45898438 C32.79819161 25.31286823 30.90224794 27.15941069 29 29 C23.01472264 24.07242944 17.53689775 18.69051775 12.07250977 13.20288086 C10.54492879 11.66986628 9.01197919 10.14236233 7.47851562 8.61523438 C6.50749107 7.64355027 5.53677608 6.67155669 4.56640625 5.69921875 C3.68927979 4.82096436 2.81215332 3.94270996 1.90844727 3.0378418 C0 1 0 1 0 0 Z " fill="#E95363" transform="translate(145,141)"/>
<path d="M0 0 C2.5163909 1.47870393 4.16360285 3.22660723 6.08203125 5.42578125 C7.12423828 6.59560547 7.12423828 6.59560547 8.1875 7.7890625 C9.90242194 10.12402487 10.66868556 11.25752188 10.89453125 14.11328125 C9.44750977 16.12792969 9.44750977 16.12792969 7.2734375 18.22265625 C6.50322266 18.97675781 5.73300781 19.73085937 4.93945312 20.5078125 C3.7106543 21.67376953 3.7106543 21.67376953 2.45703125 22.86328125 C1.64169922 23.65605469 0.82636719 24.44882813 -0.01367188 25.265625 C-2.03357267 27.22646437 -4.06419003 29.17474615 -6.10546875 31.11328125 C-9.95574866 29.33127438 -12.38538295 27.0365272 -15.35546875 23.98828125 C-16.2475 23.07820313 -17.13953125 22.168125 -18.05859375 21.23046875 C-18.7340625 20.53179687 -19.40953125 19.833125 -20.10546875 19.11328125 C-16.26573313 14.42027105 -12.18649979 9.97783748 -7.98046875 5.61328125 C-7.20848145 4.78425293 -7.20848145 4.78425293 -6.42089844 3.93847656 C-2.70978014 0.14579522 -2.70978014 0.14579522 0 0 Z " fill="#EA7082" transform="translate(205.10546875,162.88671875)"/>
<path d="M0 0 C3.22499001 2.94580354 4.0136326 5.58927589 5.1875 9.8125 C5.53167969 11.01519531 5.87585938 12.21789062 6.23046875 13.45703125 C7 17 7 17 7 23 C-2.57 23 -12.14 23 -22 23 C-15.25 15.125 -15.25 15.125 -11.9140625 11.81640625 C-11.21152344 11.11708984 -10.50898438 10.41777344 -9.78515625 9.69726562 C-9.07230469 8.99279297 -8.35945313 8.28832031 -7.625 7.5625 C-6.88894531 6.83095703 -6.15289062 6.09941406 -5.39453125 5.34570312 C-3.59863926 3.56147277 -1.80044015 1.77963876 0 0 Z " fill="#E46E7F" transform="translate(356,192)"/>
<path d="M0 0 C3.31271956 2.98909888 4.13929332 6.14954428 5.1875 10.375 C5.36474609 11.035 5.54199219 11.695 5.72460938 12.375 C6.69090083 16.12077846 7 19.07108419 7 23 C-2.57 23 -12.14 23 -22 23 C-15.25 15.125 -15.25 15.125 -11.9140625 11.81640625 C-11.21152344 11.11708984 -10.50898438 10.41777344 -9.78515625 9.69726562 C-9.07230469 8.99279297 -8.35945312 8.28832031 -7.625 7.5625 C-6.88894531 6.83095703 -6.15289062 6.09941406 -5.39453125 5.34570312 C-3.59863926 3.56147277 -1.80044015 1.77963876 0 0 Z " fill="#E45161" transform="translate(224,192)"/>
<path d="M0 0 C8.78892742 -0.29368941 17.26958555 -0.26122878 25.9375 1.375 C26.61683594 1.50108643 27.29617188 1.62717285 27.99609375 1.75708008 C31.07352759 2.38888418 32.73400276 2.73400276 35 5 C34.15695312 5.83144531 33.31390625 6.66289062 32.4453125 7.51953125 C31.33840925 8.61705397 30.2316457 9.71471759 29.125 10.8125 C28.56941406 11.35970703 28.01382812 11.90691406 27.44140625 12.47070312 C26.90644531 13.00244141 26.37148438 13.53417969 25.8203125 14.08203125 C25.08192139 14.81256714 25.08192139 14.81256714 24.32861328 15.55786133 C22.77411511 17.17003501 22.77411511 17.17003501 21 20 C17.65215892 18.5450489 15.45622627 16.70194509 12.890625 14.12109375 C12.13652344 13.36505859 11.38242187 12.60902344 10.60546875 11.83007812 C9.82816406 11.04052734 9.05085938 10.25097656 8.25 9.4375 C7.45722656 8.64408203 6.66445313 7.85066406 5.84765625 7.03320312 C0 1.14025522 0 1.14025522 0 0 Z " fill="#C5CAD1" transform="translate(326,281)"/>
<path d="M0 0 C5.03830318 4.21044335 9.72106922 8.62243483 14.3125 13.3125 C15.53542986 14.56088106 16.76058417 15.80708812 17.98828125 17.05078125 C18.51977783 17.59387939 19.05127441 18.13697754 19.59887695 18.6965332 C20.98758593 20.11120524 20.98758593 20.11120524 23 21 C23 21.66 23 22.32 23 23 C13.76 23 4.52 23 -5 23 C-5 16.7500306 -4.78518451 13.25778082 -3.0625 7.5625 C-2.52302734 5.73912109 -2.52302734 5.73912109 -1.97265625 3.87890625 C-1 1 -1 1 0 0 Z " fill="#E76F80" transform="translate(72,192)"/>
<path d="M0 0 C4.91935902 4.11619836 9.52647956 8.40410362 14 13 C12.60846256 17.42761914 10.47928514 19.9556255 7 23 C6.34 23 5.68 23 5 23 C2.11003121 15.29789712 0.32419014 8.23442944 0 0 Z " fill="#D6D9DD" transform="translate(224,401)"/>
</svg>
