<?xml version="1.0" encoding="UTF-8"?>
<svg version="1.1" xmlns="http://www.w3.org/2000/svg" width="474" height="474">
<path d="M0 0 C156.42 0 312.84 0 474 0 C474 156.42 474 312.84 474 474 C317.58 474 161.16 474 0 474 C0 317.58 0 161.16 0 0 Z " fill="#FEFEFE" transform="translate(0,0)"/>
<path d="M0 0 C69.96 0 139.92 0 212 0 C212 156.42 212 312.84 212 474 C119.6 474 27.2 474 -68 474 C-68 473.34 -68 472.68 -68 472 C-66.205625 471.5359375 -66.205625 471.5359375 -64.375 471.0625 C-54.2865847 467.68903625 -45.53031514 461.29526517 -39 453 C-38.01 453 -37.02 453 -36 453 C-35.39929688 453.60457031 -34.79859375 454.20914062 -34.1796875 454.83203125 C-31.65063738 457.34748433 -29.42158012 458.35796323 -26.125 459.6875 C-24.61292969 460.31205078 -24.61292969 460.31205078 -23.0703125 460.94921875 C-10.87872255 465.12165857 3.30130169 464.13601389 15 459 C28.32054969 451.85734184 36.54520357 441.99557332 42 428 C45.23438573 416.95462351 44.52497865 402.60093333 39.38671875 392.33984375 C38.40106516 390.67672685 37.37126426 389.03943151 36.3125 387.421875 C34.65282248 384.35937481 35.16178659 382.33666611 35.65625 378.9765625 C37.41827329 363.71904265 35.7373332 351.30547347 27.31640625 338.19921875 C25.75307469 335.58748086 24.95864427 332.87593281 24 330 C23.01 329.67 22.02 329.34 21 329 C21.33 328.01 21.66 327.02 22 326 C23.32 325.67 24.64 325.34 26 325 C26 252.4 26 179.8 26 105 C65.27 105 104.54 105 145 105 C145 100.05 145 95.1 145 90 C143.32035156 90.11601563 141.64070312 90.23203125 139.91015625 90.3515625 C125.27429988 91.05610714 115.80737817 90.08691171 103.96337891 81.38134766 C100.65659833 79.05484125 97.11104065 77.17801272 93.5625 75.25 C89.37487889 72.91887089 85.21669673 70.55948416 81.125 68.0625 C76.48901508 65.24162104 71.74986727 62.622398 67 60 C61.48667613 56.95409157 56.01449097 53.87227078 50.6328125 50.59765625 C39.2314977 43.67905425 27.65649843 37.06590908 16.01879883 30.55444336 C15.09349365 30.03503174 14.16818848 29.51562012 13.21484375 28.98046875 C11.99462524 28.29827271 11.99462524 28.29827271 10.74975586 27.60229492 C7.11646507 25.48516028 3.56593733 23.22871083 0 21 C0 14.07 0 7.14 0 0 Z " fill="#FEFEFE" transform="translate(262,0)"/>
<path d="M0 0 C4.95 0 9.9 0 15 0 C15 6.93 15 13.86 15 21 C16.65 21.66 18.3 22.32 20 23 C21.93530357 24.0453477 23.8521277 25.12530357 25.75390625 26.23046875 C26.85669922 26.86919922 27.95949219 27.50792969 29.09570312 28.16601562 C30.25134364 28.83977247 31.40694248 29.51360082 32.5625 30.1875 C33.67947266 30.83525391 34.79644531 31.48300781 35.94726562 32.15039062 C39.30052657 34.09625393 42.65075374 36.0472358 46 38 C47.09836182 38.64001953 48.19672363 39.28003906 49.32836914 39.93945312 C53.99464218 42.65974376 58.65744428 45.38555452 63.3125 48.125 C71.30470276 52.78975076 79.37874676 57.31097669 87.4375 61.859375 C98.28090852 67.97971498 109.07074732 74.18412199 119.796875 80.5078125 C120.47766113 80.9011377 121.15844727 81.29446289 121.85986328 81.69970703 C124 83 124 83 126.26123047 84.60888672 C133.28390036 89.40530889 139.245731 89.89368287 147.625 89.875 C148.81996094 89.895625 150.01492188 89.91625 151.24609375 89.9375 C154.16376343 89.98418271 157.08196001 89.99572761 160 90 C160 94.62 160 99.24 160 104 C120.4 104 80.8 104 40 104 C40 176.27 40 248.54 40 323 C36.5236027 321.26180135 33.75842365 319.42892822 30.68359375 317.12109375 C28.88113235 315.81448821 28.88113235 315.81448821 26 315 C26 245.37 26 175.74 26 104 C22.37 104 18.74 104 15 104 C15 172.31 15 240.62 15 311 C10.05 310.67 5.1 310.34 0 310 C0 242.02 0 174.04 0 104 C-11.55 104 -23.1 104 -35 104 C-35 127.76 -35 151.52 -35 176 C-48.53 176 -62.06 176 -76 176 C-75.67 183.26 -75.34 190.52 -75 198 C-75.66 198 -76.32 198 -77 198 C-77 198.66 -77 199.32 -77 200 C-75.73293213 199.99476318 -74.46586426 199.98952637 -73.16040039 199.98413086 C-68.4771393 199.96608486 -63.79388129 199.95456947 -59.1105957 199.94506836 C-57.08031702 199.94002722 -55.05004198 199.93319443 -53.01977539 199.92456055 C-50.10822653 199.91248533 -47.1967255 199.90676966 -44.28515625 199.90234375 C-42.91485008 199.89460182 -42.91485008 199.89460182 -41.51686096 199.88670349 C-39.34424573 199.88650832 -37.17172704 199.93788195 -35 200 C-32.88094895 202.11905105 -33.74063219 206.80578178 -33.68359375 209.7421875 C-33.66281265 210.62149933 -33.64203156 211.50081116 -33.62062073 212.4067688 C-33.55503092 215.22943008 -33.49623864 218.05218865 -33.4375 220.875 C-33.39431689 222.77214541 -33.35070268 224.66928105 -33.30664062 226.56640625 C-33 239.98354964 -33 239.98354964 -33 244 C-32.401875 244.886875 -31.80375 245.77375 -31.1875 246.6875 C-27.85815358 251.72908172 -25.42154379 256.82980042 -26 263 C-25.34 263 -24.68 263 -24 263 C-23.42054578 280.12331801 -23.66208293 295.624033 -29 312 C-32.53074816 311.45406919 -33.93207853 311.05433717 -36.8125 308.75 C-49.13748459 299.71694506 -66.51194543 299.09742019 -81.08642578 301.31787109 C-94.76628966 304.1301832 -107.18728584 312.89787036 -114.875 324.4375 C-117.71512297 329.15566253 -119.52435905 333.70505307 -121 339 C-121.92941406 339.06058594 -122.85882813 339.12117188 -123.81640625 339.18359375 C-125.67072266 339.30927734 -125.67072266 339.30927734 -127.5625 339.4375 C-128.78066406 339.51871094 -129.99882812 339.59992188 -131.25390625 339.68359375 C-135.00195312 339.90098172 -135.00195312 339.90098172 -138.56640625 340.8828125 C-142 341 -142 341 -145.2109375 338.74609375 C-146.29048578 337.66755236 -147.34420899 336.56273149 -148.375 335.4375 C-148.93372803 334.85121826 -149.49245605 334.26493652 -150.06811523 333.66088867 C-163.98236058 318.60858624 -171.95367472 299.81835905 -171.28125 279.11328125 C-170.17518092 266.86971105 -166.97031474 256.19527203 -162 245 C-163.65 245.33 -165.3 245.66 -167 246 C-166.67 245.01 -166.34 244.02 -166 243 C-165.01 243 -164.02 243 -163 243 C-161.77174961 239.20584266 -161.89069918 235.45913192 -161.9375 231.51953125 C-161.94619485 229.96565838 -161.95473233 228.41178463 -161.96313477 226.85791016 C-161.96934845 226.03607239 -161.97556213 225.21423462 -161.98196411 224.36749268 C-162.09316957 208.61395118 -161.93613583 192.87420483 -161.5625 177.125 C-161.54276123 176.21738922 -161.52302246 175.30977844 -161.50268555 174.37466431 C-161.44610103 171.81470959 -161.38259532 169.25503481 -161.31640625 166.6953125 C-161.29969376 165.92737869 -161.28298126 165.15944489 -161.26576233 164.36824036 C-161.11528945 159.11528945 -161.11528945 159.11528945 -160 158 C-157.22119973 157.83781171 -154.46525872 157.73959307 -151.68359375 157.68359375 C-150.8157576 157.66276733 -149.94792145 157.64194092 -149.05378723 157.6204834 C-146.1817868 157.55383919 -143.30969219 157.49524812 -140.4375 157.4375 C-139.46268677 157.41632111 -138.48787354 157.39514221 -137.48352051 157.37332153 C-116.9850916 156.93013834 -96.50340687 156.92571229 -76 157 C-76 140.83 -76 124.66 -76 108 C-76.99 108 -77.98 108 -79 108 C-79 108.66 -79 109.32 -79 110 C-79.66 110 -80.32 110 -81 110 C-81.33 109.01 -81.66 108.02 -82 107 C-83.66464294 107.00333092 -83.66464294 107.00333092 -85.36291504 107.00672913 C-95.83831667 107.02703002 -106.3137143 107.0420056 -116.78913116 107.05181217 C-122.17420778 107.05702335 -127.55926848 107.06408891 -132.94433594 107.07543945 C-138.14442602 107.0863311 -143.34450082 107.09229013 -148.54460144 107.09487724 C-150.52524557 107.09672019 -152.50588889 107.10031896 -154.48652649 107.10573006 C-157.26772854 107.11302383 -160.048868 107.11398743 -162.83007812 107.11352539 C-163.64288239 107.11712067 -164.45568665 107.12071594 -165.29312134 107.12442017 C-166.44552811 107.12235817 -166.44552811 107.12235817 -167.62121582 107.12025452 C-168.27753242 107.12117631 -168.93384903 107.1220981 -169.61005402 107.12304783 C-173.08893447 106.94393554 -176.54341167 106.43207354 -180 106 C-180 100.39 -180 94.78 -180 89 C-177.3381665 89.01740234 -177.3381665 89.01740234 -174.62255859 89.03515625 C-168.70305522 89.06435307 -162.78455314 89.05609279 -156.86513329 89.02334595 C-153.28237641 89.00485376 -149.70086749 89.00054577 -146.11816406 89.03076172 C-124.17377617 89.56248927 -124.17377617 89.56248927 -105 80 C-104.01 79.67 -103.02 79.34 -102 79 C-101.5771875 78.5565625 -101.154375 78.113125 -100.71875 77.65625 C-98.30711253 75.33230844 -95.45672932 74.00500534 -92.5 72.5 C-79.40806423 65.67517163 -66.76077811 58.04910557 -54.04760742 50.55029297 C-48.756176 47.4330422 -43.42935236 44.38189276 -38.08984375 41.34765625 C-34.71473752 39.41939992 -31.358524 37.45975975 -28.00390625 35.49609375 C-26.93406494 34.86993164 -25.86422363 34.24376953 -24.76196289 33.59863281 C-22.62346554 32.34572081 -20.48589848 31.09121931 -18.34936523 29.83496094 C-4.97496089 22 -4.97496089 22 -2 22 C-2 21.34 -2 20.68 -2 20 C-1.34 20 -0.68 20 0 20 C0 13.4 0 6.8 0 0 Z M-182 106 C-181.34 106.33 -180.68 106.66 -180 107 C-180.99 107 -181.98 107 -183 107 C-182.67 106.67 -182.34 106.34 -182 106 Z " fill="#15BDF7" transform="translate(247,0)"/>
<path d="M0 0 C2.14399543 1.8549585 4.18117461 3.73641684 6.1484375 5.77734375 C7.97829297 7.25695808 7.97829297 7.25695808 10.48828125 6.8125 C12.78281539 6.07025567 14.71246036 5.23410106 16.8125 4.0625 C28.9017508 -2.08268294 43.07530572 -1.43958814 55.75 2.6796875 C69.23495887 8.15795204 79.0860389 17.76940754 85 31 C85.3403125 31.75539063 85.680625 32.51078125 86.03125 33.2890625 C89.47203265 42.56006018 89.03307692 54.32773078 87.125 63.9375 C86.40451827 68.8175629 88.94529479 72.29708784 91.45703125 76.32421875 C96.83431555 85.64938266 96.55016364 98.73997653 94.59716797 109.14648438 C92.60645814 116.48088017 88.57844641 123.00469421 84 129 C83.4121875 129.81339844 82.824375 130.62679687 82.21875 131.46484375 C74.74317395 140.00647906 62.22234568 146.1514714 51.02050781 147.18212891 C38.11214216 147.9201837 27.08225396 146.0703341 16 139 C15.67 138.01 15.34 137.02 15 136 C11.84775662 137.62115374 9.99782031 139.00277171 7.78515625 141.81640625 C4.89169806 145.37111852 1.55361214 147.52080958 -2.375 149.8125 C-3.00921875 150.20630859 -3.6434375 150.60011719 -4.296875 151.00585938 C-8.57984586 153.55379 -12.02949911 154.60826802 -17 155 C-17 155.66 -17 156.32 -17 157 C-25.25 157 -33.5 157 -42 157 C-42 156.34 -42 155.68 -42 155 C-42.89138672 154.814375 -42.89138672 154.814375 -43.80078125 154.625 C-55.08781923 151.81640579 -64.2663126 144.4001601 -71 135 C-72.21484375 132.23046875 -72.21484375 132.23046875 -73 130 C-73.60360352 130.02094727 -74.20720703 130.04189453 -74.82910156 130.06347656 C-92.93814019 130.60888794 -106.42942141 129.14226615 -120.125 116.3125 C-129.40378652 106.55313888 -135.10122387 94.96717957 -135.375 81.375 C-134.75885295 65.33592207 -129.74413124 53.20394122 -118 42 C-105.71052383 31.26117337 -93.72075265 29.6565855 -78 30 C-77.95875 28.88625 -77.9175 27.7725 -77.875 26.625 C-76.50581768 16.11560061 -67.66560947 6.84865829 -59.9140625 0.21484375 C-58 -1 -58 -1 -55 -1 C-55 -1.66 -55 -2.32 -55 -3 C-36.66352071 -11.74378411 -17.22128749 -11.52501548 0 0 Z " fill="#14BEF8" transform="translate(211,317)"/>
<path d="M0 0 C19.8 0 39.6 0 60 0 C60 0.33 60 0.66 60 1 C40.53 1 21.06 1 1 1 C1 5.62 1 10.24 1 15 C35.98 15 70.96 15 107 15 C107 38.76 107 62.52 107 87 C106.01 87 105.02 87 104 87 C104.33 94.26 104.66 101.52 105 109 C104.34 109 103.68 109 103 109 C103 109.66 103 110.32 103 111 C104.26706787 110.99476318 105.53413574 110.98952637 106.83959961 110.98413086 C111.5228607 110.96608486 116.20611871 110.95456947 120.8894043 110.94506836 C122.91968298 110.94002722 124.94995802 110.93319443 126.98022461 110.92456055 C129.89177347 110.91248533 132.8032745 110.90676966 135.71484375 110.90234375 C137.08514992 110.89460182 137.08514992 110.89460182 138.48313904 110.88670349 C140.65575427 110.88650832 142.82827296 110.93788195 145 111 C147.11905105 113.11905105 146.25936781 117.80578178 146.31640625 120.7421875 C146.33718735 121.62149933 146.35796844 122.50081116 146.37937927 123.4067688 C146.44496908 126.22943008 146.50376136 129.05218865 146.5625 131.875 C146.60568311 133.77214541 146.64929732 135.66928105 146.69335938 137.56640625 C147 150.98354964 147 150.98354964 147 155 C147.598125 155.886875 148.19625 156.77375 148.8125 157.6875 C152.14184642 162.72908172 154.57845621 167.82980042 154 174 C154.66 174 155.32 174 156 174 C156.57945422 191.12331801 156.33791707 206.624033 151 223 C147.46925184 222.45406919 146.06792147 222.05433717 143.1875 219.75 C130.86251541 210.71694506 113.48805457 210.09742019 98.91357422 212.31787109 C85.23371034 215.1301832 72.81271416 223.89787036 65.125 235.4375 C62.28487703 240.15566253 60.47564095 244.70505307 59 250 C58.07058594 250.06058594 57.14117187 250.12117187 56.18359375 250.18359375 C54.94738281 250.26738281 53.71117187 250.35117187 52.4375 250.4375 C51.21933594 250.51871094 50.00117187 250.59992188 48.74609375 250.68359375 C44.99804688 250.90098172 44.99804688 250.90098172 41.43359375 251.8828125 C38 252 38 252 34.7890625 249.74609375 C33.70951422 248.66755236 32.65579101 247.56273149 31.625 246.4375 C31.06627197 245.85121826 30.50754395 245.26493652 29.93188477 244.66088867 C16.01763942 229.60858624 8.04632528 210.81835905 8.71875 190.11328125 C9.82481908 177.86971105 13.02968526 167.19527203 18 156 C16.35 156.33 14.7 156.66 13 157 C13.33 156.01 13.66 155.02 14 154 C14.99 154 15.98 154 17 154 C18.22825039 150.20584266 18.10930082 146.45913192 18.0625 142.51953125 C18.05380515 140.96565838 18.04526767 139.41178463 18.03686523 137.85791016 C18.03065155 137.03607239 18.02443787 136.21423462 18.01803589 135.36749268 C17.90683043 119.61395118 18.06386417 103.87420483 18.4375 88.125 C18.45723877 87.21738922 18.47697754 86.30977844 18.49731445 85.37466431 C18.55389897 82.81470959 18.61740468 80.25503481 18.68359375 77.6953125 C18.70866249 76.54341179 18.70866249 76.54341179 18.73423767 75.36824036 C18.88471055 70.11528945 18.88471055 70.11528945 20 69 C22.77880027 68.83781171 25.53474128 68.73959307 28.31640625 68.68359375 C29.61816048 68.65235413 29.61816048 68.65235413 30.94621277 68.6204834 C33.8182132 68.55383919 36.69030781 68.49524812 39.5625 68.4375 C40.53731323 68.41632111 41.51212646 68.39514221 42.51647949 68.37332153 C63.0149084 67.93013834 83.49659313 67.92571229 104 68 C104 51.83 104 35.66 104 19 C103.01 19 102.02 19 101 19 C101 19.66 101 20.32 101 21 C100.34 21 99.68 21 99 21 C98.505 19.515 98.505 19.515 98 18 C96.33535706 18.00333092 96.33535706 18.00333092 94.63708496 18.00672913 C84.16168333 18.02703002 73.6862857 18.0420056 63.21086884 18.05181217 C57.82579222 18.05702335 52.44073152 18.06408891 47.05566406 18.07543945 C41.85557398 18.0863311 36.65549918 18.09229013 31.45539856 18.09487724 C29.47475443 18.09672019 27.49411111 18.10031896 25.51347351 18.10573006 C22.73227146 18.11302383 19.951132 18.11398743 17.16992188 18.11352539 C16.35711761 18.11712067 15.54431335 18.12071594 14.70687866 18.12442017 C13.55447189 18.12235817 13.55447189 18.12235817 12.37878418 18.12025452 C11.72246758 18.12117631 11.06615097 18.1220981 10.38994598 18.12304783 C6.91106553 17.94393554 3.45658833 17.43207354 0 17 C0 11.39 0 5.78 0 0 Z M-2 17 C-1.34 17.33 -0.68 17.66 0 18 C-0.99 18 -1.98 18 -3 18 C-2.67 17.67 -2.34 17.34 -2 17 Z " fill="#D7F8FC" transform="translate(67,89)"/>
<path d="M0 0 C42.57 0 85.14 0 129 0 C134.46752259 13.12205422 137.55049321 21.74566785 137.4375 35.625 C137.43427734 36.85379883 137.43105469 38.08259766 137.42773438 39.34863281 C137.28409593 48.74704478 136.09031761 57.11533688 133 66 C129.46925184 65.45406919 128.06792147 65.05433717 125.1875 62.75 C112.86251541 53.71694506 95.48805457 53.09742019 80.91357422 55.31787109 C67.23371034 58.1301832 54.81271416 66.89787036 47.125 78.4375 C44.28487703 83.15566253 42.47564095 87.70505307 41 93 C40.07058594 93.06058594 39.14117187 93.12117188 38.18359375 93.18359375 C36.94738281 93.26738281 35.71117187 93.35117187 34.4375 93.4375 C33.21933594 93.51871094 32.00117187 93.59992188 30.74609375 93.68359375 C26.99804688 93.90098172 26.99804688 93.90098172 23.43359375 94.8828125 C20 95 20 95 16.7890625 92.74609375 C15.70951422 91.66755236 14.65579101 90.56273149 13.625 89.4375 C13.06627197 88.85121826 12.50754395 88.26493652 11.93188477 87.66088867 C-1.98061581 72.61047371 -9.95451951 53.820225 -9.28125 33.1171875 C-8.16609428 20.75754489 -5.04783188 11.77827438 0 0 Z " fill="#14BDF8" transform="translate(85,246)"/>
<path d="M0 0 C0.66 0 1.32 0 2 0 C2 6.93 2 13.86 2 21 C4.475 21.99 4.475 21.99 7 23 C8.93530357 24.0453477 10.8521277 25.12530357 12.75390625 26.23046875 C13.85669922 26.86919922 14.95949219 27.50792969 16.09570312 28.16601562 C17.25134364 28.83977247 18.40694248 29.51360082 19.5625 30.1875 C21.23795898 31.15913086 21.23795898 31.15913086 22.94726562 32.15039062 C26.30052657 34.09625393 29.65075374 36.0472358 33 38 C34.09836182 38.64001953 35.19672363 39.28003906 36.32836914 39.93945312 C40.99464218 42.65974376 45.65744428 45.38555452 50.3125 48.125 C58.30470276 52.78975076 66.37874676 57.31097669 74.4375 61.859375 C85.28090852 67.97971498 96.07074732 74.18412199 106.796875 80.5078125 C107.47766113 80.9011377 108.15844727 81.29446289 108.85986328 81.69970703 C111 83 111 83 113.26123047 84.60888672 C120.28390036 89.40530889 126.245731 89.89368287 134.625 89.875 C135.81996094 89.895625 137.01492188 89.91625 138.24609375 89.9375 C141.16376343 89.98418271 144.08196001 89.99572761 147 90 C147 94.62 147 99.24 147 104 C107.4 104 67.8 104 27 104 C27 176.27 27 248.54 27 323 C23.5236027 321.26180135 20.75842365 319.42892822 17.68359375 317.12109375 C15.88113235 315.81448821 15.88113235 315.81448821 13 315 C13 245.37 13 175.74 13 104 C7.72 104 2.44 104 -3 104 C-2.67 103.01 -2.34 102.02 -2 101 C-2.66 100.67 -3.32 100.34 -4 100 C-4 99.34 -4 98.68 -4 98 C-2.02 98 -0.04 98 2 98 C2 97.34 2 96.68 2 96 C1.34 96 0.68 96 0 96 C0 95.34 0 94.68 0 94 C0.804375 93.690625 1.60875 93.38125 2.4375 93.0625 C4.89080405 92.23664655 4.89080405 92.23664655 6 91 C8.57506203 90.88025828 11.1245227 90.82455925 13.70092773 90.81054688 C14.50740753 90.80225357 15.31388733 90.79396027 16.14480591 90.78541565 C17.90180402 90.76797587 19.6588259 90.75281991 21.41586113 90.73963928 C24.19316173 90.71867779 26.97034301 90.6916496 29.74757385 90.66296387 C35.64417045 90.60315901 41.54082205 90.55106022 47.4375 90.5 C54.26441423 90.44084634 61.09126982 90.37858639 67.91807747 90.30812073 C70.66016401 90.28147765 73.40225619 90.26070303 76.14439392 90.2401123 C77.81949139 90.22351284 79.4945862 90.20664131 81.16967773 90.18945312 C81.93702744 90.18526871 82.70437714 90.18108429 83.49497986 90.17677307 C87.37548152 90.20237786 87.37548152 90.20237786 91 89 C89.824375 88.443125 89.824375 88.443125 88.625 87.875 C84.89711046 86.01542044 81.38002777 83.83622117 77.82202148 81.67407227 C75.2105486 80.12490109 72.57331634 78.66268824 69.8984375 77.2265625 C63.96170248 74.00424767 58.13440527 70.61181556 52.3125 67.1875 C45.28157588 63.06685959 38.24007845 58.97374037 31.125 55 C29.87746738 54.2997228 28.63006468 53.59921407 27.3828125 52.8984375 C25.19291164 51.66946311 23.00036331 50.44518942 20.8046875 49.2265625 C19.87914062 48.69804688 18.95359375 48.16953125 18 47.625 C17.21625 47.18414062 16.4325 46.74328125 15.625 46.2890625 C14.820625 45.65097656 14.820625 45.65097656 14 45 C14 44.01 14 43.02 14 42 C15.65 41.34 17.3 40.68 19 40 C19 39.34 19 38.68 19 38 C21.97 37.505 21.97 37.505 25 37 C16.91250602 31.49112729 8.75865841 26.37932921 0 22 C0 14.74 0 7.48 0 0 Z " fill="#14BDF7" transform="translate(260,0)"/>
<path d="M0 0 C0 17.49 0 34.98 0 53 C-29.7 53 -59.4 53 -90 53 C-90 52.34 -90 51.68 -90 51 C-87.15603089 49.3748748 -84.31204968 47.74977082 -81.46801758 46.12475586 C-78.9545704 44.68853023 -76.44142268 43.25178233 -73.9284668 41.81469727 C-67.55211522 38.16882602 -61.17304019 34.52797578 -54.78515625 30.90234375 C-41.13412635 23.14765859 -27.59984777 15.23608419 -14.16796875 7.109375 C-2.37364334 0 -2.37364334 0 0 0 Z " fill="#FAFDFD" transform="translate(247,37)"/>
<path d="M0 0 C4.12615671 1.65046268 7.61629028 3.40737309 11.4375 5.625 C12.69915106 6.35428379 13.96087157 7.08344743 15.22265625 7.8125 C16.17615967 8.36550781 16.17615967 8.36550781 17.14892578 8.9296875 C19.88224031 10.51012154 22.62954643 12.06577056 25.375 13.625 C52.57354945 29.17580907 52.57354945 29.17580907 64.25 36.5 C69.13917869 39.55246851 74.14749969 42.18472169 79.34375 44.67578125 C83.51138911 46.75347193 86.6867825 48.6867825 90 52 C60.3 52 30.6 52 0 52 C0 34.84 0 17.68 0 0 Z " fill="#FBFEFD" transform="translate(262,38)"/>
<path d="M0 0 C2.64 0 5.28 0 8 0 C8.02333088 26.8245211 8.04098011 53.64904068 8.05181217 80.47356987 C8.05697472 92.92785862 8.06401666 105.38214107 8.07543945 117.83642578 C8.08538752 128.68796198 8.09185372 139.53949362 8.09408849 150.39103425 C8.09539539 156.14008849 8.09847993 161.8891297 8.10573006 167.63817978 C8.1124922 173.04382049 8.11461656 178.44944274 8.11310768 183.85508728 C8.11338392 185.84414393 8.11538789 187.83320117 8.11920547 189.82225418 C8.12414574 192.5278373 8.12299703 195.23334973 8.12025452 197.93893433 C8.12316736 198.73464399 8.1260802 199.53035366 8.12908131 200.35017574 C8.11412121 205.77175758 8.11412121 205.77175758 7 208 C5.0625 207.6875 5.0625 207.6875 3 207 C2.67 206.01 2.34 205.02 2 204 C1.34 203.67 0.68 203.34 0 203 C0 136.01 0 69.02 0 0 Z " fill="#FEFEFE" transform="translate(263,105)"/>
<path d="M0 0 C0.66 0 1.32 0 2 0 C2.1964031 3.29119935 2.38060745 6.58296934 2.5625 9.875 C2.64661133 11.28072266 2.64661133 11.28072266 2.73242188 12.71484375 C2.78076172 13.61074219 2.82910156 14.50664062 2.87890625 15.4296875 C2.94960327 16.67081299 2.94960327 16.67081299 3.02172852 17.93701172 C3 20 3 20 2 22 C4.97 22 7.94 22 11 22 C11 23.32 11 24.64 11 26 C9.68 26 8.36 26 7 26 C6.34 27.98 5.68 29.96 5 32 C4.505 31.01 4.505 31.01 4 30 C2.35 30 0.7 30 -1 30 C0.05875074 33.40312738 1.00902154 36.01353231 3 39 C3.26069641 41.23876953 3.26069641 41.23876953 3.2746582 43.8828125 C3.28419022 44.87394043 3.29372223 45.86506836 3.30354309 46.88623047 C3.30263168 47.95502441 3.30172028 49.02381836 3.30078125 50.125 C3.30506638 51.22344238 3.3093515 52.32188477 3.31376648 53.45361328 C3.31951185 55.77701121 3.32000853 58.10042713 3.31567383 60.42382812 C3.31251244 63.98598766 3.33597628 67.54731812 3.36132812 71.109375 C3.36360087 73.36458228 3.36430473 75.6197918 3.36328125 77.875 C3.372491 78.94379395 3.38170074 80.01258789 3.39118958 81.11376953 C3.38184639 82.60046143 3.38184639 82.60046143 3.37231445 84.1171875 C3.37294388 84.98972168 3.3735733 85.86225586 3.3742218 86.76123047 C2.91134486 89.53037643 2.15646129 90.25480854 0 92 C-2.89804952 92.29105939 -5.58035435 92.39938885 -8.47875977 92.37231445 C-9.34405304 92.37596512 -10.20934631 92.37961578 -11.1008606 92.38337708 C-13.96457467 92.39149142 -16.82772454 92.37786625 -19.69140625 92.36328125 C-21.67772928 92.3627628 -23.66405284 92.36327992 -25.65037537 92.36479187 C-29.81411392 92.36470211 -33.977659 92.35426404 -38.14135742 92.33618164 C-43.48721966 92.31347964 -48.83279944 92.31295263 -54.17869663 92.31969929 C-58.28011093 92.32303515 -62.38146044 92.31641665 -66.48286247 92.30657005 C-68.45450438 92.30271226 -70.42615349 92.30157222 -72.39779854 92.3031559 C-75.14888458 92.30352536 -77.89960367 92.29094039 -80.65063477 92.2746582 C-81.88110283 92.27837433 -81.88110283 92.27837433 -83.13642883 92.28216553 C-88.77125759 92.22874241 -88.77125759 92.22874241 -91 90 C-60.97 90 -30.94 90 0 90 C0 72.51 0 55.02 0 37 C-5.61 40.3 -11.22 43.6 -17 47 C-21.10071342 49.38138422 -25.20312142 51.75873004 -29.3125 54.125 C-30.38846436 54.74463623 -31.46442871 55.36427246 -32.57299805 56.00268555 C-34.85433695 57.31565685 -37.13599882 58.62806713 -39.41796875 59.93994141 C-41.88770551 61.3597842 -44.35632644 62.78154362 -46.82421875 64.20458984 C-50.0314575 66.05377959 -53.24067858 67.8994852 -56.45126343 69.74285889 C-57.68222786 70.45028651 -58.91256552 71.15880597 -60.14224243 71.86846924 C-61.85996822 72.85942756 -63.58032524 73.84582062 -65.30078125 74.83203125 C-66.28216064 75.39639893 -67.26354004 75.9607666 -68.2746582 76.54223633 C-70.80455478 77.89545791 -73.31527642 78.99563638 -76 80 C-76 79.34 -76 78.68 -76 78 C-77.485 77.505 -77.485 77.505 -79 77 C-78.67 76.34 -78.34 75.68 -78 75 C-77.195625 75.268125 -76.39125 75.53625 -75.5625 75.8125 C-70.42318481 76.08299027 -67.22989525 73.71653273 -63 71 C-63.33 69.35 -63.66 67.7 -64 66 C-64.99 65.67 -65.98 65.34 -67 65 C-67 64.01 -67 63.02 -67 62 C-67.33 62.66 -67.66 63.32 -68 64 C-68.99 64 -69.98 64 -71 64 C-71 64.66 -71 65.32 -71 66 C-73.01822917 66.390625 -75.03645833 66.78125 -77.0546875 67.171875 C-79.19540239 67.82610344 -79.19540239 67.82610344 -79.9375 70.03125 C-80.4634375 71.00578125 -80.4634375 71.00578125 -81 72 C-83.3828125 72.609375 -83.3828125 72.609375 -86.125 72.75 C-87.03507813 72.80671875 -87.94515625 72.8634375 -88.8828125 72.921875 C-89.58148438 72.94765625 -90.28015625 72.9734375 -91 73 C-91 73.66 -91 74.32 -91 75 C-93.97 75.495 -93.97 75.495 -97 76 C-94.27643194 73.61687794 -91.62366439 71.73012269 -88.37109375 70.1796875 C-83.81360505 67.94303626 -79.44305248 65.43758896 -75.0625 62.875 C-74.23983643 62.39635498 -73.41717285 61.91770996 -72.56958008 61.42456055 C-66.38374288 57.82124662 -60.21533416 54.18836107 -54.04931641 50.55126953 C-48.75728627 47.43374234 -43.42992328 44.3822172 -38.08984375 41.34765625 C-34.71473752 39.41939992 -31.358524 37.45975975 -28.00390625 35.49609375 C-26.93406494 34.86993164 -25.86422363 34.24376953 -24.76196289 33.59863281 C-22.62346554 32.34572081 -20.48589848 31.09121931 -18.34936523 29.83496094 C-4.97496089 22 -4.97496089 22 -2 22 C-2 21.34 -2 20.68 -2 20 C-1.34 20 -0.68 20 0 20 C0 13.4 0 6.8 0 0 Z " fill="#19BDF5" transform="translate(247,0)"/>
<path d="M0 0 C12.87 0 25.74 0 39 0 C39 12.87 39 25.74 39 39 C26.13 39 13.26 39 0 39 C0 26.13 0 13.26 0 0 Z " fill="#14BEF8" transform="translate(130,201)"/>
<path d="M0 0 C12.87 0 25.74 0 39 0 C39 12.87 39 25.74 39 39 C26.13 39 13.26 39 0 39 C0 26.13 0 13.26 0 0 Z " fill="#1DBFF7" transform="translate(173,201)"/>
<path d="M0 0 C9.3740625 -0.0309375 9.3740625 -0.0309375 18.9375 -0.0625 C20.91226318 -0.071604 22.88702637 -0.08070801 24.92163086 -0.09008789 C26.47770113 -0.09300705 28.03377216 -0.09555561 29.58984375 -0.09765625 C30.81290222 -0.1053302 30.81290222 -0.1053302 32.06066895 -0.11315918 C34.04080523 -0.1134694 36.02084654 -0.06238096 38 0 C39 1 39 1 39.11352539 4.60180664 C39.11327429 6.20459855 39.1077126 7.80739587 39.09765625 9.41015625 C39.09664917 10.15616089 39.09564209 10.90216553 39.09460449 11.67077637 C39.08935689 14.46803313 39.07539573 17.26526804 39.0625 20.0625 C39.041875 26.311875 39.02125 32.56125 39 39 C26.13 39 13.26 39 0 39 C0 26.13 0 13.26 0 0 Z " fill="#13BEF9" transform="translate(130,158)"/>
<path d="M0 0 C12.54 0 25.08 0 38 0 C38 12.87 38 25.74 38 39 C25.46 39 12.92 39 0 39 C0 26.13 0 13.26 0 0 Z " fill="#13BEF8" transform="translate(87,201)"/>
<path d="M0 0 C12.54 0 25.08 0 38 0 C38 12.87 38 25.74 38 39 C25.46 39 12.92 39 0 39 C0 26.13 0 13.26 0 0 Z " fill="#13BEF8" transform="translate(87,158)"/>
<path d="M0 0 C1.32 0.33 2.64 0.66 4 1 C4.01981934 1.89831543 4.03963867 2.79663086 4.06005859 3.72216797 C4.13809261 7.05090078 4.22478114 10.37917256 4.31738281 13.70751953 C4.35569674 15.1488374 4.39054543 16.59025168 4.421875 18.03173828 C4.46747446 20.10223886 4.52547444 22.17207433 4.5859375 24.2421875 C4.6173584 25.4885498 4.6487793 26.73491211 4.68115234 28.01904297 C4.69682309 31.11541776 4.69682309 31.11541776 7 33 C9.13252093 33.27714896 9.13252093 33.27714896 11.5703125 33.1953125 C12.46621094 33.18886719 13.36210937 33.18242187 14.28515625 33.17578125 C15.22230469 33.15902344 16.15945312 33.14226562 17.125 33.125 C18.06988281 33.11597656 19.01476562 33.10695312 19.98828125 33.09765625 C22.32577292 33.07404522 24.66276123 33.04111516 27 33 C27 33.33 27 33.66 27 34 C25.02 34 23.04 34 21 34 C21 34.66 21 35.32 21 36 C24.3 36 27.6 36 31 36 C31 35.34 31 34.68 31 34 C32.98 33.505 32.98 33.505 35 33 C35 44.88 35 56.76 35 69 C23.45 69 11.9 69 0 69 C0 46.23 0 23.46 0 0 Z " fill="#13BEF8" transform="translate(175,106)"/>
<path d="M0 0 C3.63 0 7.26 0 11 0 C11 69.63 11 139.26 11 211 C12.65 211.33 14.3 211.66 16 212 C20.455 215.465 20.455 215.465 25 219 C25 146.73 25 74.46 25 0 C64.6 0 104.2 0 145 0 C145 0.33 145 0.66 145 1 C105.73 1 66.46 1 26 1 C26 73.6 26 146.2 26 221 C24.02 221.99 24.02 221.99 22 223 C21.67 223.66 21.34 224.32 21 225 C22.32 225.33 23.64 225.66 25 226 C25.495 228.475 25.495 228.475 26 231 C25.071875 230.154375 24.14375 229.30875 23.1875 228.4375 C10.98507788 218.11425089 -2.04308072 212.95281808 -18.07421875 213.59375 C-23.16202147 214.12024899 -27.71860435 215.40813654 -32.5234375 217.125 C-35 218 -35 218 -37 218 C-37 217.34 -37 216.68 -37 216 C-36.00097656 215.72285156 -35.00195312 215.44570313 -33.97265625 215.16015625 C-32.66922209 214.79444451 -31.36583931 214.42854962 -30.0625 214.0625 C-29.0734668 213.78889648 -29.0734668 213.78889648 -28.06445312 213.50976562 C-24.76178827 212.77403899 -24.76178827 212.77403899 -22 211 C-20.58429877 210.91348389 -19.164405 210.89295096 -17.74609375 210.90234375 C-16.46508789 210.90717773 -16.46508789 210.90717773 -15.15820312 210.91210938 C-14.26037109 210.92048828 -13.36253906 210.92886719 -12.4375 210.9375 C-11.53580078 210.94201172 -10.63410156 210.94652344 -9.70507812 210.95117188 C-7.46998686 210.96299775 -5.23502563 210.9794778 -3 211 C-3 210.34 -3 209.68 -3 209 C-4.2375 209.04125 -5.475 209.0825 -6.75 209.125 C-10.01637962 209.13658291 -12.2146947 208.8568702 -15 207 C-15 206.67 -15 206.34 -15 206 C-13.62511713 205.97250234 -12.25006609 205.9533836 -10.875 205.9375 C-10.10929687 205.92589844 -9.34359375 205.91429687 -8.5546875 205.90234375 C-6 206 -6 206 0 207 C0 138.69 0 70.38 0 0 Z M1 1 C1 67.99 1 134.98 1 204 C1.66 204.33 2.32 204.66 3 205 C4.125 207.0625 4.125 207.0625 5 209 C5.99 209 6.98 209 8 209 C9.58482617 205.83034766 9.13299404 202.41902918 9.12025452 198.93893433 C9.12110894 198.09601369 9.12196337 197.25309305 9.12284368 196.38462937 C9.1244983 193.543996 9.1189774 190.70342095 9.11352539 187.86279297 C9.11324349 185.83296714 9.11340131 183.8031412 9.1139679 181.77331543 C9.11425575 176.24880779 9.10836089 170.7243217 9.10139394 165.19981909 C9.09515847 159.43156384 9.09455645 153.66330815 9.09336853 147.89505005 C9.09025579 136.96574436 9.08204316 126.03644863 9.07201904 115.10714734 C9.06085615 102.66719387 9.05534701 90.22723993 9.05032361 77.78728271 C9.0398605 52.19151627 9.02226215 26.59575869 9 1 C6.36 1 3.72 1 1 1 Z " fill="#BCF2FD" transform="translate(262,104)"/>
<path d="M0 0 C0.33 0 0.66 0 1 0 C1.34548714 6.33393082 0.29342747 11.10261508 -2 17 C-3.65 17.33 -5.3 17.66 -7 18 C-7 18.66 -7 19.32 -7 20 C-6.01 20 -5.02 20 -4 20 C-4 24 -4 24 -5 26 C-5.87398437 25.32904297 -5.87398437 25.32904297 -6.765625 24.64453125 C-19.64441703 15.14743461 -32.06523071 11.81037086 -48 13 C-52.46297664 14.02919797 -56.69484458 15.45312597 -61 17 C-62.32814491 17.35344022 -63.65965114 17.69610229 -65 18 C-65 18.66 -65 19.32 -65 20 C-66.4540625 20.680625 -66.4540625 20.680625 -67.9375 21.375 C-77.26564649 26.77550587 -83.11771763 36.19723701 -87 46 C-87.38069803 47.65648963 -87.7309909 49.32175002 -88 51 C-89.59328125 51.09087891 -89.59328125 51.09087891 -91.21875 51.18359375 C-101.63715103 51.79270238 -101.63715103 51.79270238 -112 53 C-111.505 52.5875 -111.01 52.175 -110.5 51.75 C-108.56613908 49.87797662 -108.56613908 49.87797662 -109 46 C-111.64 46 -114.28 46 -117 46 C-116.67 45.34 -116.34 44.68 -116 44 C-109.14186839 42.40508567 -101.99707158 42.91265791 -95 43 C-94.7525 41.14375 -94.7525 41.14375 -94.5 39.25 C-92.05083971 28.43287538 -83.81692621 19.32202676 -75 13 C-60.69055789 4.25995212 -44.90224748 1.29813175 -28.33935547 4.51708984 C-19.81642832 6.70907554 -13.05886959 9.77730262 -6 15 C-5.01 15.33 -4.02 15.66 -3 16 C-2.814375 14.5459375 -2.814375 14.5459375 -2.625 13.0625 C-2.00136191 8.65184223 -1.01253494 4.33522241 0 0 Z " fill="#EBFBFC" transform="translate(221,296)"/>
<path d="M0 0 C0.33 0 0.66 0 1 0 C1.14289446 5.64167095 1.28529844 11.28335398 1.42724609 16.92504883 C1.47561345 18.84464859 1.5241153 20.76424498 1.57275391 22.68383789 C1.64260575 25.44156024 1.71197537 28.19929435 1.78125 30.95703125 C1.81406067 32.24623222 1.81406067 32.24623222 1.84753418 33.56147766 C1.86755493 34.36208115 1.88757568 35.16268463 1.90820312 35.98754883 C1.92596802 36.6914827 1.94373291 37.39541656 1.96203613 38.12068176 C1.99488592 39.74683864 2 41.37351136 2 43 C2.598125 43.886875 3.19625 44.77375 3.8125 45.6875 C7.14184642 50.72908172 9.57845621 55.82980042 9 62 C9.66 62 10.32 62 11 62 C11 71.57 11 81.14 11 91 C10.67 91 10.34 91 10 91 C10.00112793 90.36723145 10.00225586 89.73446289 10.00341797 89.08251953 C9.94288463 74.53083049 8.33543209 62.52046995 3 49 C2.67 47.68 2.34 46.36 2 45 C-42.22 45 -86.44 45 -132 45 C-131.67 44.01 -131.34 43.02 -131 42 C-130.01 42 -129.02 42 -128 42 C-128 41.01 -128 40.02 -128 39 C-114.14 39 -100.28 39 -86 39 C-85.67 27.45 -85.34 15.9 -85 4 C-84.34 4 -83.68 4 -83 4 C-83 15.55 -83 27.1 -83 39 C-69.47 39 -55.94 39 -42 39 C-42 37.35 -42 35.7 -42 34 C-41.34 33.67 -40.68 33.34 -40 33 C-40 34.98 -40 36.96 -40 39 C-26.8 39 -13.6 39 0 39 C0 26.13 0 13.26 0 0 Z " fill="#F7FEFD" transform="translate(212,201)"/>
<path d="M0 0 C8.25 0 16.5 0 25 0 C25 11.22 25 22.44 25 34 C16.75 34 8.5 34 0 34 C0 22.78 0 11.56 0 0 Z " fill="#FCFDFC" transform="translate(180,104)"/>
<path d="M0 0 C5.10863896 -0.0246501 10.21724359 -0.04283607 15.32592773 -0.05493164 C17.06519168 -0.05997204 18.80445136 -0.0668043 20.54370117 -0.07543945 C23.03825937 -0.08751792 25.53276173 -0.09323108 28.02734375 -0.09765625 C28.80963852 -0.10281754 29.59193329 -0.10797882 30.39793396 -0.11329651 C32.26567114 -0.11349226 34.13329204 -0.06199694 36 0 C38.01433136 2.01433136 37.15481837 6.14027025 37.15821838 8.90284729 C37.16562535 10.15982128 37.16562535 10.15982128 37.17318195 11.44218868 C37.1886356 14.27208526 37.19693873 17.10195903 37.20532227 19.93188477 C37.21489462 21.95171309 37.22490431 23.97153938 37.23532104 25.99136353 C37.26244587 31.49318203 37.28341427 36.99500917 37.30332303 42.49685788 C37.32513602 48.23977832 37.35254756 53.98267189 37.37937927 59.72557068 C37.42936975 70.60884945 37.47428492 81.49214309 37.51740164 92.37545103 C37.56671982 104.76219704 37.62165798 117.1489161 37.67708123 129.53563607 C37.7909988 155.02373225 37.89781644 180.51185427 38 206 C41.63 206 45.26 206 49 206 C49 138.68 49 71.36 49 2 C49.33 2 49.66 2 50 2 C50 69.98 50 137.96 50 208 C45.05 207.67 40.1 207.34 35 207 C35 139.02 35 71.04 35 1 C23.45 1 11.9 1 0 1 C0 0.67 0 0.34 0 0 Z " fill="#3ABAE5" transform="translate(212,103)"/>
<path d="M0 0 C12.54 0 25.08 0 38 0 C38 12.87 38 25.74 38 39 C25.46 39 12.92 39 0 39 C0 26.13 0 13.26 0 0 Z M2 2 C2 13.55 2 25.1 2 37 C10.25 37 18.5 37 27 37 C27.02293495 32.47926628 27.04285442 27.95873379 27.05493164 23.43798828 C27.05996552 21.89956987 27.06679308 20.36115625 27.07543945 18.82275391 C27.08754639 16.61359474 27.09323769 14.40449874 27.09765625 12.1953125 C27.10281754 11.50567413 27.10797882 10.81603577 27.11329651 10.10549927 C27.16318164 6.42940345 27.16318164 6.42940345 26 3 C20.39 3 14.78 3 9 3 C9 4.32 9 5.64 9 7 C8.34 7 7.68 7 7 7 C7.33 5.35 7.66 3.7 8 2 C6.02 2 4.04 2 2 2 Z " fill="#14BDF9" transform="translate(87,201)"/>
<path d="M0 0 C12.54 0 25.08 0 38 0 C38 12.87 38 25.74 38 39 C25.46 39 12.92 39 0 39 C0 26.13 0 13.26 0 0 Z M2 3 C2 14.22 2 25.44 2 37 C10.25 37 18.5 37 27 37 C27 25.45 27 13.9 27 2 C23.6175 1.79375 20.235 1.5875 16.75 1.375 C15.16010254 1.26937744 15.16010254 1.26937744 13.53808594 1.16162109 C12.69536133 1.11602051 11.85263672 1.07041992 10.984375 1.0234375 C9.69611816 0.94488525 9.69611816 0.94488525 8.38183594 0.86474609 C5.61147799 0.86443981 5.61147799 0.86443981 2 3 Z " fill="#25BDF6" transform="translate(87,158)"/>
<path d="M0 0 C11.55 0 23.1 0 35 0 C35 67.98 35 135.96 35 206 C33.68 205.67 32.36 205.34 31 205 C31.16251975 204.34243619 31.3250395 203.68487238 31.49248409 203.00738239 C32.12059773 199.28537512 32.13475051 195.643399 32.12025452 191.88188171 C32.12153615 190.66265848 32.12153615 190.66265848 32.12284368 189.41880447 C32.12448944 186.69804442 32.11899191 183.97734616 32.11352539 181.2565918 C32.1132433 179.30514019 32.11340168 177.35368848 32.1139679 175.40223694 C32.11425501 170.10517201 32.10837215 164.80812969 32.10139394 159.51107001 C32.09514611 153.97505797 32.09455547 148.43904542 32.09336853 142.9030304 C32.09025944 132.42006559 32.08205172 121.93711119 32.07201904 111.45415097 C32.06084482 99.51955975 32.05534415 87.58496802 32.05032361 75.65037286 C32.03986877 51.1002428 32.02227748 26.55012198 32 2 C31.38155212 2.16076523 30.76310425 2.32153046 30.12591553 2.48716736 C28.00604925 2.99854074 26.06539628 3.20107747 23.890625 3.31640625 C22.75947266 3.37924805 22.75947266 3.37924805 21.60546875 3.44335938 C20.82816406 3.48267578 20.05085938 3.52199219 19.25 3.5625 C18.06083984 3.62727539 18.06083984 3.62727539 16.84765625 3.69335938 C14.89862185 3.79902991 12.94933252 3.89997966 11 4 C10.67 5.32 10.34 6.64 10 8 C9.34 8 8.68 8 8 8 C8 6.02 8 4.04 8 2 C6.02 2.33 4.04 2.66 2 3 C1.67 25.77 1.34 48.54 1 72 C0.67 72 0.34 72 0 72 C0 48.24 0 24.48 0 0 Z " fill="#DEFDFE" transform="translate(212,104)"/>
<path d="M0 0 C9.3740625 -0.0309375 9.3740625 -0.0309375 18.9375 -0.0625 C20.91226318 -0.071604 22.88702637 -0.08070801 24.92163086 -0.09008789 C26.47770113 -0.09300705 28.03377216 -0.09555561 29.58984375 -0.09765625 C30.81290222 -0.1053302 30.81290222 -0.1053302 32.06066895 -0.11315918 C34.04080523 -0.1134694 36.02084654 -0.06238096 38 0 C39 1 39 1 39.11352539 4.60180664 C39.11327429 6.20459855 39.1077126 7.80739587 39.09765625 9.41015625 C39.09664917 10.15616089 39.09564209 10.90216553 39.09460449 11.67077637 C39.08935689 14.46803313 39.07539573 17.26526804 39.0625 20.0625 C39.041875 26.311875 39.02125 32.56125 39 39 C26.13 39 13.26 39 0 39 C0 26.13 0 13.26 0 0 Z M10 2 C10 12.89 10 23.78 10 35 C10.66 35 11.32 35 12 35 C12 35.66 12 36.32 12 37 C20.25 37 28.5 37 37 37 C37 25.45 37 13.9 37 2 C28.09 2 19.18 2 10 2 Z " fill="#2DBFF0" transform="translate(130,158)"/>
<path d="M0 0 C12.87 0 25.74 0 39 0 C39 12.87 39 25.74 39 39 C26.13 39 13.26 39 0 39 C0 26.13 0 13.26 0 0 Z M10 4 C10 4.99 10 5.98 10 7 C9.01 7.495 9.01 7.495 8 8 C8 17.24 8 26.48 8 36 C6.02 36.495 6.02 36.495 4 37 C20.335 37.495 20.335 37.495 37 38 C37 26.12 37 14.24 37 2 C33.2875 1.95875 29.575 1.9175 25.75 1.875 C24.5856543 1.85679199 23.42130859 1.83858398 22.22167969 1.81982422 C21.29774414 1.8148291 20.37380859 1.80983398 19.421875 1.8046875 C18.47924805 1.79421387 17.53662109 1.78374023 16.56542969 1.77294922 C13.90048059 2.00880787 12.28136908 2.64338341 10 4 Z " fill="#2DBEF0" transform="translate(130,201)"/>
<path d="M0 0 C0.66 0 1.32 0 2 0 C2.1964031 3.29119935 2.38060745 6.58296934 2.5625 9.875 C2.64661133 11.28072266 2.64661133 11.28072266 2.73242188 12.71484375 C2.78076172 13.61074219 2.82910156 14.50664062 2.87890625 15.4296875 C2.94960327 16.67081299 2.94960327 16.67081299 3.02172852 17.93701172 C3 20 3 20 2 22 C4.97 22 7.94 22 11 22 C11 23.32 11 24.64 11 26 C9.68 26 8.36 26 7 26 C6.34 27.98 5.68 29.96 5 32 C4.505 31.01 4.505 31.01 4 30 C2.35 30 0.7 30 -1 30 C0.05875074 33.40312738 1.00902154 36.01353231 3 39 C3.26069641 41.23876953 3.26069641 41.23876953 3.2746582 43.8828125 C3.28419022 44.87394043 3.29372223 45.86506836 3.30354309 46.88623047 C3.30263168 47.95502441 3.30172028 49.02381836 3.30078125 50.125 C3.30506638 51.22344238 3.3093515 52.32188477 3.31376648 53.45361328 C3.31951185 55.77701121 3.32000853 58.10042713 3.31567383 60.42382812 C3.31251244 63.98598766 3.33597628 67.54731812 3.36132812 71.109375 C3.36360087 73.36458228 3.36430473 75.6197918 3.36328125 77.875 C3.372491 78.94379395 3.38170074 80.01258789 3.39118958 81.11376953 C3.38184639 82.60046143 3.38184639 82.60046143 3.37231445 84.1171875 C3.37294388 84.98972168 3.3735733 85.86225586 3.3742218 86.76123047 C2.91134486 89.53037643 2.15646129 90.25480854 0 92 C-2.89804952 92.29105939 -5.58035435 92.39938885 -8.47875977 92.37231445 C-9.34405304 92.37596512 -10.20934631 92.37961578 -11.1008606 92.38337708 C-13.96457467 92.39149142 -16.82772454 92.37786625 -19.69140625 92.36328125 C-21.67772928 92.3627628 -23.66405284 92.36327992 -25.65037537 92.36479187 C-29.81411392 92.36470211 -33.977659 92.35426404 -38.14135742 92.33618164 C-43.48721966 92.31347964 -48.83279944 92.31295263 -54.17869663 92.31969929 C-58.28011093 92.32303515 -62.38146044 92.31641665 -66.48286247 92.30657005 C-68.45450438 92.30271226 -70.42615349 92.30157222 -72.39779854 92.3031559 C-75.14888458 92.30352536 -77.89960367 92.29094039 -80.65063477 92.2746582 C-81.88110283 92.27837433 -81.88110283 92.27837433 -83.13642883 92.28216553 C-88.77125759 92.22874241 -88.77125759 92.22874241 -91 90 C-60.97 90 -30.94 90 0 90 C0 72.51 0 55.02 0 37 C-5.61 40.3 -11.22 43.6 -17 47 C-17.66 47 -18.32 47 -19 47 C-19 46.34 -19 45.68 -19 45 C-18.15695313 44.63648438 -17.31390625 44.27296875 -16.4453125 43.8984375 C-15.34960938 43.39570312 -14.25390625 42.89296875 -13.125 42.375 C-11.48917969 41.64410156 -11.48917969 41.64410156 -9.8203125 40.8984375 C-6.40330149 38.59834422 -5.87349416 36.94730905 -5 33 C-5.66 33 -6.32 33 -7 33 C-7.66 32.34 -8.32 31.68 -9 31 C-10.485 31.495 -10.485 31.495 -12 32 C-13.485 31.505 -13.485 31.505 -15 31 C-15.9590625 32.2065625 -15.9590625 32.2065625 -16.9375 33.4375 C-20.90127449 36.75412763 -23.97294083 36.87952582 -29 37 C-24.38543045 32.936857 -19.18233543 30.17063854 -13.8125 27.25 C-12.89791016 26.74339844 -11.98332031 26.23679687 -11.04101562 25.71484375 C-4.25717023 22 -4.25717023 22 -2 22 C-2 21.34 -2 20.68 -2 20 C-1.34 20 -0.68 20 0 20 C0 13.4 0 6.8 0 0 Z " fill="#27B9EB" transform="translate(247,0)"/>
<path d="M0 0 C0.763125 0.165 1.52625 0.33 2.3125 0.5 C5.03596236 1.09145396 5.03596236 1.09145396 8 1 C8.99 1.66 9.98 2.32 11 3 C11 3.99 11 4.98 11 6 C10.34 6 9.68 6 9 6 C8.91363281 6.61488281 8.82726562 7.22976562 8.73828125 7.86328125 C8 10 8 10 6.29296875 11.23046875 C5.59816406 11.54628906 4.90335938 11.86210938 4.1875 12.1875 C3.50042969 12.51105469 2.81335938 12.83460937 2.10546875 13.16796875 C0.08464418 13.96655063 -1.88134438 14.52865864 -4 15 C-4 15.66 -4 16.32 -4 17 C-8.455 18.485 -8.455 18.485 -13 20 C-13 20.66 -13 21.32 -13 22 C-16.71599191 22.20086443 -17.77208445 22.1519437 -21 20 C-20.67 21.65 -20.34 23.3 -20 25 C-22.13671875 26.61328125 -22.13671875 26.61328125 -25 28 C-27.89453125 27.41796875 -27.89453125 27.41796875 -30.8125 26.1875 C-31.78832031 25.78917969 -32.76414063 25.39085938 -33.76953125 24.98046875 C-34.50558594 24.65691406 -35.24164063 24.33335938 -36 24 C-35.67 22.68 -35.34 21.36 -35 20 C-33.68 19.67 -32.36 19.34 -31 19 C-31 18.34 -31 17.68 -31 17 C-26.58774263 15.52924754 -23.51718381 14.63115642 -19 16 C-17.49069817 12.6136749 -17.49069817 12.6136749 -17 9 C-16.01 9 -15.02 9 -14 9 C-14 8.34 -14 7.68 -14 7 C-12.948125 6.71125 -11.89625 6.4225 -10.8125 6.125 C-4.40373529 4.49783903 -4.40373529 4.49783903 0 0 Z " fill="#12BEF7" transform="translate(232,30)"/>
<path d="M0 0 C1.98 0 3.96 0 6 0 C6 10.89 6 21.78 6 33 C5.67 33 5.34 33 5 33 C4.67 23.1 4.34 13.2 4 3 C3.01 2.67 2.02 2.34 1 2 C1 24.77 1 47.54 1 71 C12.55 71 24.1 71 36 71 C35.505 53.675 35.505 53.675 35 36 C34.01 36 33.02 36 32 36 C32 36.66 32 37.32 32 38 C28.7 38 25.4 38 22 38 C22 37.34 22 36.68 22 36 C17.05 36 12.1 36 7 36 C7 35.34 7 34.68 7 34 C14.92 34 22.84 34 31 34 C31 22.78 31 11.56 31 0 C32.98 0 34.96 0 37 0 C37 23.76 37 47.52 37 72 C24.79 72 12.58 72 0 72 C0 48.24 0 24.48 0 0 Z " fill="#1BB9F1" transform="translate(174,104)"/>
<path d="M0 0 C0.66 0 1.32 0 2 0 C2 6.93 2 13.86 2 21 C4.475 21.99 4.475 21.99 7 23 C8.93530357 24.0453477 10.8521277 25.12530357 12.75390625 26.23046875 C13.85669922 26.86919922 14.95949219 27.50792969 16.09570312 28.16601562 C17.25134364 28.83977247 18.40694248 29.51360082 19.5625 30.1875 C21.23795898 31.15913086 21.23795898 31.15913086 22.94726562 32.15039062 C26.30052704 34.0962542 29.65080011 36.04715508 33 38 C33.58046082 38.33839905 34.16092163 38.6767981 34.75897217 39.02545166 C38.17321556 41.01599602 41.58686624 43.00755365 45 45 C41.37673261 46.2077558 40.35853631 45.54311128 37 44 C34.69 45.98 32.38 47.96 30 50 C31.485 50.495 31.485 50.495 33 51 C33 51.99 33 52.98 33 54 C35.97 54.99 38.94 55.98 42 57 C42 57.66 42 58.32 42 59 C45.43515002 59.62457273 48.49064814 60 52 60 C52 60.66 52 61.32 52 62 C51.01 62 50.02 62 49 62 C49 62.66 49 63.32 49 64 C40.09049893 60.60514539 31.9485688 55.42780537 23.75 50.61328125 C20.51481904 48.71536969 17.26110779 46.85290215 14 45 C14 44.01 14 43.02 14 42 C15.65 41.34 17.3 40.68 19 40 C19 39.34 19 38.68 19 38 C21.97 37.505 21.97 37.505 25 37 C16.91250602 31.49112729 8.75865841 26.37932921 0 22 C0 14.74 0 7.48 0 0 Z " fill="#1FBBF1" transform="translate(260,0)"/>
<path d="M0 0 C16.75062607 -0.00955225 33.50079964 0.01501816 50.25128555 0.0802784 C58.02876047 0.1097829 65.80596186 0.12809551 73.58349609 0.12011719 C80.36197145 0.11319205 87.14002358 0.12720853 93.9183948 0.16643608 C97.5080744 0.1864771 101.09708924 0.19598732 104.68680573 0.18042374 C108.69316066 0.16344599 112.69785355 0.19322053 116.70410156 0.22705078 C118.49189781 0.20871941 118.49189781 0.20871941 120.31581116 0.1900177 C123.33272262 0.23609623 126.06055255 0.32022198 129 1 C131.70306396 3.91329956 131.70306396 3.91329956 133 7 C133.34546875 7.71285156 133.6909375 8.42570313 134.046875 9.16015625 C135.4275627 12.89568352 136.37992655 15.94745016 136 20 C136.66 20 137.32 20 138 20 C138 29.57 138 39.14 138 49 C137.67 49 137.34 49 137 49 C137.00112793 48.36723145 137.00225586 47.73446289 137.00341797 47.08251953 C136.94288463 32.53083049 135.33543209 20.52046995 130 7 C129.67 5.68 129.34 4.36 129 3 C86.43 3 43.86 3 0 3 C0 2.01 0 1.02 0 0 Z " fill="#C9EEFE" transform="translate(85,243)"/>
<path d="M0 0 C0.763125 0.309375 1.52625 0.61875 2.3125 0.9375 C4.18789677 1.67893593 6.08684652 2.36228217 8 3 C8 3.99 8 4.98 8 6 C8.886875 6.103125 9.77375 6.20625 10.6875 6.3125 C14.0826755 7.01715907 16.21942098 7.9554566 19 10 C19 10.66 19 11.32 19 12 C19.66 12.33 20.32 12.66 21 13 C22.0409066 14.64142963 23.04504326 16.30712215 24 18 C23.360625 18.103125 22.72125 18.20625 22.0625 18.3125 C21.381875 18.539375 20.70125 18.76625 20 19 C19.67 19.99 19.34 20.98 19 22 C16.69 21.67 14.38 21.34 12 21 C12 20.34 12 19.68 12 19 C12.99 19 13.98 19 15 19 C15 18.34 15 17.68 15 17 C13.9275 17.2475 12.855 17.495 11.75 17.75 C10.5125 17.8325 9.275 17.915 8 18 C6.0625 16.25 6.0625 16.25 4 14 C1.37929321 12.78342432 -1.25154048 11.91615317 -4 11 C-4 10.01 -4 9.02 -4 8 C-5.32 7.67 -6.64 7.34 -8 7 C-5.36 4.69 -2.72 2.38 0 0 Z " fill="#14BDF9" transform="translate(297,43)"/>
<path d="M0 0 C12.54 0 25.08 0 38 0 C38 12.87 38 25.74 38 39 C25.46 39 12.92 39 0 39 C0 26.13 0 13.26 0 0 Z M2 2 C2 13.55 2 25.1 2 37 C13.22 37 24.44 37 36 37 C36 25.78 36 14.56 36 3 C30.56536256 1.18845419 24.69178884 1.56736662 19 1.375 C17.70320313 1.3234375 16.40640625 1.271875 15.0703125 1.21875 C13.83023438 1.17492187 12.59015625 1.13109375 11.3125 1.0859375 C10.17425781 1.0451709 9.03601563 1.0044043 7.86328125 0.96240234 C4.9257627 0.85599885 4.9257627 0.85599885 2 2 Z " fill="#34B8E6" transform="translate(87,201)"/>
<path d="M0 0 C5 2 5 2 6 4 C4.35 3.67 2.7 3.34 1 3 C1 18.51 1 34.02 1 50 C27.4 49.67 53.8 49.34 81 49 C80.67 48.01 80.34 47.02 80 46 C83.33333333 47.66666667 86.66666667 49.33333333 90 51 C90 51.33 90 51.66 90 52 C60.3 52 30.6 52 0 52 C0 34.84 0 17.68 0 0 Z " fill="#BEEEFB" transform="translate(262,38)"/>
<path d="M0 0 C0.33 0 0.66 0 1 0 C1 72.27 1 144.54 1 219 C-2.90432869 217.04783565 -5.03839944 215.12613393 -8 212 C-7.401875 212.309375 -6.80375 212.61875 -6.1875 212.9375 C-3.91043228 214.10209704 -3.91043228 214.10209704 -1 215 C-0.67 144.05 -0.34 73.1 0 0 Z " fill="#2FB1DF" transform="translate(286,104)"/>
<path d="M0 0 C2.21095812 1.07822067 4.41867306 2.16237404 6.625 3.25 C7.55119141 3.70052734 7.55119141 3.70052734 8.49609375 4.16015625 C11.52905844 5.66067562 14.00147018 7.00122515 16.625 9.1875 C21.96480578 12.05517347 27.4061848 11.67886569 33.375 11.75 C34.58800781 11.77964844 35.80101562 11.80929688 37.05078125 11.83984375 C40.03349976 11.91030167 43.01675296 11.95744298 46 12 C46 16.62 46 21.24 46 26 C6.4 26 -33.2 26 -74 26 C-74 25.67 -74 25.34 -74 25 C-35.06 25 3.88 25 44 25 C44 21.04 44 17.08 44 13 C40.47854027 13.11447003 36.95823534 13.24121652 33.4375 13.375 C31.9515332 13.42140625 31.9515332 13.42140625 30.43554688 13.46875 C24.95797477 13.68712497 20.1895346 14.20950139 15 16 C15.66 14.68 16.32 13.36 17 12 C16.195625 11.71125 15.39125 11.4225 14.5625 11.125 C12 10 12 10 11 8 C8.47266765 7.34444881 8.47266765 7.34444881 6 7 C5.67 7.66 5.34 8.32 5 9 C4.16094435 7.87926138 3.32892169 6.75325453 2.5 5.625 C1.80390625 4.68527344 1.80390625 4.68527344 1.09375 3.7265625 C0 2 0 2 0 0 Z " fill="#2EADDC" transform="translate(361,78)"/>
<path d="M0 0 C8.25 0 16.5 0 25 0 C25 11.22 25 22.44 25 34 C16.75 34 8.5 34 0 34 C0 22.78 0 11.56 0 0 Z M2 2 C1.97103178 6.43748635 1.95321212 10.87494847 1.9375 15.3125 C1.92912109 16.57513672 1.92074219 17.83777344 1.91210938 19.13867188 C1.90888672 20.34716797 1.90566406 21.55566406 1.90234375 22.80078125 C1.89710693 23.91622314 1.89187012 25.03166504 1.88647461 26.1809082 C1.87250746 29.08052062 1.87250746 29.08052062 3 32 C6.19156448 33.06385483 8.58497476 33.16677982 11.9375 33.1875 C13.49791016 33.20876953 13.49791016 33.20876953 15.08984375 33.23046875 C17.9790201 33.0016615 19.60136274 32.58610585 22 31 C23.19799009 28.60401982 23.12918507 27.09477354 23.1328125 24.421875 C23.13410156 23.50792969 23.13539063 22.59398438 23.13671875 21.65234375 C23.13285156 20.69457031 23.12898438 19.73679687 23.125 18.75 C23.12886719 17.80769531 23.13273437 16.86539063 23.13671875 15.89453125 C23.13006548 11.15074739 22.98602196 6.66404038 22 2 C17.97007218 2.55312735 13.97977076 3.1558062 10 4 C10 3.34 10 2.68 10 2 C7.36 2 4.72 2 2 2 Z " fill="#BBF1FC" transform="translate(180,104)"/>
<path d="M0 0 C0 17.49 0 34.98 0 53 C-29.7 53 -59.4 53 -90 53 C-90 52.34 -90 51.68 -90 51 C-88.515 50.505 -88.515 50.505 -87 50 C-87 50.66 -87 51.32 -87 52 C-58.62 52 -30.24 52 -1 52 C-1.495 48.04 -1.495 48.04 -2 44 C-2.07394717 42.47462974 -2.11842011 40.94707566 -2.11352539 39.41992188 C-2.11341209 38.21958313 -2.11341209 38.21958313 -2.11329651 36.99499512 C-2.10813522 36.16133423 -2.10297394 35.32767334 -2.09765625 34.46875 C-2.0962413 33.59222778 -2.09482635 32.71570557 -2.09336853 31.81262207 C-2.08781768 29.04171179 -2.07527461 26.27088543 -2.0625 23.5 C-2.05747864 21.60937618 -2.05291685 19.71875107 -2.04882812 17.828125 C-2.0378644 13.21871817 -2.02063425 8.60937327 -2 4 C-2.99 4 -3.98 4 -5 4 C-5 4.66 -5 5.32 -5 6 C-8.8508246 8.76778018 -13.39759705 10.82145973 -18 12 C-18.99 11.505 -18.99 11.505 -20 11 C-2.91292135 0 -2.91292135 0 0 0 Z " fill="#B7EFFC" transform="translate(247,37)"/>
<path d="M0 0 C0.33 0 0.66 0 1 0 C1 12.54 1 25.08 1 38 C13.54 38 26.08 38 39 38 C39 38.33 39 38.66 39 39 C27.45 39 15.9 39 4 39 C4 39.66 4 40.32 4 41 C15.55 41 27.1 41 39 41 C39 41.33 39 41.66 39 42 C26.46 42 13.92 42 1 42 C1 54.54 1 67.08 1 80 C0.34 80 -0.32 80 -1 80 C-1.14455326 53.31546749 -0.7786026 26.67335134 0 0 Z " fill="#CAFCFE" transform="translate(86,159)"/>
<path d="M0 0 C0 3 0 3 -1 6 C-0.01 6 0.98 6 2 6 C2 5.01 2 4.02 2 3 C2.66 3 3.32 3 4 3 C3.8453125 4.1446875 3.8453125 4.1446875 3.6875 5.3125 C3.790625 6.199375 3.89375 7.08625 4 8 C6.40858714 9.8624438 6.40858714 9.8624438 9 11 C9 10.34 9 9.68 9 9 C10.65 9 12.3 9 14 9 C14 9.66 14 10.32 14 11 C13.01 11 12.02 11 11 11 C11 11.66 11 12.32 11 13 C11.66 13.33 12.32 13.66 13 14 C13 14.33 13 14.66 13 15 C14.093125 15.28875 15.18625 15.5775 16.3125 15.875 C20 17 20 17 23 19 C27.78593119 20.43667728 32.74283557 20.07452396 37.6875 20 C39.39967704 19.97454012 41.11192709 19.95349027 42.82421875 19.9375 C43.95476685 19.92009766 43.95476685 19.92009766 45.1081543 19.90234375 C47 20 47 20 49 21 C49.71972783 22.73388976 50.43764059 24.46861963 51.13671875 26.2109375 C52.31173528 28.64603963 53.96868134 30.24886323 56 32 C55.67 32.99 55.34 33.98 55 35 C53.86652945 33.77864002 52.74358413 32.54750819 51.625 31.3125 C50.99851563 30.62800781 50.37203125 29.94351562 49.7265625 29.23828125 C47.92769063 26.90625957 46.96069528 24.77048993 46 22 C45.39639648 22.02094727 44.79279297 22.04189453 44.17089844 22.06347656 C27.18903599 22.57493944 13.82577058 21.71961982 0.66796875 9.90625 C-1.31292532 7.99127009 -3.24447571 6.12384955 -5 4 C-5 3.34 -5 2.68 -5 2 C-3.35 1.34 -1.7 0.68 0 0 Z M20 16 C23 17 23 17 23 17 Z " fill="#32BAE6" transform="translate(92,425)"/>
<path d="M0 0 C1.98 0 3.96 0 6 0 C4.02 0.99 4.02 0.99 2 2 C2 13.22 2 24.44 2 36 C13.55 36 25.1 36 37 36 C36.67 24.12 36.34 12.24 36 0 C36.66 0 37.32 0 38 0 C38 12.54 38 25.08 38 38 C25.46 38 12.92 38 0 38 C0 25.46 0 12.92 0 0 Z " fill="#36B6E0" transform="translate(87,159)"/>
<path d="M0 0 C42.57 0 85.14 0 129 0 C132 6 132 6 131.6875 8.375 C131.3471875 9.179375 131.3471875 9.179375 131 10 C128.67210485 7.16604069 127.92622107 5.70488428 127 2 C85.75 2 44.5 2 2 2 C1.67 3.32 1.34 4.64 1 6 C2.32 6 3.64 6 5 6 C4.67 7.32 4.34 8.64 4 10 C3.01 10 2.02 10 1 10 C0.67 9.34 0.34 8.68 0 8 C-0.66 8 -1.32 8 -2 8 C-2.33 8.99 -2.66 9.98 -3 11 C-3.33 10.34 -3.66 9.68 -4 9 C-2.68 6.03 -1.36 3.06 0 0 Z " fill="#28B4EB" transform="translate(85,246)"/>
<path d="M0 0 C0.33 0 0.66 0 1 0 C1.34548714 6.33393082 0.29342747 11.10261508 -2 17 C-3.65 17.33 -5.3 17.66 -7 18 C-7 18.66 -7 19.32 -7 20 C-6.01 20 -5.02 20 -4 20 C-4 24 -4 24 -5 26 C-5.87398437 25.32904297 -5.87398437 25.32904297 -6.765625 24.64453125 C-13.15657973 19.93170457 -19.57154541 16.76971588 -27 14 C-27 13.67 -27 13.34 -27 13 C-23.7 13 -20.4 13 -17 13 C-19.42182607 9.3672609 -20.50445117 9.31868053 -24.625 8.3125 C-25.62789062 8.06113281 -26.63078125 7.80976563 -27.6640625 7.55078125 C-28.43492187 7.36902344 -29.20578125 7.18726563 -30 7 C-30 6.34 -30 5.68 -30 5 C-20.9381419 6.62813526 -13.54944334 9.78728912 -6 15 C-5.01 15.33 -4.02 15.66 -3 16 C-2.87625 15.030625 -2.7525 14.06125 -2.625 13.0625 C-2.00136191 8.65184223 -1.01253494 4.33522241 0 0 Z " fill="#D7F9FD" transform="translate(221,296)"/>
<path d="M0 0 C0 0.66 0 1.32 0 2 C-2.76382738 4.45673545 -5.56433594 5.71162598 -9 7 C-11.23470405 7.78309467 -11.23470405 7.78309467 -13 9 C-13.2165625 9.8971875 -13.2165625 9.8971875 -13.4375 10.8125 C-14.28708366 14.11643647 -16.54812874 15.73673422 -19 18 C-15.30099992 17.11223998 -11.65449539 16.05418136 -8 15 C-8 14.01 -8 13.02 -8 12 C-6.02 11.67 -4.04 11.34 -2 11 C-2.66 11.639375 -3.32 12.27875 -4 12.9375 C-7.19793073 16.12629379 -10.15588898 19.52013802 -13.1328125 22.9140625 C-14.70591369 24.67146006 -16.3120285 26.35396568 -18 28 C-18 27.34 -18 26.68 -18 26 C-18.99 26.33 -19.98 26.66 -21 27 C-21 26.01 -21 25.02 -21 24 C-20.34 24 -19.68 24 -19 24 C-19.33 22.68 -19.66 21.36 -20 20 C-22.2477975 22.05233685 -23.0022242 23.00667261 -24 26 C-24.66 26 -25.32 26 -26 26 C-26 28.64 -26 31.28 -26 34 C-26.99 34 -27.98 34 -29 34 C-27.28482726 21.13620444 -19.03965512 11.72155589 -9 4 C-3.11382114 0 -3.11382114 0 0 0 Z " fill="#E5FBFD" transform="translate(155,305)"/>
<path d="M0 0 C1.32 0 2.64 0 4 0 C4 11.22 4 22.44 4 34 C2.35 34 0.7 34 -1 34 C-1.02465288 29.31860746 -1.04283739 24.63725241 -1.05493164 19.95581055 C-1.05997157 18.36205386 -1.0668035 16.76830181 -1.07543945 15.17456055 C-1.08751999 12.88849747 -1.09323155 10.60249533 -1.09765625 8.31640625 C-1.10281754 7.59973282 -1.10797882 6.88305939 -1.11329651 6.14466858 C-1.11349263 4.42936328 -1.06192007 2.71418734 -1 1 C-0.67 0.67 -0.34 0.34 0 0 Z " fill="#11BEF7" transform="translate(119,161)"/>
<path d="M0 0 C41.25 0 82.5 0 125 0 C125 0.99 125 1.98 125 3 C123.35 3 121.7 3 120 3 C120 2.34 120 1.68 120 1 C83.37 1 46.74 1 9 1 C8.67 1.99 8.34 2.98 8 4 C3.545 4.495 3.545 4.495 -1 5 C-0.67 3.35 -0.34 1.7 0 0 Z " fill="#0CC0FC" transform="translate(87,247)"/>
<path d="M0 0 C1.5625 1.25 1.5625 1.25 3 3 C2.6875 5.1875 2.6875 5.1875 2 7 C4.64 7.33 7.28 7.66 10 8 C10 8.99 10 9.98 10 11 C12.90073181 11.67801034 12.90073181 11.67801034 16 12 C16.66 11.34 17.32 10.68 18 10 C19.32 10 20.64 10 22 10 C22 9.34 22 8.68 22 8 C22.99 8 23.98 8 25 8 C25 7.34 25 6.68 25 6 C23.02 6 21.04 6 19 6 C19 4.68 19 3.36 19 2 C24.9057882 3.55415479 29.97738893 6.59534467 35 10 C35 10.33 35 10.66 35 11 C33.35 11 31.7 11 30 11 C30 10.34 30 9.68 30 9 C26.51750769 10.25756667 23.93534151 11.7731892 21 14 C20.34 14 19.68 14 19 14 C19.33 14.99 19.66 15.98 20 17 C20.99 17.33 21.98 17.66 23 18 C23 18.66 23 19.32 23 20 C12.00902632 15.79526808 2.02711158 9.08933902 -8 3 C-5.50935112 2.31292445 -3.62113708 2 -1 2 C-0.67 1.34 -0.34 0.68 0 0 Z " fill="#2CBDEA" transform="translate(317,62)"/>
<path d="M0 0 C1.98 0 3.96 0 6 0 C6 10.89 6 21.78 6 33 C5.67 33 5.34 33 5 33 C4.67 23.1 4.34 13.2 4 3 C3.01 2.67 2.02 2.34 1 2 C1 24.77 1 47.54 1 71 C12.88 71 24.76 71 37 71 C37 71.33 37 71.66 37 72 C24.79 72 12.58 72 0 72 C0 48.24 0 24.48 0 0 Z " fill="#23B3E0" transform="translate(174,104)"/>
<path d="M0 0 C0.33 0 0.66 0 1 0 C1 17.16 1 34.32 1 52 C-0.88343932 48.23312136 -1.22057835 46.97041037 -1 43 C-2.98 43.495 -2.98 43.495 -5 44 C-4.505 44.86625 -4.505 44.86625 -4 45.75 C-3 48 -3 48 -3 52 C-3.66 52 -4.32 52 -5 52 C-5.66 48.7 -6.32 45.4 -7 42 C-5.515 41.505 -5.515 41.505 -4 41 C-3.67 31.1 -3.34 21.2 -3 11 C-2.34 10.67 -1.68 10.34 -1 10 C-0.53248212 7.64400765 -0.53248212 7.64400765 -0.375 4.9375 C-0.26285156 3.55884766 -0.26285156 3.55884766 -0.1484375 2.15234375 C-0.09945313 1.44207031 -0.05046875 0.73179688 0 0 Z " fill="#21C0ED" transform="translate(261,38)"/>
<path d="M0 0 C0.66 0 1.32 0 2 0 C2.82555811 30.12652044 2.82555811 30.12652044 -2 44 C-6.31085759 43.32084333 -8.10640878 42.3222714 -11 39 C-9.68 39 -8.36 39 -7 39 C-6.8453125 38.13375 -6.8453125 38.13375 -6.6875 37.25 C-5.89446266 34.65460507 -4.6629649 33.12859507 -3 31 C-2.30251417 29.68252676 -1.63040043 28.35085807 -1 27 C-0.67 26.34 -0.34 25.68 0 25 C0.07092842 22.7927077 0.08415025 20.58332548 0.0625 18.375 C0.05347656 17.18648438 0.04445312 15.99796875 0.03515625 14.7734375 C0.02355469 13.85820312 0.01195312 12.94296875 0 12 C-1.32 11.67 -2.64 11.34 -4 11 C-4 9.02 -4 7.04 -4 5 C-2.68 4.67 -1.36 4.34 0 4 C0 2.68 0 1.36 0 0 Z " fill="#24BBEC" transform="translate(220,268)"/>
<path d="M0 0 C-0.54226981 3.79588866 -2.20127563 5.47211993 -5 8 C-4.00742188 7.83250244 -3.01484375 7.66500488 -1.9921875 7.49243164 C4.92902514 6.63456854 11.91739016 6.9924057 18.875 7.12109375 C20.41055547 7.14543263 21.9461189 7.16927421 23.48168945 7.19264221 C27.49958442 7.25510873 31.51733636 7.32427885 35.53509521 7.39489746 C39.64442499 7.46592166 43.75385519 7.53053376 47.86328125 7.59570312 C55.90896547 7.72423205 63.95450984 7.85985084 72 8 C72 5.69 72 3.38 72 1 C72.33 1 72.66 1 73 1 C73 3.64 73 6.28 73 9 C44.62 9 16.24 9 -13 9 C-10.93030309 4.86060618 -10.35054229 4.27528523 -6.5 2.25 C-5.7059375 1.82203125 -4.911875 1.3940625 -4.09375 0.953125 C-2 0 -2 0 0 0 Z " fill="#EBFEFE" transform="translate(173,80)"/>
<path d="M0 0 C2.1796875 1.5 2.1796875 1.5 4.1796875 4.5 C3.4371875 4.190625 2.6946875 3.88125 1.9296875 3.5625 C-2.87424374 1.60983382 -2.87424374 1.60983382 -7.8203125 2.5 C-9.1403125 1.18 -10.4603125 -0.14 -11.8203125 -1.5 C-11.4903125 -1.83 -11.1603125 -2.16 -10.8203125 -2.5 C-27.02381697 -5.64044032 -27.02381697 -5.64044032 -42.8203125 -2.5 C-45.6328125 -2.375 -45.6328125 -2.375 -47.8203125 -2.5 C-47.8203125 -1.84 -47.8203125 -1.18 -47.8203125 -0.5 C-49.4703125 -0.5 -51.1203125 -0.5 -52.8203125 -0.5 C-38.009198 -12.83670397 -15.40512128 -8.57328489 0 0 Z " fill="#27B8E8" transform="translate(208.8203125,315.5)"/>
<path d="M0 0 C12.21 0 24.42 0 37 0 C36.67 0.66 36.34 1.32 36 2 C24.45 1.67 12.9 1.34 1 1 C1 12.55 1 24.1 1 36 C11.89 35.67 22.78 35.34 34 35 C34.66 33.35 35.32 31.7 36 30 C36.33 30 36.66 30 37 30 C37 32.31 37 34.62 37 37 C24.79 37 12.58 37 0 37 C0 24.79 0 12.58 0 0 Z " fill="#20B2E0" transform="translate(174,202)"/>
<path d="M0 0 C1.65 0 3.3 0 5 0 C5 12.87 5 25.74 5 39 C4.67 39 4.34 39 4 39 C4 26.79 4 14.58 4 2 C3.34 2 2.68 2 2 2 C2 14.21 2 26.42 2 39 C1.34 39 0.68 39 0 39 C0 26.13 0 13.26 0 0 Z " fill="#CEFCFE" transform="translate(125,158)"/>
<path d="M0 0 C0.66 0 1.32 0 2 0 C2.16458831 3.3740604 2.01805278 5.94177444 1.01171875 9.1875 C-0.1080047 13.4069984 -0.34356057 17.10115299 -0.3125 21.4375 C-0.31121094 22.18378662 -0.30992188 22.93007324 -0.30859375 23.69897461 C-0.2150688 29.03983361 0.54480035 33.19190068 3 38 C3.66 38 4.32 38 5 38 C5.33 40.64 5.66 43.28 6 46 C6.66 46 7.32 46 8 46 C7.67 46.99 7.34 47.98 7 49 C-1.15800562 38.47617275 -4.1292001 27.22309688 -3 14 C-2.3534417 9.20716414 -1.53047081 4.59141242 0 0 Z " fill="#33BCE8" transform="translate(79,378)"/>
<path d="M0 0 C0.66 0 1.32 0 2 0 C2 6.93 2 13.86 2 21 C4.475 21.99 4.475 21.99 7 23 C9.05232418 24.10408217 11.08623379 25.24275433 13.10546875 26.40625 C13.95338737 26.89430115 13.95338737 26.89430115 14.81843567 27.39221191 C16.00514006 28.07641791 17.19089263 28.76227716 18.37573242 29.44970703 C20.18976777 30.50131464 22.0077204 31.5458952 23.82617188 32.58984375 C24.98201119 33.25739651 26.13761841 33.92535132 27.29296875 34.59375 C28.3399292 35.19896484 29.38688965 35.80417969 30.46557617 36.42773438 C33 38 33 38 35 40 C31.24575799 39.41896654 28.50681206 38.36679216 25.234375 36.453125 C23.89826172 35.6796875 23.89826172 35.6796875 22.53515625 34.890625 C21.15650391 34.07851562 21.15650391 34.07851562 19.75 33.25 C17.93257908 32.19221436 16.11487319 31.13491819 14.296875 30.078125 C13.49604492 29.60793945 12.69521484 29.13775391 11.87011719 28.65332031 C7.93972853 26.38923457 3.9650563 24.20280906 0 22 C0 14.74 0 7.48 0 0 Z " fill="#2FB8E4" transform="translate(260,0)"/>
<path d="M0 0 C0.33 0 0.66 0 1 0 C1.33 1.65 1.66 3.3 2 5 C3.65 4.34 5.3 3.68 7 3 C6.67 4.32 6.34 5.64 6 7 C5.34 7 4.68 7 4 7 C4 8.32 4 9.64 4 11 C4.66 11 5.32 11 6 11 C6 12.32 6 13.64 6 15 C4.125 14.75 4.125 14.75 2 14 C0.75 11.9375 0.75 11.9375 0 10 C-0.99 11.485 -0.99 11.485 -2 13 C-4.52197266 13.52416992 -4.52197266 13.52416992 -7.6640625 13.73046875 C-9.34628906 13.85131836 -9.34628906 13.85131836 -11.0625 13.97460938 C-12.238125 14.04486328 -13.41375 14.11511719 -14.625 14.1875 C-16.40003906 14.3102832 -16.40003906 14.3102832 -18.2109375 14.43554688 C-21.1400168 14.63633054 -24.06934939 14.82390805 -27 15 C-21.83541525 11.5569435 -16.73943138 11.86719159 -10.6875 11.9375 C-9.94693359 11.94201172 -9.20636719 11.94652344 -8.44335938 11.95117188 C-6.62887101 11.96287825 -4.81442466 11.98081102 -3 12 C-2.87625 10.7625 -2.7525 9.525 -2.625 8.25 C-2.24253695 5.1237803 -1.69450477 2.71120763 0 0 Z " fill="#2DBBED" transform="translate(136,335)"/>
<path d="M0 0 C0 3 0 3 -1 6 C-0.01 6 0.98 6 2 6 C2 5.01 2 4.02 2 3 C2.66 3 3.32 3 4 3 C3.8453125 4.1446875 3.8453125 4.1446875 3.6875 5.3125 C3.790625 6.199375 3.89375 7.08625 4 8 C6.40858714 9.8624438 6.40858714 9.8624438 9 11 C9 10.34 9 9.68 9 9 C10.65 9 12.3 9 14 9 C14 9.66 14 10.32 14 11 C13.01 11 12.02 11 11 11 C11 11.66 11 12.32 11 13 C11.66 13.33 12.32 13.66 13 14 C13 14.66 13 15.32 13 16 C6.5768227 15.83942057 3.36208394 12.23214953 -1 8 C-2.2375 6.8553125 -2.2375 6.8553125 -3.5 5.6875 C-5 4 -5 4 -5 2 C-3.35 1.34 -1.7 0.68 0 0 Z " fill="#1CBBF3" transform="translate(92,425)"/>
<path d="M0 0 C2.21095812 1.07822067 4.41867306 2.16237404 6.625 3.25 C7.55119141 3.70052734 7.55119141 3.70052734 8.49609375 4.16015625 C11.54245669 5.66730423 14.12965585 7.09973527 16.84375 9.1875 C21.1867125 11.68147846 24.94784813 11.6683755 29.875 11.75 C30.75414062 11.77964844 31.63328125 11.80929688 32.5390625 11.83984375 C34.69222545 11.91005559 36.84611485 11.95734881 39 12 C39 12.33 39 12.66 39 13 C37.85402344 13.04898438 36.70804687 13.09796875 35.52734375 13.1484375 C33.99737465 13.22352801 32.46742782 13.29907306 30.9375 13.375 C29.80924805 13.42140625 29.80924805 13.42140625 28.65820312 13.46875 C23.81038719 13.72058459 19.61691957 14.49168365 15 16 C15.66 14.68 16.32 13.36 17 12 C16.195625 11.71125 15.39125 11.4225 14.5625 11.125 C12 10 12 10 11 8 C8.47266765 7.34444881 8.47266765 7.34444881 6 7 C5.67 7.66 5.34 8.32 5 9 C4.16094435 7.87926138 3.32892169 6.75325453 2.5 5.625 C2.0359375 4.99851562 1.571875 4.37203125 1.09375 3.7265625 C0 2 0 2 0 0 Z " fill="#26B6EB" transform="translate(361,78)"/>
<path d="M0 0 C0 0.66 0 1.32 0 2 C-0.99 2 -1.98 2 -3 2 C-2.79375 2.5775 -2.5875 3.155 -2.375 3.75 C-1.91338739 6.51967567 -2.57055055 7.64561267 -4 10 C-5.216875 9.814375 -6.43375 9.62875 -7.6875 9.4375 C-11.02977939 9.01006818 -13.71968417 9.07741117 -17 10 C-17 10.66 -17 11.32 -17 12 C-18.43011973 12.86646667 -19.86940619 13.71781829 -21.3125 14.5625 C-22.51326172 15.27599609 -22.51326172 15.27599609 -23.73828125 16.00390625 C-26 17 -26 17 -29 16 C-24.68129109 13.39815488 -20.35913592 10.80221444 -16.03173828 8.21484375 C-14.73531938 7.43967186 -13.43937146 6.66371137 -12.14404297 5.88671875 C-10.49462804 4.89901192 -8.84117797 3.91805267 -7.1875 2.9375 C-6.23230469 2.36902344 -5.27710938 1.80054688 -4.29296875 1.21484375 C-2 0 -2 0 0 0 Z " fill="#2EBCE9" transform="translate(218,37)"/>
<path d="M0 0 C0.99 0.33 1.98 0.66 3 1 C1.71283353 2.00578589 0.42011342 3.00446798 -0.875 4 C-1.59429687 4.556875 -2.31359375 5.11375 -3.0546875 5.6875 C-5 7 -5 7 -7 7 C-7 7.66 -7 8.32 -7 9 C-6.34 9.33 -5.68 9.66 -5 10 C-5.33 10.99 -5.66 11.98 -6 13 C-8.3125 14.0625 -8.3125 14.0625 -11 15 C-11.721875 15.391875 -12.44375 15.78375 -13.1875 16.1875 C-13.785625 16.455625 -14.38375 16.72375 -15 17 C-15.66 16.67 -16.32 16.34 -17 16 C-15.84334866 12.53004599 -14.81924446 12.11443335 -12 10 C-11.67 9.01 -11.34 8.02 -11 7 C-7.86695422 4.12804137 -4.97900718 2.4368637 -1 1 C-0.67 0.67 -0.34 0.34 0 0 Z " fill="#FCFBF9" transform="translate(153,307)"/>
<path d="M0 0 C0 1.32 0 2.64 0 4 C1.98 4 3.96 4 6 4 C6 4.66 6 5.32 6 6 C5.01 6 4.02 6 3 6 C3 6.66 3 7.32 3 8 C-0.37023764 10.00609383 -2.34469464 11.03709276 -6.3125 10.8125 C-7.199375 10.544375 -8.08625 10.27625 -9 10 C-9.33 9.34 -9.66 8.68 -10 8 C-7.69 8.33 -5.38 8.66 -3 9 C-4.93254772 6.9754262 -6.63158688 5.57894208 -9 4 C-9 3.34 -9 2.68 -9 2 C-2.25 0 -2.25 0 0 0 Z " fill="#0FC0F8" transform="translate(336,64)"/>
<path d="M0 0 C0.99 0.33 1.98 0.66 3 1 C1.27728773 2.15551453 -0.45346917 3.29904119 -2.1875 4.4375 C-3.15042969 5.07558594 -4.11335938 5.71367187 -5.10546875 6.37109375 C-7.84977757 7.91546187 -9.90418343 8.59816641 -13 9 C-13 8.01 -13 7.02 -13 6 C-14.98 6 -16.96 6 -19 6 C-19.33 5.34 -19.66 4.68 -20 4 C-17.75411164 3.44153043 -15.50306332 2.90378017 -13.25 2.375 C-11.99703125 2.07335937 -10.7440625 1.77171875 -9.453125 1.4609375 C-5.99187436 0.99891536 -4.79597098 1.03717189 -2 3 C-2 2.34 -2 1.68 -2 1 C-1.34 0.67 -0.68 0.34 0 0 Z " fill="#1DBAF0" transform="translate(285,452)"/>
<path d="M0 0 C8.57078647 -0.02314216 17.14155995 -0.04092467 25.71236992 -0.05181217 C29.69188412 -0.05703689 33.67137699 -0.0641271 37.65087891 -0.07543945 C41.48933243 -0.08628291 45.3277654 -0.09227994 49.16623306 -0.09487724 C50.63269499 -0.09672885 52.09915577 -0.10034444 53.56560898 -0.10573006 C55.61521612 -0.11295983 57.66473768 -0.11399012 59.71435547 -0.11352539 C61.466418 -0.11685631 61.466418 -0.11685631 63.25387573 -0.12025452 C66 0 66 0 68 1 C68 1.66 68 2.32 68 3 C66.35 3 64.7 3 63 3 C63 2.34 63 1.68 63 1 C42.21 1 21.42 1 0 1 C0 0.67 0 0.34 0 0 Z " fill="#0ABFFD" transform="translate(176,91)"/>
<path d="M0 0 C0.58007812 0.20496094 1.16015625 0.40992188 1.7578125 0.62109375 C2.53898438 0.89050781 3.32015625 1.15992188 4.125 1.4375 C4.89070312 1.70433594 5.65640625 1.97117187 6.4453125 2.24609375 C18.1615241 5.7036302 30.19046226 4.95339046 41.5234375 0.77734375 C44 0 44 0 46 1 C45.01 1.33 44.02 1.66 43 2 C43 2.66 43 3.32 43 4 C36.55445317 6.31781125 30.42823907 6.33255672 23.625 6.3125 C21.99691406 6.33666992 21.99691406 6.33666992 20.3359375 6.36132812 C12.87144281 6.36583567 6.69573456 5.34786728 0 2 C0 1.34 0 0.68 0 0 Z " fill="#C8F5FD" transform="translate(233,459)"/>
<path d="M0 0 C1.38788374 2.77576747 0.67001586 4.34933276 0.0625 7.375 C-1.58532667 16.75752326 -1.45501088 25.33485416 0.66015625 34.625 C1.01331375 37.09304323 0.77681702 38.65325207 0 41 C-2.48911818 35.89693696 -3.38330236 32.16221541 -3.3984375 26.38671875 C-3.40130768 25.69109329 -3.40417786 24.99546783 -3.40713501 24.27876282 C-3.40916132 22.82247087 -3.40373261 21.36615079 -3.39111328 19.90991211 C-3.37491416 17.67566031 -3.39107099 15.44318375 -3.41015625 13.20898438 C-3.40817595 11.78905851 -3.40433669 10.36913374 -3.3984375 8.94921875 C-3.39336182 7.02082153 -3.39336182 7.02082153 -3.38818359 5.0534668 C-3.26008301 4.04582275 -3.13198242 3.03817871 -3 2 C-2.01 1.34 -1.02 0.68 0 0 Z " fill="#CDF9FE" transform="translate(78,262)"/>
<path d="M0 0 C0.33 0.66 0.66 1.32 1 2 C0.01 2 -0.98 2 -2 2 C-2 2.66 -2 3.32 -2 4 C-4.01822917 4.390625 -6.03645833 4.78125 -8.0546875 5.171875 C-10.19540239 5.82610344 -10.19540239 5.82610344 -10.9375 8.03125 C-11.4634375 9.00578125 -11.4634375 9.00578125 -12 10 C-14.3828125 10.609375 -14.3828125 10.609375 -17.125 10.75 C-18.03507813 10.80671875 -18.94515625 10.8634375 -19.8828125 10.921875 C-20.58148438 10.94765625 -21.28015625 10.9734375 -22 11 C-22 11.66 -22 12.32 -22 13 C-23.98 13.33 -25.96 13.66 -28 14 C-24.61246009 11.03590258 -21.27549495 9.05444836 -17.25 7.1484375 C-13.81697776 5.39616573 -10.6202168 3.27716896 -7.39453125 1.171875 C-4.71114915 -0.14136257 -2.94872136 -0.23045069 0 0 Z " fill="#2DBAEC" transform="translate(178,62)"/>
<path d="M0 0 C-18.34042553 10.95744681 -18.34042553 10.95744681 -27 15 C-25.76736651 11.30209954 -24.79947549 11.0645154 -21.4375 9.3125 C-20.61121094 8.87550781 -19.78492188 8.43851563 -18.93359375 7.98828125 C-18.29550781 7.66214844 -17.65742188 7.33601563 -17 7 C-17 5.35 -17 3.7 -17 2 C-13 3 -13 3 -9 4 C-9.33 3.01 -9.66 2.02 -10 1 C-8.71073008 0.63720544 -7.41846728 0.28503302 -6.125 -0.0625 C-5.04605469 -0.35833984 -5.04605469 -0.35833984 -3.9453125 -0.66015625 C-2 -1 -2 -1 0 0 Z " fill="#1DB9F2" transform="translate(228,48)"/>
<path d="M0 0 C2.36099475 2.25400103 4.33772529 4.65328475 6.3125 7.25 C9.41770108 11.2867614 12.65242454 15.16253545 16 19 C13.5625 18.625 13.5625 18.625 11 18 C10.67 17.34 10.34 16.68 10 16 C9.01 15.67 8.02 15.34 7 15 C7 15.66 7 16.32 7 17 C6.34 17 5.68 17 5 17 C5.33 15.02 5.66 13.04 6 11 C5.34 11 4.68 11 4 11 C3.896875 10.360625 3.79375 9.72125 3.6875 9.0625 C3.460625 8.381875 3.23375 7.70125 3 7 C2.01 6.67 1.02 6.34 0 6 C0 4.02 0 2.04 0 0 Z " fill="#D0F8FD" transform="translate(86,319)"/>
<path d="M0 0 C0.33 0.99 0.66 1.98 1 3 C-3.08443115 4.53166168 -6.79455657 3.63081652 -11 3 C-11 2.34 -11 1.68 -11 1 C-12.32 1 -13.64 1 -15 1 C-14.67 0.01 -14.34 -0.98 -14 -2 C-9.1277015 -3.6240995 -4.66923994 -1.91014361 0 0 Z " fill="#FBFCFC" transform="translate(203,306)"/>
<path d="M0 0 C1.43861294 0.08746284 2.87597508 0.19565348 4.3125 0.3125 C5.11300781 0.37050781 5.91351563 0.42851562 6.73828125 0.48828125 C9.39401042 1.08914571 10.16088912 2.07729318 12 4 C14.65466049 3.76956136 14.65466049 3.76956136 17 3 C17 3.66 17 4.32 17 5 C17.66 5.33 18.32 5.66 19 6 C18.01 6.99 17.02 7.98 16 9 C17.32 9.33 18.64 9.66 20 10 C20.33 11.65 20.66 13.3 21 15 C20.071875 14.154375 19.14375 13.30875 18.1875 12.4375 C13.48887568 8.39226311 8.26186014 5.25095818 3 2 C2.01 1.34 1.02 0.68 0 0 Z " fill="#F2FCFD" transform="translate(267,320)"/>
<path d="M0 0 C5.9057882 1.55415479 10.97738893 4.59534467 16 8 C16 8.33 16 8.66 16 9 C14.35 9 12.7 9 11 9 C11 8.34 11 7.68 11 7 C7.51750769 8.25756667 4.93534151 9.7731892 2 12 C1.34 12 0.68 12 0 12 C-0.33 10.68 -0.66 9.36 -1 8 C0.32 8 1.64 8 3 8 C3 7.34 3 6.68 3 6 C3.99 6 4.98 6 6 6 C6 5.34 6 4.68 6 4 C4.02 4 2.04 4 0 4 C0 2.68 0 1.36 0 0 Z " fill="#1DB9F3" transform="translate(336,64)"/>
<path d="M0 0 C5 2 5 2 6 4 C4.35 3.67 2.7 3.34 1 3 C1 18.84 1 34.68 1 51 C0.67 51 0.34 51 0 51 C0 34.17 0 17.34 0 0 Z " fill="#D5FEFF" transform="translate(262,38)"/>
<path d="M0 0 C10.44887547 1.21035361 18.16851708 8.4638369 25 16 C24.34 16.33 23.68 16.66 23 17 C22.01 16.67 21.02 16.34 20 16 C19.67 15.01 19.34 14.02 19 13 C16.98491642 12.26676204 16.98491642 12.26676204 15 12 C15 10.68 15 9.36 15 8 C11.9535277 6.66716837 9.05608311 5.78671459 5.8125 5.125 C2 4 2 4 0.5 1.875 C0.335 1.25625 0.17 0.6375 0 0 Z " fill="#2FB6E9" transform="translate(264,320)"/>
<path d="M0 0 C9.24 0 18.48 0 28 0 C29.125 6.75 29.125 6.75 28.5625 10.875 C28.46066406 11.65617187 28.35882813 12.43734375 28.25390625 13.2421875 C28.17011719 13.82226562 28.08632813 14.40234375 28 15 C27.34 15 26.68 15 26 15 C26 10.38 26 5.76 26 1 C17.42 1 8.84 1 0 1 C0 0.67 0 0.34 0 0 Z " fill="#BFF0FC" transform="translate(381,89)"/>
<path d="M0 0 C0.66 0.33 1.32 0.66 2 1 C-0.35755565 3.65225011 -2.69380943 5.45485653 -5.75 7.1875 C-12.59216091 11.3311638 -17.96585196 17.60426415 -21 25 C-21.66 25 -22.32 25 -23 25 C-19.83718969 14.879007 -10.82390847 6.95890139 -2.31640625 1.17578125 C-1.55199219 0.78777344 -0.78757812 0.39976562 0 0 Z " fill="#3AB6DD" transform="translate(104,351)"/>
<path d="M0 0 C1.32 0.33 2.64 0.66 4 1 C3.41992188 1.47308594 2.83984375 1.94617188 2.2421875 2.43359375 C-2.73422439 6.64629887 -6.51488883 10.73559497 -9.90625 16.3125 C-10.2671875 16.869375 -10.628125 17.42625 -11 18 C-11.33 18 -11.66 18 -12 18 C-12 16.35 -12 14.7 -12 13 C-11.34 13 -10.68 13 -10 13 C-10 12.34 -10 11.68 -10 11 C-9.34 11 -8.68 11 -8 11 C-8.226875 10.236875 -8.45375 9.47375 -8.6875 8.6875 C-8.790625 7.800625 -8.89375 6.91375 -9 6 C-7.5625 4.1875 -7.5625 4.1875 -6 3 C-6 3.66 -6 4.32 -6 5 C-2.83884224 3.63016497 -2.0072908 3.0109362 0 0 Z " fill="#29B9E9" transform="translate(141,310)"/>
<path d="M0 0 C2.64 0.66 5.28 1.32 8 2 C4.15651589 5.25048942 0.17601471 7.78782869 -4.1875 10.25 C-5.13012695 10.79527344 -5.13012695 10.79527344 -6.09179688 11.3515625 C-10.74647556 14 -10.74647556 14 -13 14 C-13 13.34 -13 12.68 -13 12 C-13.99 11.67 -14.98 11.34 -16 11 C-15.67 10.34 -15.34 9.68 -15 9 C-14.195625 9.268125 -13.39125 9.53625 -12.5625 9.8125 C-7.42318481 10.08299027 -4.22989525 7.71653273 0 5 C0 3.35 0 1.7 0 0 Z " fill="#29B3E8" transform="translate(184,66)"/>
<path d="M0 0 C0 0.66 0 1.32 0 2 C-2.76382738 4.45673545 -5.56433594 5.71162598 -9 7 C-11.23470405 7.78309467 -11.23470405 7.78309467 -13 9 C-13.12375 9.598125 -13.2475 10.19625 -13.375 10.8125 C-14.38910365 14.36186277 -17.11891407 15.79321078 -20 18 C-20.66 17.67 -21.32 17.34 -22 17 C-8.14688129 0 -8.14688129 0 0 0 Z " fill="#CBF6FE" transform="translate(155,305)"/>
<path d="M0 0 C3.00617269 3.00617269 2.59585316 5.82381598 3 10 C3.66 10 4.32 10 5 10 C5 19.57 5 29.14 5 39 C4.67 39 4.34 39 4 39 C3.98598145 38.00371582 3.98598145 38.00371582 3.97167969 36.98730469 C3.97485351 20.65529868 3.97485351 20.65529868 -0.2578125 5.07421875 C-1 3 -1 3 0 0 Z " fill="#BDF0FB" transform="translate(218,253)"/>
<path d="M0 0 C8.89687136 4.30178395 17.46627358 9.02620087 26 14 C25.01 14.33 24.02 14.66 23 15 C22.21625 14.525625 21.4325 14.05125 20.625 13.5625 C17.75303959 11.85299976 16.27160958 11.71957632 13 12 C12.773125 11.21625 12.54625 10.4325 12.3125 9.625 C11.24295873 6.84905202 11.24295873 6.84905202 8.75 5.8125 C7.8425 5.544375 6.935 5.27625 6 5 C4.906875 4.62875 3.81375 4.2575 2.6875 3.875 C1.800625 3.58625 0.91375 3.2975 0 3 C0 2.01 0 1.02 0 0 Z " fill="#27B8E5" transform="translate(305,46)"/>
<path d="M0 0 C1.97956441 0.14033111 3.95865141 0.2874123 5.9375 0.4375 C7.03964844 0.51871094 8.14179688 0.59992188 9.27734375 0.68359375 C12 1 12 1 13 2 C20.35152271 2.46116563 27.69488327 1.7912699 35 1 C29.75014626 3.81242165 25.22627692 4.1943685 19.3125 4.1875 C18.24491455 4.1862915 18.24491455 4.1862915 17.15576172 4.18505859 C4.03263789 4.03263789 4.03263789 4.03263789 0 0 Z " fill="#38BBE4" transform="translate(237,460)"/>
<path d="M0 0 C-0.61746094 0.268125 -1.23492187 0.53625 -1.87109375 0.8125 C-8.61066343 3.93096146 -13.69193849 7.83297394 -19 13 C-19.66 12.67 -20.32 12.34 -21 12 C-19.79618552 9.50638429 -18.54571278 7.31856917 -17 5 C-15.68 5.33 -14.36 5.66 -13 6 C-13 5.34 -13 4.68 -13 4 C-3.92465753 -1.30821918 -3.92465753 -1.30821918 0 0 Z " fill="#E4F8FE" transform="translate(109,350)"/>
<path d="M0 0 C-0.24767574 3.34362255 -1.27924452 4.28573857 -3.6875 6.75 C-6.21047249 8.74760776 -6.99158949 8.99922125 -10.375 9.3125 C-11.24125 9.209375 -12.1075 9.10625 -13 9 C-11.56356879 5.34646845 -9.94164969 4.06021834 -6.5 2.25 C-5.7059375 1.82203125 -4.911875 1.3940625 -4.09375 0.953125 C-2 0 -2 0 0 0 Z " fill="#E1FBFE" transform="translate(173,80)"/>
<path d="M0 0 C0.66 0.33 1.32 0.66 2 1 C1.01 3.97 0.02 6.94 -1 10 C-4.96 10 -8.92 10 -13 10 C-13 9.34 -13 8.68 -13 8 C-10.03 8 -7.06 8 -4 8 C-4 6.35 -4 4.7 -4 3 C-3.01 2.67 -2.02 2.34 -1 2 C-0.67 1.34 -0.34 0.68 0 0 Z " fill="#2FB8E6" transform="translate(127,329)"/>
<path d="M0 0 C0.33 0 0.66 0 1 0 C1.06058594 1.10859375 1.12117188 2.2171875 1.18359375 3.359375 C1.26802951 4.8229282 1.35267599 6.28646925 1.4375 7.75 C1.47681641 8.47960937 1.51613281 9.20921875 1.55664062 9.9609375 C1.77931577 14.05544426 1.77931577 14.05544426 2.54711914 18.07128906 C3.14072887 20.59933048 2.6226446 22.50942162 2 25 C1.01 25.33 0.02 25.66 -1 26 C-1.33 25.67 -1.66 25.34 -2 25 C-1.94594167 23.14186259 -1.81838247 21.28577122 -1.66015625 19.43359375 C-1.56669922 18.30888672 -1.47324219 17.18417969 -1.37695312 16.02539062 C-1.27318359 14.84138672 -1.16941406 13.65738281 -1.0625 12.4375 C-0.96259766 11.24962891 -0.86269531 10.06175781 -0.75976562 8.83789062 C-0.51127391 5.89148889 -0.25779913 2.94559961 0 0 Z " fill="#CEFAFD" transform="translate(299,360)"/>
<path d="M0 0 C3.58370231 1.19456744 3.82398178 1.97463969 5.6875 5.125 C8.40452404 9.40533686 11.43049581 12.42114234 15.36328125 15.58984375 C17 17 17 17 18 19 C18.99 19.66 19.98 20.32 21 21 C15.88218453 20.65127224 13.30584118 17.84184365 9.9375 14.3125 C9.42123047 13.79494141 8.90496094 13.27738281 8.37304688 12.74414062 C0 4.17910032 0 4.17910032 0 0 Z " fill="#3CB7E1" transform="translate(88,320)"/>
<path d="M0 0 C0.33 0 0.66 0 1 0 C1 2.31 1 4.62 1 7 C-10.88 7 -22.76 7 -35 7 C-35 6.67 -35 6.34 -35 6 C-24.11 5.67 -13.22 5.34 -2 5 C-1.34 3.35 -0.68 1.7 0 0 Z " fill="#17B3EB" transform="translate(210,232)"/>
<path d="M0 0 C-0.33 1.32 -0.66 2.64 -1 4 C-3.97 4.66 -6.94 5.32 -10 6 C-10 6.66 -10 7.32 -10 8 C-12.31 8.33 -14.62 8.66 -17 9 C-12.38337183 4.97906579 -6.32944487 0 0 0 Z " fill="#27BCEA" transform="translate(145,80)"/>
<path d="M0 0 C-5.41176471 9.47058824 -5.41176471 9.47058824 -10 11 C-10 10.34 -10 9.68 -10 9 C-9.34 9 -8.68 9 -8 9 C-8.020625 8.071875 -8.04125 7.14375 -8.0625 6.1875 C-8 3 -8 3 -7 0 C-4.3333581 -1.33332095 -2.83319697 -0.67102033 0 0 Z " fill="#27BBF0" transform="translate(298,441)"/>
<path d="M0 0 C-1.6344795 1.96446905 -2.46429394 2.92317791 -5.04296875 3.29296875 C-8.02148438 3.14648438 -8.02148438 3.14648438 -11 3 C-11 3.66 -11 4.32 -11 5 C-11.99 5 -12.98 5 -14 5 C-14 4.34 -14 3.68 -14 3 C-16.64 3 -19.28 3 -22 3 C-21.67 2.34 -21.34 1.68 -21 1 C-14.14186839 -0.59491433 -6.99707158 -0.08734209 0 0 Z " fill="#D6FBFE" transform="translate(126,339)"/>
<path d="M0 0 C-2.18274725 0.97505943 -4.3668522 1.94654854 -6.5546875 2.91015625 C-8.02659945 3.56616812 -9.49247821 4.23634998 -10.9453125 4.93359375 C-14.79436162 6.73729614 -17.76218426 7.31008408 -22 7 C-22.33 6.01 -22.66 5.02 -23 4 C-23.66 4 -24.32 4 -25 4 C-25 3.34 -25 2.68 -25 2 C-24.4225 2.309375 -23.845 2.61875 -23.25 2.9375 C-21.03695007 3.98255135 -19.42378412 4.68234068 -17 5 C-14.45701215 4.07280167 -14.45701215 4.07280167 -11.9375 2.625 C-4.47925704 -1.39011425 -4.47925704 -1.39011425 0 0 Z " fill="#3EBBE2" transform="translate(239,319)"/>
<path d="M0 0 C2.64 0.33 5.28 0.66 8 1 C8.33 1.99 8.66 2.98 9 4 C12.43515002 4.62457273 15.49064814 5 19 5 C19 5.66 19 6.32 19 7 C18.01 7 17.02 7 16 7 C16 7.66 16 8.32 16 9 C12.20950293 7.57250019 8.72877544 5.83763458 5.1875 3.875 C4.21167969 3.33617187 3.23585938 2.79734375 2.23046875 2.2421875 C1.49441406 1.83226562 0.75835937 1.42234375 0 1 C0 0.67 0 0.34 0 0 Z " fill="#2FBBEA" transform="translate(293,55)"/>
<path d="M0 0 C0 0.33 0 0.66 0 1 C-0.83402344 1.03738281 -1.66804688 1.07476562 -2.52734375 1.11328125 C-8.79912378 1.4796739 -14.24326356 2.13729244 -20.12109375 4.3671875 C-22.46660518 5.15715185 -24.54547532 5.23753465 -27 5 C-27 5.66 -27 6.32 -27 7 C-28.65 7 -30.3 7 -32 7 C-22.93512199 -0.55045925 -11.16844938 -0.55610536 0 0 Z " fill="#43BFE5" transform="translate(188,308)"/>
<path d="M0 0 C4.39383706 1.59623144 8.28995807 3.78024333 12.3125 6.125 C12.95767578 6.49753906 13.60285156 6.87007812 14.26757812 7.25390625 C15.84675945 8.16632213 17.42361864 9.08275509 19 10 C19 10.33 19 10.66 19 11 C16.6875 11.1875 16.6875 11.1875 14 11 C13 10 12 9 11 8 C8.69011685 7.25613932 6.35684056 6.57809297 4 6 C4 5.01 4 4.02 4 3 C2.68 2.67 1.36 2.34 0 2 C0 1.34 0 0.68 0 0 Z " fill="#CCFAFE" transform="translate(276,46)"/>
<path d="M0 0 C1.01767676 3.16610547 0.79242075 4.83031702 0 8 C0 9.35432691 0.02290225 10.70875209 0.0625 12.0625 C0 16 0 16 -2 19 C-2.45772063 21.73872955 -2.45772063 21.73872955 -2.625 24.6875 C-2.69976562 25.68136719 -2.77453125 26.67523438 -2.8515625 27.69921875 C-2.90054688 28.45847656 -2.94953125 29.21773438 -3 30 C-3.33 30 -3.66 30 -4 30 C-4.47765748 20.65914258 -4.29957904 8.59915807 0 0 Z " fill="#3FBEEC" transform="translate(80,258)"/>
<path d="M0 0 C3.15207323 0.41113999 5.98104753 0.99368251 9 2 C9 2.66 9 3.32 9 4 C8.01 4 7.02 4 6 4 C6 4.66 6 5.32 6 6 C3 8 3 8 0 8 C0.50603992 5.83125748 0.99983813 4.00032373 2 2 C1.01 1.67 0.02 1.34 -1 1 C-0.67 0.67 -0.34 0.34 0 0 Z " fill="#0EC0F8" transform="translate(286,38)"/>
<path d="M0 0 C0 2 0 2 -1.21484375 3.47265625 C-5.93150842 7.82567784 -9.61520942 8.97104403 -16 9 C-11.97806144 5.49702126 -5.60566856 0 0 0 Z " fill="#30BBE9" transform="translate(234,28)"/>
<path d="M0 0 C0.66 0 1.32 0 2 0 C2 3.3 2 6.6 2 10 C2.99 9.67 3.98 9.34 5 9 C5 11.31 5 13.62 5 16 C1.28576708 12.79807507 -0.3324251 9.58583098 -2 5 C-2 4.01 -2 3.02 -2 2 C-1.34 2 -0.68 2 0 2 C0 1.34 0 0.68 0 0 Z " fill="#28BCE7" transform="translate(83,304)"/>
<path d="M0 0 C2.97 0 5.94 0 9 0 C9.33 1.32 9.66 2.64 10 4 C12.31 4.66 14.62 5.32 17 6 C15.265625 7.140625 15.265625 7.140625 13 8 C10.859375 7.171875 10.859375 7.171875 8.75 5.75 C8.04359375 5.29109375 7.3371875 4.8321875 6.609375 4.359375 C6.07828125 3.91078125 5.5471875 3.4621875 5 3 C5 2.34 5 1.68 5 1 C3.02 1.99 1.04 2.98 -1 4 C-0.67 2.68 -0.34 1.36 0 0 Z " fill="#38BDE7" transform="translate(221,452)"/>
<path d="M0 0 C0.66 0.33 1.32 0.66 2 1 C-1.39289152 6.08933728 -7.15474235 8.50320113 -13 10 C-13.66 9.67 -14.32 9.34 -15 9 C-13.25156882 7.87256334 -11.5011906 6.7481458 -9.75 5.625 C-8.77546875 4.99851562 -7.8009375 4.37203125 -6.796875 3.7265625 C-2.18608936 0.88023952 -2.18608936 0.88023952 0 0 Z " fill="#C2F5FC" transform="translate(242,39)"/>
<path d="M0 0 C1.31571603 0.2547514 2.62760376 0.52934141 3.9375 0.8125 C4.66839844 0.96332031 5.39929688 1.11414063 6.15234375 1.26953125 C6.76207031 1.51058594 7.37179688 1.75164062 8 2 C8.33 2.99 8.66 3.98 9 5 C6 7 6 7 2 7 C0 1.125 0 1.125 0 0 Z " fill="#20BCEE" transform="translate(153,81)"/>
<path d="M0 0 C0.33 0 0.66 0 1 0 C1.05425013 2.87525669 1.09379277 5.74947646 1.125 8.625 C1.14175781 9.43324219 1.15851563 10.24148438 1.17578125 11.07421875 C1.21420986 15.80093815 0.82737094 19.55387702 -1 24 C-1.33 24 -1.66 24 -2 24 C-2.09765625 17.84765625 -2.09765625 17.84765625 -2 16 C-1.67 15.67 -1.34 15.34 -1 15 C-0.76346477 12.47403741 -0.57826308 9.96892793 -0.4375 7.4375 C-0.39431641 6.72658203 -0.35113281 6.01566406 -0.30664062 5.28320312 C-0.20028223 3.52238088 -0.09961154 1.7612168 0 0 Z " fill="#32B7E6" transform="translate(305,406)"/>
<path d="M0 0 C3.41207292 1.22363994 4.99717693 3.03182172 7.265625 5.8125 C6.151875 5.3484375 6.151875 5.3484375 5.015625 4.875 C0.21169376 2.92233382 0.21169376 2.92233382 -4.734375 3.8125 C-6.054375 2.4925 -7.374375 1.1725 -8.734375 -0.1875 C-5.67036368 -1.71950566 -3.24833431 -0.75445184 0 0 Z " fill="#1CBAEF" transform="translate(205.734375,314.1875)"/>
<path d="M0 0 C2.31 0 4.62 0 7 0 C7 1.65 7 3.3 7 5 C4.69 4.67 2.38 4.34 0 4 C0 2.68 0 1.36 0 0 Z " fill="#0EC2F0" transform="translate(275,310)"/>
<path d="M0 0 C0.66 0 1.32 0 2 0 C2 0.66 2 1.32 2 2 C2.99 2.33 3.98 2.66 5 3 C3.54634731 4.17249353 2.08692581 5.33783816 0.625 6.5 C-0.18710938 7.1496875 -0.99921875 7.799375 -1.8359375 8.46875 C-4 10 -4 10 -6 10 C-6 9.01 -6 8.02 -6 7 C-4.68 7 -3.36 7 -2 7 C-2 6.34 -2 5.68 -2 5 C-1.34 5 -0.68 5 0 5 C0 3.35 0 1.7 0 0 Z " fill="#2ABAED" transform="translate(214,456)"/>
<path d="M0 0 C0.66 0 1.32 0 2 0 C2 1.65 2 3.3 2 5 C2.763125 5.28875 3.52625 5.5775 4.3125 5.875 C7 7 7 7 10 9 C10 9.66 10 10.32 10 11 C3 8.4 3 8.4 0 6 C-0.3125 2.8125 -0.3125 2.8125 0 0 Z " fill="#34BFE6" transform="translate(262,32)"/>
<path d="M0 0 C3.80635497 3.20760251 7.54563567 6.40746109 11 10 C8.04101995 9.86237302 5.79204004 9.67947621 3.48828125 7.703125 C1.17797949 5.02873556 0 3.60122522 0 0 Z " fill="#D0F9FE" transform="translate(88,430)"/>
<path d="M0 0 C1.5625 1.75 1.5625 1.75 3 4 C2.6875 6.25 2.6875 6.25 2 8 C-0.31 8.33 -2.62 8.66 -5 9 C-4.67 7.35 -4.34 5.7 -4 4 C-3.01 4 -2.02 4 -1 4 C-0.67 2.68 -0.34 1.36 0 0 Z " fill="#21BBED" transform="translate(293,344)"/>
<path d="M0 0 C2.33944736 0.28730055 4.6739143 0.61936779 7 1 C7.33 1.99 7.66 2.98 8 4 C5.75 4.75 5.75 4.75 3 5 C0.6875 3.0625 0.6875 3.0625 -1 1 C-0.67 0.67 -0.34 0.34 0 0 Z " fill="#09C3F8" transform="translate(313,57)"/>
<path d="M0 0 C-0.33 1.65 -0.66 3.3 -1 5 C-4.3 5 -7.6 5 -11 5 C-11 4.34 -11 3.68 -11 3 C-9.54293274 2.49632243 -8.08429904 1.99717444 -6.625 1.5 C-5.81289062 1.2215625 -5.00078125 0.943125 -4.1640625 0.65625 C-2 0 -2 0 0 0 Z " fill="#DEF9FE" transform="translate(205,469)"/>
<path d="M0 0 C0.53367188 0.19335938 1.06734375 0.38671875 1.6171875 0.5859375 C7.34292699 2.58697448 13.03133562 3.94084244 19 5 C19 5.33 19 5.66 19 6 C12.01256592 6.38113277 6.27882515 5.13941257 0 2 C0 1.34 0 0.68 0 0 Z " fill="#D7FAFF" transform="translate(233,459)"/>
<path d="M0 0 C1.91740583 0.78987473 3.83389641 1.58197148 5.75 2.375 C7.35101563 3.03628906 7.35101563 3.03628906 8.984375 3.7109375 C11.37555926 4.73307585 13.69383183 5.80213595 16 7 C9.741346 7.5326514 5.54891215 5.81849506 0 3 C0 2.01 0 1.02 0 0 Z " fill="#D2FBFE" transform="translate(100,440)"/>
<path d="M0 0 C3.33059637 4.44079517 4.0532383 6.66370676 5 12 C4.34 12.66 3.68 13.32 3 14 C2.67 12.68 2.34 11.36 2 10 C1.34 10 0.68 10 0 10 C0 6.7 0 3.4 0 0 Z " fill="#34BBED" transform="translate(300,390)"/>
<path d="M0 0 C0.33 0 0.66 0 1 0 C1 6.6 1 13.2 1 20 C0.34 20 -0.32 20 -1 20 C-1 20.66 -1 21.32 -1 22 C-1.66 22 -2.32 22 -3 22 C-2.68289062 21.35675781 -2.36578125 20.71351562 -2.0390625 20.05078125 C-0.68561702 16.07694321 -0.54279839 12.35798921 -0.375 8.1875 C-0.33632812 7.39923828 -0.29765625 6.61097656 -0.2578125 5.79882812 C-0.16411156 3.8662462 -0.08099221 1.93315624 0 0 Z " fill="#CCFCFF" transform="translate(246,0)"/>
<path d="M0 0 C0.33 0.66 0.66 1.32 1 2 C-0.51957803 5.48609078 -1.79086861 6.87196038 -5.0625 8.875 C-6.5165625 9.431875 -6.5165625 9.431875 -8 10 C-8.66 9.67 -9.32 9.34 -10 9 C-9.44570313 8.60167969 -8.89140625 8.20335937 -8.3203125 7.79296875 C-7.59585937 7.26316406 -6.87140625 6.73335938 -6.125 6.1875 C-5.40570313 5.66542969 -4.68640625 5.14335937 -3.9453125 4.60546875 C-1.76971345 2.96727223 -1.76971345 2.96727223 0 0 Z " fill="#BFF3FE" transform="translate(294,446)"/>
<path d="M0 0 C2.2927965 1.1220068 4.4502868 2.27874897 6.625 3.625 C8.83109005 5.16701209 8.83109005 5.16701209 11 5 C11.33 6.32 11.66 7.64 12 9 C6.03648545 7.72210402 3.51582826 4.66283606 0 0 Z " fill="#3CB9E5" transform="translate(91,432)"/>
<path d="M0 0 C4.43090471 1.20842856 6.98112756 2.51668565 10 6 C6.7 5.34 3.4 4.68 0 4 C0 2.68 0 1.36 0 0 Z " fill="#2EB8E6" transform="translate(336,64)"/>
<path d="M0 0 C-6.93 3.465 -6.93 3.465 -14 7 C-12.79476952 3.38430856 -11.92814436 3.05330455 -8.6875 1.25 C-7.90761719 0.80140625 -7.12773437 0.3528125 -6.32421875 -0.109375 C-4 -1 -4 -1 0 0 Z " fill="#33B8E4" transform="translate(215,56)"/>
<path d="M0 0 C0.33 0.66 0.66 1.32 1 2 C0 5 0 5 -2 6 C-3.99960012 6.039992 -6.00047242 6.04346799 -8 6 C-5.63379989 3.38472619 -3.057952 1.73559438 0 0 Z " fill="#C1F5FE" transform="translate(213,463)"/>
<path d="M0 0 C0.66 0.33 1.32 0.66 2 1 C-0.98232523 4.32643967 -3.86370087 6.29152862 -8 8 C-8.66 7.67 -9.32 7.34 -10 7 C-6.7 4.69 -3.4 2.38 0 0 Z " fill="#43BBE5" transform="translate(104,351)"/>
<path d="M0 0 C0.33 1.32 0.66 2.64 1 4 C0.34 4 -0.32 4 -1 4 C-1 6.64 -1 9.28 -1 12 C-1.99 12 -2.98 12 -4 12 C-3.71640113 10.5608866 -3.42278601 9.12374482 -3.125 7.6875 C-2.96257812 6.88699219 -2.80015625 6.08648437 -2.6328125 5.26171875 C-2 3 -2 3 0 0 Z " fill="#C1F4FE" transform="translate(130,327)"/>
<path d="M0 0 C1.43861294 0.08746284 2.87597508 0.19565348 4.3125 0.3125 C5.11300781 0.37050781 5.91351563 0.42851562 6.73828125 0.48828125 C9.36272334 1.08206694 10.30820672 1.95780294 12 4 C11.67 4.99 11.34 5.98 11 7 C9.72881136 6.20890398 8.45806377 5.41709922 7.1875 4.625 C6.47980469 4.18414062 5.77210938 3.74328125 5.04296875 3.2890625 C3.34567961 2.21811524 1.66985642 1.11323761 0 0 Z " fill="#C1F6FE" transform="translate(267,320)"/>
<path d="M0 0 C-0.68707031 0.33773438 -1.37414062 0.67546875 -2.08203125 1.0234375 C-2.98308594 1.46945312 -3.88414063 1.91546875 -4.8125 2.375 C-6.15248047 3.03628906 -6.15248047 3.03628906 -7.51953125 3.7109375 C-10.14556381 5.01866905 -10.14556381 5.01866905 -13 7 C-13 6.01 -13 5.02 -13 4 C-3.92465753 -1.30821918 -3.92465753 -1.30821918 0 0 Z " fill="#D1FAFF" transform="translate(109,350)"/>
<path d="M0 0 C5.12583611 -0.10251672 9.94997778 -0.03590199 15 1 C15 1.33 15 1.66 15 2 C13.25181409 2.22304441 11.50129677 2.4278645 9.75 2.625 C8.77546875 2.74101562 7.8009375 2.85703125 6.796875 2.9765625 C3.86570607 3.00112537 2.45471036 2.5312717 0 1 C0 0.67 0 0.34 0 0 Z " fill="#CBF8FC" transform="translate(247,310)"/>
<path d="M0 0 C2.34914492 2.34914492 2.73140357 3.95679446 3.625 7.125 C3.88539062 8.03507812 4.14578125 8.94515625 4.4140625 9.8828125 C4.70410156 10.93082031 4.70410156 10.93082031 5 12 C4.01 11.67 3.02 11.34 2 11 C2 9.68 2 8.36 2 7 C1.34 7 0.68 7 0 7 C0 4.69 0 2.38 0 0 Z " fill="#D4F8FE" transform="translate(79,304)"/>
<path d="M0 0 C0.99 0 1.98 0 3 0 C3 2.31 3 4.62 3 7 C1.68 7 0.36 7 -1 7 C-0.67 4.69 -0.34 2.38 0 0 Z " fill="#08C5F4" transform="translate(402,96)"/>
<path d="M0 0 C-0.25 1.875 -0.25 1.875 -1 4 C-2.8125 5.375 -2.8125 5.375 -5 6 C-7.25 5.125 -7.25 5.125 -9 4 C-2.25 0 -2.25 0 0 0 Z " fill="#D0F8FC" transform="translate(173,80)"/>
<path d="M0 0 C-1.38782485 0.8466034 -2.78569397 1.67675339 -4.1875 2.5 C-4.96480469 2.9640625 -5.74210938 3.428125 -6.54296875 3.90625 C-9.24103386 5.10729647 -11.0806982 5.20741043 -14 5 C-9.94779194 1.59614523 -5.27662976 -1.75887659 0 0 Z " fill="#3CB9E7" transform="translate(208,467)"/>
<path d="M0 0 C4.875 4.625 4.875 4.625 6 8 C4.35 7.67 2.7 7.34 1 7 C0.67 4.69 0.34 2.38 0 0 Z " fill="#D0F8FD" transform="translate(82,422)"/>
<path d="M0 0 C3.3 1.65 6.6 3.3 10 5 C10 5.33 10 5.66 10 6 C6.67179946 6.22692276 4.58198664 6.32162419 1.625 4.6875 C0 3 0 3 0 0 Z " fill="#CEFAFE" transform="translate(152,464)"/>
<path d="M0 0 C2.475 0.99 2.475 0.99 5 2 C3.75 3.5 3.75 3.5 2 5 C0.68 5 -0.64 5 -2 5 C-1.125 1.125 -1.125 1.125 0 0 Z " fill="#26B8ED" transform="translate(331,61)"/>
<path d="M0 0 C0.95465783 2.16967689 1.14401212 3.56328793 0.3984375 5.82421875 C-0.35870385 7.5684743 -1.17609198 9.28627131 -2 11 C-2.66 11 -3.32 11 -4 11 C-3.52269162 9.5410574 -3.04308958 8.08286504 -2.5625 6.625 C-2.29566406 5.81289063 -2.02882813 5.00078125 -1.75390625 4.1640625 C-1 2 -1 2 0 0 Z " fill="#C0F4FC" transform="translate(304,428)"/>
<path d="M0 0 C2.31 0 4.62 0 7 0 C7 0.99 7 1.98 7 3 C4.69 3 2.38 3 0 3 C0 2.01 0 1.02 0 0 Z " fill="#0AC3F9" transform="translate(192,292)"/>
<path d="M0 0 C2.64 0.66 5.28 1.32 8 2 C6.25 3.5625 6.25 3.5625 4 5 C1.75 4.6875 1.75 4.6875 0 4 C0 2.68 0 1.36 0 0 Z " fill="#1EB9E7" transform="translate(184,66)"/>
<path d="M0 0 C-0.33 1.32 -0.66 2.64 -1 4 C-3.64 4.33 -6.28 4.66 -9 5 C-2.87096774 0 -2.87096774 0 0 0 Z " fill="#CFF7FE" transform="translate(213,57)"/>
<path d="M0 0 C2.66666667 1.33333333 5.33333333 2.66666667 8 4 C8.33 3.34 8.66 2.68 9 2 C9 3.65 9 5.3 9 7 C5.18315774 5.44499019 2.80804268 2.96404505 0 0 Z " fill="#49BADF" transform="translate(278,316)"/>
<path d="M0 0 C3.00617269 3.00617269 2.59585316 5.82381598 3 10 C2.01 9.67 1.02 9.34 0 9 C0 6.03 0 3.06 0 0 Z " fill="#26B8E4" transform="translate(217,256)"/>
<path d="M0 0 C1.32 0 2.64 0 4 0 C4 0.66 4 1.32 4 2 C5.65 2.33 7.3 2.66 9 3 C9.33 3.99 9.66 4.98 10 6 C5.56909529 4.79157144 3.01887244 3.48331435 0 0 Z " fill="#B2F1FC" transform="translate(314,50)"/>
<path d="M0 0 C-2.97 1.65 -5.94 3.3 -9 5 C-9.33 3.68 -9.66 2.36 -10 1 C-8.71073008 0.63720544 -7.41846728 0.28503302 -6.125 -0.0625 C-5.40570313 -0.25972656 -4.68640625 -0.45695312 -3.9453125 -0.66015625 C-2 -1 -2 -1 0 0 Z " fill="#35B9E2" transform="translate(228,48)"/>
<path d="M0 0 C-0.99 0.33 -1.98 0.66 -3 1 C-3 1.66 -3 2.32 -3 3 C-4.32 3 -5.64 3 -7 3 C-7 2.34 -7 1.68 -7 1 C-7.66 0.67 -8.32 0.34 -9 0 C-3.375 -1.125 -3.375 -1.125 0 0 Z " fill="#43C7F6" transform="translate(176,471)"/>
<path d="M0 0 C1.98 0.66 3.96 1.32 6 2 C6.33 3.65 6.66 5.3 7 7 C5.83040013 6.02433888 4.66438823 5.044375 3.5 4.0625 C2.8503125 3.51722656 2.200625 2.97195313 1.53125 2.41015625 C1.0259375 1.94480469 0.520625 1.47945313 0 1 C0 0.67 0 0.34 0 0 Z " fill="#CEF5FD" transform="translate(281,328)"/>
<path d="M0 0 C2.83374881 3.20336822 3.5205537 5.78087253 4 10 C2 8.375 2 8.375 0 6 C-0.25 2.75 -0.25 2.75 0 0 Z " fill="#4CBCE3" transform="translate(213,246)"/>
<path d="M0 0 C2.66666667 1.33333333 5.33333333 2.66666667 8 4 C8 4.33 8 4.66 8 5 C6.02 5 4.04 5 2 5 C1.34 3.35 0.68 1.7 0 0 Z " fill="#D1F9FE" transform="translate(342,84)"/>
<path d="M0 0 C-2.97 1.65 -5.94 3.3 -9 5 C-9 4.01 -9 3.02 -9 2 C-8.01 2 -7.02 2 -6 2 C-6 1.34 -6 0.68 -6 0 C-4 -1 -4 -1 0 0 Z " fill="#C7F7FE" transform="translate(166,67)"/>
<path d="M0 0 C2.97 0 5.94 0 9 0 C8.34 1.32 7.68 2.64 7 4 C4.97954558 3.39816251 2.97888961 2.72693904 1 2 C0.67 1.34 0.34 0.68 0 0 Z " fill="#31BBED" transform="translate(309,64)"/>
<path d="M0 0 C0.66 1.32 1.32 2.64 2 4 C0.35 4.66 -1.3 5.32 -3 6 C-2.42655063 3.13275314 -2.1385485 2.1385485 0 0 Z " fill="#FCFAF0" transform="translate(294,450)"/>
<path d="M0 0 C2.31 0.33 4.62 0.66 7 1 C7.33 1.99 7.66 2.98 8 4 C5.64828869 3.40138258 3.3140622 2.73075648 1 2 C0.67 1.34 0.34 0.68 0 0 Z " fill="#3EBEE9" transform="translate(103,441)"/>
<path d="M0 0 C0 0.99 0 1.98 0 3 C-1.36125 2.9690625 -1.36125 2.9690625 -2.75 2.9375 C-5.42672588 2.9889755 -7.46988052 3.2215017 -10 4 C-8 1 -8 1 -5 0.3125 C-2 0 -2 0 0 0 Z " fill="#22B8E8" transform="translate(115,349)"/>
<path d="M0 0 C2.875 0.25 2.875 0.25 6 1 C7.375 3.0625 7.375 3.0625 8 5 C4.62496331 3.8141763 2.35277269 2.72426311 0 0 Z " fill="#C1F4FD" transform="translate(302,43)"/>
<path d="M0 0 C0.66 0.33 1.32 0.66 2 1 C1.6875 2.9375 1.6875 2.9375 1 5 C0.01 5.33 -0.98 5.66 -2 6 C-2.33 5.01 -2.66 4.02 -3 3 C-2.01 2.01 -1.02 1.02 0 0 Z " fill="#09BFFE" transform="translate(150,322)"/>
<path d="M0 0 C0.66 0 1.32 0 2 0 C2 2.31 2 4.62 2 7 C1.34 7 0.68 7 0 7 C-0.38133299 5.0085944 -0.71325582 3.00720923 -1 1 C-0.67 0.67 -0.34 0.34 0 0 Z " fill="#07C4FA" transform="translate(214,261)"/>
<path d="M0 0 C0.66 0.33 1.32 0.66 2 1 C1.67 1.99 1.34 2.98 1 4 C-1.31 4.33 -3.62 4.66 -6 5 C-5.195625 4.360625 -4.39125 3.72125 -3.5625 3.0625 C-1.7249496 1.59396498 -1.7249496 1.59396498 0 0 Z " fill="#38C0E2" transform="translate(134,84)"/>
<path d="M0 0 C1.98 0 3.96 0 6 0 C3.31158141 2.25245881 1.35358125 3.88213958 -2 5 C-1.34 3.35 -0.68 1.7 0 0 Z " fill="#2BB7E5" transform="translate(165,80)"/>
</svg>
